<?xml version="1.0" encoding="utf-8"?>
<!-- Generator: Adobe Illustrator 14.0.0, SVG Export Plug-In  -->
<!DOCTYPE svg PUBLIC "-//W3C//DTD SVG 1.1//EN" "http://www.w3.org/Graphics/SVG/1.1/DTD/svg11.dtd" [
	<!ENTITY ns_flows "http://ns.adobe.com/Flows/1.0/">
]>
<svg version="1.1"
	 xmlns="http://www.w3.org/2000/svg" xmlns:xlink="http://www.w3.org/1999/xlink" xmlns:a="http://ns.adobe.com/AdobeSVGViewerExtensions/3.0/"
	 x="0px" y="0px" width="200px" height="64px" viewBox="0.5 0.5 200 64" enable-background="new 0.5 0.5 200 64"
	 xml:space="preserve">
<defs>
</defs>
<rect x="0.5" y="0.5" display="none" stroke="#000000" width="200" height="64"/>
<rect x="3.5" y="3.5" display="none" stroke="#B3B3B3" stroke-width="6" width="58" height="58"/>
<rect x="18.551" y="12.5" fill="none" stroke="#FFFFFF" stroke-width="3" width="27.898" height="34.463"/>
<rect x="17.32" y="50.038" fill="#FFFFFF" width="30.36" height="2.462"/>
<rect x="22.243" y="21.319" fill="#FFFFFF" width="20.514" height="1.641"/>
<rect x="22.243" y="26.242" fill="#FFFFFF" width="20.514" height="1.642"/>
<rect x="22.243" y="31.166" fill="#FFFFFF" width="20.514" height="1.641"/>
<rect x="19.371" y="12.911" fill="#FFFFFF" width="26.258" height="4.1"/>
<path fill="#FFFFFF" d="M68.446,23.955v12.223h7.308v2.771H65.149V23.955H68.446z"/>
<path fill="#FFFFFF" d="M77.349,31.17c0.266-0.707,0.644-1.311,1.134-1.807c0.49-0.496,1.078-0.883,1.764-1.154
	c0.686-0.273,1.456-0.41,2.31-0.41s1.628,0.137,2.321,0.41c0.693,0.271,1.284,0.658,1.774,1.154c0.49,0.496,0.868,1.1,1.134,1.807
	s0.399,1.494,0.399,2.361c0,0.869-0.133,1.652-0.399,2.352c-0.266,0.701-0.644,1.299-1.134,1.797
	c-0.49,0.496-1.082,0.879-1.774,1.145s-1.467,0.398-2.321,0.398s-1.624-0.133-2.31-0.398c-0.687-0.266-1.274-0.648-1.764-1.145
	c-0.49-0.498-0.868-1.096-1.134-1.797c-0.266-0.699-0.399-1.482-0.399-2.352C76.95,32.664,77.083,31.877,77.349,31.17z
	 M80.058,34.803c0.084,0.412,0.228,0.783,0.431,1.113c0.203,0.328,0.473,0.59,0.809,0.787c0.336,0.195,0.756,0.293,1.26,0.293
	c0.504,0,0.928-0.098,1.271-0.293c0.343-0.197,0.616-0.459,0.819-0.787c0.203-0.33,0.346-0.701,0.43-1.113
	c0.084-0.414,0.126-0.838,0.126-1.271s-0.042-0.861-0.126-1.281s-0.228-0.791-0.43-1.111c-0.203-0.322-0.476-0.586-0.819-0.789
	c-0.343-0.203-0.766-0.305-1.271-0.305c-0.504,0-0.924,0.102-1.26,0.305s-0.606,0.467-0.809,0.789
	c-0.203,0.32-0.346,0.691-0.431,1.111c-0.084,0.42-0.126,0.848-0.126,1.281S79.974,34.389,80.058,34.803z"/>
<path fill="#FFFFFF" d="M100.376,39.748c-0.119,0.559-0.375,1.082-0.767,1.564c-0.392,0.482-0.959,0.893-1.701,1.229
	s-1.736,0.504-2.982,0.504c-0.532,0-1.075-0.066-1.627-0.199c-0.553-0.133-1.057-0.34-1.512-0.619
	c-0.455-0.281-0.833-0.641-1.134-1.082c-0.301-0.441-0.473-0.971-0.515-1.586H93.1c0.14,0.561,0.413,0.949,0.819,1.166
	c0.406,0.217,0.875,0.324,1.407,0.324c0.84,0,1.453-0.252,1.838-0.756c0.385-0.504,0.57-1.141,0.556-1.91v-1.428h-0.042
	c-0.322,0.574-0.78,0.998-1.375,1.27c-0.595,0.273-1.222,0.41-1.879,0.41c-0.812,0-1.512-0.143-2.1-0.43s-1.071-0.68-1.449-1.178
	c-0.378-0.496-0.655-1.076-0.83-1.742c-0.175-0.664-0.263-1.369-0.263-2.111c0-0.699,0.102-1.375,0.305-2.025
	c0.203-0.65,0.5-1.225,0.893-1.723c0.392-0.496,0.878-0.893,1.459-1.186c0.581-0.295,1.25-0.441,2.005-0.441
	c0.714,0,1.34,0.133,1.879,0.398s0.99,0.715,1.354,1.344h0.042v-1.449h2.835v10.164C100.554,38.691,100.495,39.188,100.376,39.748z
	 M96.292,36.135c0.322-0.168,0.588-0.391,0.798-0.672c0.21-0.279,0.368-0.598,0.473-0.955s0.157-0.73,0.157-1.123
	c0-0.447-0.042-0.871-0.126-1.271c-0.084-0.398-0.224-0.752-0.42-1.061c-0.196-0.307-0.455-0.553-0.777-0.734
	c-0.322-0.182-0.728-0.273-1.218-0.273c-0.42,0-0.78,0.084-1.082,0.252c-0.301,0.168-0.553,0.396-0.756,0.684
	c-0.203,0.287-0.35,0.615-0.441,0.986c-0.091,0.371-0.137,0.76-0.137,1.166c0,0.393,0.039,0.781,0.116,1.166
	c0.077,0.385,0.21,0.73,0.399,1.039s0.438,0.561,0.746,0.756c0.308,0.195,0.693,0.295,1.155,0.295
	C95.599,36.389,95.969,36.303,96.292,36.135z"/>
<path fill="#FFFFFF" d="M113.207,39.748c-0.119,0.559-0.375,1.082-0.767,1.564c-0.392,0.482-0.959,0.893-1.701,1.229
	s-1.736,0.504-2.982,0.504c-0.532,0-1.075-0.066-1.627-0.199c-0.553-0.133-1.057-0.34-1.512-0.619
	c-0.455-0.281-0.833-0.641-1.134-1.082c-0.301-0.441-0.473-0.971-0.515-1.586h2.961c0.14,0.561,0.413,0.949,0.819,1.166
	c0.406,0.217,0.875,0.324,1.407,0.324c0.84,0,1.453-0.252,1.838-0.756c0.385-0.504,0.57-1.141,0.556-1.91v-1.428h-0.042
	c-0.322,0.574-0.78,0.998-1.375,1.27c-0.595,0.273-1.222,0.41-1.879,0.41c-0.812,0-1.512-0.143-2.1-0.43s-1.071-0.68-1.449-1.178
	c-0.378-0.496-0.655-1.076-0.83-1.742c-0.175-0.664-0.263-1.369-0.263-2.111c0-0.699,0.102-1.375,0.305-2.025
	c0.203-0.65,0.5-1.225,0.893-1.723c0.392-0.496,0.878-0.893,1.459-1.186c0.581-0.295,1.25-0.441,2.005-0.441
	c0.714,0,1.34,0.133,1.879,0.398s0.99,0.715,1.354,1.344h0.042v-1.449h2.835v10.164C113.385,38.691,113.325,39.188,113.207,39.748z
	 M109.122,36.135c0.322-0.168,0.588-0.391,0.798-0.672c0.21-0.279,0.368-0.598,0.473-0.955s0.157-0.73,0.157-1.123
	c0-0.447-0.042-0.871-0.126-1.271c-0.084-0.398-0.224-0.752-0.42-1.061c-0.196-0.307-0.455-0.553-0.777-0.734
	c-0.322-0.182-0.728-0.273-1.218-0.273c-0.42,0-0.78,0.084-1.082,0.252c-0.301,0.168-0.553,0.396-0.756,0.684
	c-0.203,0.287-0.35,0.615-0.441,0.986c-0.091,0.371-0.137,0.76-0.137,1.166c0,0.393,0.039,0.781,0.116,1.166
	c0.077,0.385,0.21,0.73,0.399,1.039s0.438,0.561,0.746,0.756c0.308,0.195,0.693,0.295,1.155,0.295
	C108.429,36.389,108.8,36.303,109.122,36.135z"/>
<path fill="#FFFFFF" d="M115.863,26.412v-2.457h2.982v2.457H115.863z M118.845,28.092v10.857h-2.982V28.092H118.845z"/>
<path fill="#FFFFFF" d="M124.032,28.092v1.514h0.063c0.378-0.631,0.868-1.09,1.47-1.377c0.602-0.285,1.218-0.43,1.848-0.43
	c0.798,0,1.452,0.109,1.963,0.326c0.511,0.217,0.914,0.518,1.208,0.902s0.5,0.854,0.62,1.406c0.119,0.555,0.178,1.166,0.178,1.838
	v6.678H128.4v-6.131c0-0.896-0.14-1.564-0.42-2.006c-0.28-0.441-0.777-0.662-1.491-0.662c-0.812,0-1.4,0.242-1.764,0.725
	c-0.364,0.482-0.546,1.277-0.546,2.383v5.691h-2.982V28.092H124.032z"/>
<path fill="#FFFFFF" d="M143.908,39.748c-0.119,0.559-0.375,1.082-0.767,1.564c-0.392,0.482-0.959,0.893-1.701,1.229
	s-1.736,0.504-2.982,0.504c-0.532,0-1.075-0.066-1.627-0.199c-0.553-0.133-1.057-0.34-1.512-0.619
	c-0.455-0.281-0.833-0.641-1.134-1.082c-0.301-0.441-0.473-0.971-0.515-1.586h2.961c0.14,0.561,0.413,0.949,0.819,1.166
	c0.406,0.217,0.875,0.324,1.407,0.324c0.84,0,1.453-0.252,1.838-0.756c0.385-0.504,0.57-1.141,0.556-1.91v-1.428h-0.042
	c-0.322,0.574-0.78,0.998-1.375,1.27c-0.595,0.273-1.222,0.41-1.879,0.41c-0.812,0-1.512-0.143-2.1-0.43s-1.071-0.68-1.449-1.178
	c-0.378-0.496-0.655-1.076-0.83-1.742c-0.175-0.664-0.263-1.369-0.263-2.111c0-0.699,0.102-1.375,0.305-2.025
	c0.203-0.65,0.5-1.225,0.893-1.723c0.392-0.496,0.878-0.893,1.459-1.186c0.581-0.295,1.25-0.441,2.005-0.441
	c0.714,0,1.34,0.133,1.879,0.398s0.99,0.715,1.354,1.344h0.042v-1.449h2.835v10.164C144.086,38.691,144.027,39.188,143.908,39.748z
	 M139.824,36.135c0.322-0.168,0.588-0.391,0.798-0.672c0.21-0.279,0.368-0.598,0.473-0.955s0.157-0.73,0.157-1.123
	c0-0.447-0.042-0.871-0.126-1.271c-0.084-0.398-0.224-0.752-0.42-1.061c-0.196-0.307-0.455-0.553-0.777-0.734
	c-0.322-0.182-0.728-0.273-1.218-0.273c-0.42,0-0.78,0.084-1.082,0.252c-0.301,0.168-0.553,0.396-0.756,0.684
	c-0.203,0.287-0.35,0.615-0.441,0.986c-0.091,0.371-0.137,0.76-0.137,1.166c0,0.393,0.039,0.781,0.116,1.166
	c0.077,0.385,0.21,0.73,0.399,1.039s0.438,0.561,0.746,0.756c0.308,0.195,0.693,0.295,1.155,0.295
	C139.131,36.389,139.501,36.303,139.824,36.135z"/>
<rect x="18.551" y="12.5" display="none" fill="none" stroke="#FDB813" stroke-width="3" width="27.898" height="34.463"/>
<rect x="17.32" y="50.038" display="none" fill="#FDB813" width="30.36" height="2.462"/>
<rect x="22.243" y="21.319" display="none" fill="#FDB813" width="20.514" height="1.641"/>
<rect x="22.243" y="26.242" display="none" fill="#FDB813" width="20.514" height="1.642"/>
<rect x="22.243" y="31.166" display="none" fill="#FDB813" width="20.514" height="1.641"/>
<rect x="19.371" y="12.91" display="none" fill="#FDB813" width="26.258" height="4.102"/>
<path display="none" fill="#FDB813" d="M68.446,23.955v12.223h7.308v2.771H65.149V23.955H68.446z"/>
<path display="none" fill="#FDB813" d="M77.349,31.17c0.266-0.707,0.644-1.311,1.134-1.807c0.49-0.496,1.078-0.883,1.764-1.154
	c0.686-0.273,1.456-0.41,2.31-0.41s1.628,0.137,2.321,0.41c0.693,0.271,1.284,0.658,1.774,1.154c0.49,0.496,0.868,1.1,1.134,1.807
	s0.399,1.494,0.399,2.361c0,0.869-0.133,1.652-0.399,2.352c-0.266,0.701-0.644,1.299-1.134,1.797
	c-0.49,0.496-1.082,0.879-1.774,1.145s-1.467,0.398-2.321,0.398s-1.624-0.133-2.31-0.398c-0.687-0.266-1.274-0.648-1.764-1.145
	c-0.49-0.498-0.868-1.096-1.134-1.797c-0.266-0.699-0.399-1.482-0.399-2.352C76.95,32.664,77.083,31.877,77.349,31.17z
	 M80.058,34.803c0.084,0.412,0.228,0.783,0.431,1.113c0.203,0.328,0.473,0.59,0.809,0.787c0.336,0.195,0.756,0.293,1.26,0.293
	c0.504,0,0.928-0.098,1.271-0.293c0.343-0.197,0.616-0.459,0.819-0.787c0.203-0.33,0.346-0.701,0.43-1.113
	c0.084-0.414,0.126-0.838,0.126-1.271s-0.042-0.861-0.126-1.281s-0.228-0.791-0.43-1.111c-0.203-0.322-0.476-0.586-0.819-0.789
	c-0.343-0.203-0.766-0.305-1.271-0.305c-0.504,0-0.924,0.102-1.26,0.305s-0.606,0.467-0.809,0.789
	c-0.203,0.32-0.346,0.691-0.431,1.111c-0.084,0.42-0.126,0.848-0.126,1.281S79.974,34.389,80.058,34.803z"/>
<path display="none" fill="#FDB813" d="M100.376,39.748c-0.119,0.559-0.375,1.082-0.767,1.564c-0.392,0.482-0.959,0.893-1.701,1.229
	s-1.736,0.504-2.982,0.504c-0.532,0-1.075-0.066-1.627-0.199c-0.553-0.133-1.057-0.34-1.512-0.619
	c-0.455-0.281-0.833-0.641-1.134-1.082c-0.301-0.441-0.473-0.971-0.515-1.586H93.1c0.14,0.561,0.413,0.949,0.819,1.166
	c0.406,0.217,0.875,0.324,1.407,0.324c0.84,0,1.453-0.252,1.838-0.756c0.385-0.504,0.57-1.141,0.556-1.91v-1.428h-0.042
	c-0.322,0.574-0.78,0.998-1.375,1.27c-0.595,0.273-1.222,0.41-1.879,0.41c-0.812,0-1.512-0.143-2.1-0.43s-1.071-0.68-1.449-1.178
	c-0.378-0.496-0.655-1.076-0.83-1.742c-0.175-0.664-0.263-1.369-0.263-2.111c0-0.699,0.102-1.375,0.305-2.025
	c0.203-0.65,0.5-1.225,0.893-1.723c0.392-0.496,0.878-0.893,1.459-1.186c0.581-0.295,1.25-0.441,2.005-0.441
	c0.714,0,1.34,0.133,1.879,0.398s0.99,0.715,1.354,1.344h0.042v-1.449h2.835v10.164C100.554,38.691,100.495,39.188,100.376,39.748z
	 M96.292,36.135c0.322-0.168,0.588-0.391,0.798-0.672c0.21-0.279,0.368-0.598,0.473-0.955s0.157-0.73,0.157-1.123
	c0-0.447-0.042-0.871-0.126-1.271c-0.084-0.398-0.224-0.752-0.42-1.061c-0.196-0.307-0.455-0.553-0.777-0.734
	c-0.322-0.182-0.728-0.273-1.218-0.273c-0.42,0-0.78,0.084-1.082,0.252c-0.301,0.168-0.553,0.396-0.756,0.684
	c-0.203,0.287-0.35,0.615-0.441,0.986c-0.091,0.371-0.137,0.76-0.137,1.166c0,0.393,0.039,0.781,0.116,1.166
	c0.077,0.385,0.21,0.73,0.399,1.039s0.438,0.561,0.746,0.756c0.308,0.195,0.693,0.295,1.155,0.295
	C95.599,36.389,95.969,36.303,96.292,36.135z"/>
<path display="none" fill="#FDB813" d="M113.207,39.748c-0.119,0.559-0.375,1.082-0.767,1.564c-0.392,0.482-0.959,0.893-1.701,1.229
	s-1.736,0.504-2.982,0.504c-0.532,0-1.075-0.066-1.627-0.199c-0.553-0.133-1.057-0.34-1.512-0.619
	c-0.455-0.281-0.833-0.641-1.134-1.082c-0.301-0.441-0.473-0.971-0.515-1.586h2.961c0.14,0.561,0.413,0.949,0.819,1.166
	c0.406,0.217,0.875,0.324,1.407,0.324c0.84,0,1.453-0.252,1.838-0.756c0.385-0.504,0.57-1.141,0.556-1.91v-1.428h-0.042
	c-0.322,0.574-0.78,0.998-1.375,1.27c-0.595,0.273-1.222,0.41-1.879,0.41c-0.812,0-1.512-0.143-2.1-0.43s-1.071-0.68-1.449-1.178
	c-0.378-0.496-0.655-1.076-0.83-1.742c-0.175-0.664-0.263-1.369-0.263-2.111c0-0.699,0.102-1.375,0.305-2.025
	c0.203-0.65,0.5-1.225,0.893-1.723c0.392-0.496,0.878-0.893,1.459-1.186c0.581-0.295,1.25-0.441,2.005-0.441
	c0.714,0,1.34,0.133,1.879,0.398s0.99,0.715,1.354,1.344h0.042v-1.449h2.835v10.164C113.385,38.691,113.325,39.188,113.207,39.748z
	 M109.122,36.135c0.322-0.168,0.588-0.391,0.798-0.672c0.21-0.279,0.368-0.598,0.473-0.955s0.157-0.73,0.157-1.123
	c0-0.447-0.042-0.871-0.126-1.271c-0.084-0.398-0.224-0.752-0.42-1.061c-0.196-0.307-0.455-0.553-0.777-0.734
	c-0.322-0.182-0.728-0.273-1.218-0.273c-0.42,0-0.78,0.084-1.082,0.252c-0.301,0.168-0.553,0.396-0.756,0.684
	c-0.203,0.287-0.35,0.615-0.441,0.986c-0.091,0.371-0.137,0.76-0.137,1.166c0,0.393,0.039,0.781,0.116,1.166
	c0.077,0.385,0.21,0.73,0.399,1.039s0.438,0.561,0.746,0.756c0.308,0.195,0.693,0.295,1.155,0.295
	C108.429,36.389,108.8,36.303,109.122,36.135z"/>
<path display="none" fill="#FDB813" d="M115.863,26.412v-2.457h2.982v2.457H115.863z M118.845,28.092v10.857h-2.982V28.092H118.845z
	"/>
<path display="none" fill="#FDB813" d="M124.032,28.092v1.514h0.063c0.378-0.631,0.868-1.09,1.47-1.377
	c0.602-0.285,1.218-0.43,1.848-0.43c0.798,0,1.452,0.109,1.963,0.326c0.511,0.217,0.914,0.518,1.208,0.902s0.5,0.854,0.62,1.406
	c0.119,0.555,0.178,1.166,0.178,1.838v6.678H128.4v-6.131c0-0.896-0.14-1.564-0.42-2.006c-0.28-0.441-0.777-0.662-1.491-0.662
	c-0.812,0-1.4,0.242-1.764,0.725c-0.364,0.482-0.546,1.277-0.546,2.383v5.691h-2.982V28.092H124.032z"/>
<path display="none" fill="#FDB813" d="M143.908,39.748c-0.119,0.559-0.375,1.082-0.767,1.564c-0.392,0.482-0.959,0.893-1.701,1.229
	s-1.736,0.504-2.982,0.504c-0.532,0-1.075-0.066-1.627-0.199c-0.553-0.133-1.057-0.34-1.512-0.619
	c-0.455-0.281-0.833-0.641-1.134-1.082c-0.301-0.441-0.473-0.971-0.515-1.586h2.961c0.14,0.561,0.413,0.949,0.819,1.166
	c0.406,0.217,0.875,0.324,1.407,0.324c0.84,0,1.453-0.252,1.838-0.756c0.385-0.504,0.57-1.141,0.556-1.91v-1.428h-0.042
	c-0.322,0.574-0.78,0.998-1.375,1.27c-0.595,0.273-1.222,0.41-1.879,0.41c-0.812,0-1.512-0.143-2.1-0.43s-1.071-0.68-1.449-1.178
	c-0.378-0.496-0.655-1.076-0.83-1.742c-0.175-0.664-0.263-1.369-0.263-2.111c0-0.699,0.102-1.375,0.305-2.025
	c0.203-0.65,0.5-1.225,0.893-1.723c0.392-0.496,0.878-0.893,1.459-1.186c0.581-0.295,1.25-0.441,2.005-0.441
	c0.714,0,1.34,0.133,1.879,0.398s0.99,0.715,1.354,1.344h0.042v-1.449h2.835v10.164C144.086,38.691,144.027,39.188,143.908,39.748z
	 M139.824,36.135c0.322-0.168,0.588-0.391,0.798-0.672c0.21-0.279,0.368-0.598,0.473-0.955s0.157-0.73,0.157-1.123
	c0-0.447-0.042-0.871-0.126-1.271c-0.084-0.398-0.224-0.752-0.42-1.061c-0.196-0.307-0.455-0.553-0.777-0.734
	c-0.322-0.182-0.728-0.273-1.218-0.273c-0.42,0-0.78,0.084-1.082,0.252c-0.301,0.168-0.553,0.396-0.756,0.684
	c-0.203,0.287-0.35,0.615-0.441,0.986c-0.091,0.371-0.137,0.76-0.137,1.166c0,0.393,0.039,0.781,0.116,1.166
	c0.077,0.385,0.21,0.73,0.399,1.039s0.438,0.561,0.746,0.756c0.308,0.195,0.693,0.295,1.155,0.295
	C139.131,36.389,139.501,36.303,139.824,36.135z"/>
<path display="none" fill="#FDB813" d="M73.362,24.5l5.142,13.751h-3.139l-1.04-3.063h-5.142l-1.079,3.063h-3.042L70.26,24.5H73.362
	z M73.535,32.935l-1.732-5.045h-0.039l-1.791,5.045H73.535z"/>
<path display="none" fill="#FDB813" d="M86.477,36.979c-0.321,0.54-0.742,0.93-1.262,1.166c-0.52,0.237-1.107,0.355-1.763,0.355
	c-0.744,0-1.398-0.143-1.964-0.434c-0.565-0.289-1.031-0.679-1.396-1.175c-0.366-0.494-0.643-1.061-0.828-1.704
	c-0.187-0.641-0.28-1.31-0.28-2.002c0-0.669,0.093-1.313,0.28-1.937c0.186-0.623,0.462-1.171,0.828-1.646
	c0.365-0.476,0.824-0.858,1.376-1.147c0.552-0.287,1.194-0.432,1.926-0.432c0.59,0,1.152,0.125,1.685,0.374
	c0.532,0.253,0.954,0.62,1.261,1.107h0.04V24.5h2.733v13.751h-2.599v-1.272H86.477z M86.361,32.059
	c-0.077-0.379-0.208-0.712-0.395-1.001c-0.186-0.291-0.428-0.525-0.723-0.703c-0.295-0.18-0.667-0.271-1.117-0.271
	c-0.45,0-0.828,0.092-1.136,0.271c-0.308,0.178-0.557,0.416-0.742,0.712c-0.187,0.296-0.321,0.634-0.404,1.01
	c-0.083,0.38-0.125,0.774-0.125,1.186c0,0.385,0.044,0.77,0.134,1.154c0.091,0.389,0.235,0.731,0.434,1.032
	c0.199,0.301,0.45,0.547,0.752,0.731c0.3,0.187,0.664,0.28,1.087,0.28c0.45,0,0.825-0.091,1.127-0.271
	c0.301-0.18,0.542-0.42,0.722-0.721c0.18-0.304,0.308-0.646,0.385-1.031c0.077-0.385,0.116-0.781,0.116-1.195
	C86.477,32.834,86.438,32.438,86.361,32.059z"/>
<path display="none" fill="#FDB813" d="M93.833,28.292v1.349h0.038c0.36-0.514,0.793-0.912,1.301-1.192
	c0.507-0.284,1.087-0.425,1.743-0.425c0.628,0,1.203,0.124,1.723,0.365c0.521,0.244,0.916,0.676,1.185,1.292
	c0.294-0.437,0.696-0.821,1.204-1.157c0.506-0.333,1.107-0.5,1.8-0.5c0.526,0,1.015,0.062,1.464,0.193
	c0.449,0.127,0.834,0.332,1.156,0.616c0.319,0.282,0.57,0.649,0.75,1.107c0.181,0.454,0.27,1.004,0.27,1.645v6.666h-2.734v-5.644
	c0-0.333-0.013-0.647-0.038-0.943c-0.027-0.297-0.097-0.552-0.212-0.77s-0.287-0.394-0.509-0.521
	c-0.226-0.129-0.531-0.191-0.915-0.191c-0.386,0-0.697,0.072-0.935,0.219c-0.239,0.15-0.424,0.342-0.559,0.578
	c-0.134,0.236-0.224,0.508-0.269,0.81c-0.046,0.301-0.068,0.607-0.068,0.914v5.548h-2.735v-5.586c0-0.295-0.006-0.589-0.02-0.876
	c-0.013-0.289-0.067-0.558-0.163-0.799c-0.096-0.244-0.256-0.438-0.481-0.589c-0.225-0.146-0.555-0.219-0.992-0.219
	c-0.128,0-0.298,0.027-0.511,0.085c-0.211,0.058-0.417,0.167-0.616,0.327c-0.199,0.162-0.369,0.392-0.51,0.692
	c-0.141,0.304-0.212,0.696-0.212,1.185v5.779h-2.735v-9.959H93.833z"/>
<path display="none" fill="#FDB813" d="M108.701,26.753V24.5h2.735v2.253H108.701z M111.436,28.292v9.959h-2.735v-9.959H111.436z"/>
<path display="none" fill="#FDB813" d="M116.192,28.292v1.389h0.057c0.347-0.578,0.796-0.999,1.348-1.262
	c0.553-0.265,1.118-0.396,1.695-0.396c0.732,0,1.332,0.1,1.801,0.3c0.468,0.198,0.836,0.473,1.106,0.826
	c0.27,0.354,0.46,0.786,0.569,1.29c0.107,0.509,0.162,1.071,0.162,1.688v6.124h-2.733v-5.625c0-0.821-0.129-1.436-0.385-1.838
	c-0.256-0.406-0.712-0.605-1.368-0.605c-0.745,0-1.284,0.219-1.618,0.663c-0.333,0.441-0.5,1.171-0.5,2.185v5.221h-2.735v-9.959
	H116.192z"/>
<path display="none" fill="#FDB813" d="M125.09,26.753V24.5h2.735v2.253H125.09z M127.825,28.292v9.959h-2.735v-9.959H127.825z"/>
<path display="none" fill="#FDB813" d="M132.282,35.775c0.122,0.211,0.278,0.385,0.472,0.521c0.193,0.135,0.414,0.233,0.665,0.298
	c0.25,0.064,0.51,0.096,0.78,0.096c0.193,0,0.395-0.022,0.606-0.066c0.212-0.047,0.406-0.116,0.578-0.212
	c0.173-0.098,0.317-0.225,0.433-0.387c0.116-0.16,0.173-0.36,0.173-0.605c0-0.411-0.273-0.72-0.818-0.925
	c-0.545-0.205-1.306-0.411-2.282-0.616c-0.397-0.091-0.787-0.194-1.165-0.316c-0.379-0.122-0.716-0.282-1.012-0.484
	c-0.294-0.196-0.533-0.447-0.711-0.748c-0.181-0.304-0.27-0.671-0.27-1.107c0-0.643,0.125-1.17,0.375-1.581
	c0.251-0.411,0.581-0.734,0.992-0.972c0.41-0.236,0.873-0.405,1.386-0.501c0.515-0.096,1.041-0.145,1.58-0.145
	c0.54,0,1.061,0.053,1.568,0.155c0.508,0.101,0.96,0.274,1.358,0.519c0.398,0.245,0.729,0.569,0.992,0.973
	c0.264,0.404,0.421,0.914,0.472,1.53h-2.599c-0.039-0.523-0.238-0.881-0.598-1.068c-0.358-0.187-0.782-0.278-1.27-0.278
	c-0.154,0-0.32,0.008-0.501,0.029c-0.179,0.018-0.343,0.061-0.489,0.124c-0.15,0.065-0.274,0.156-0.376,0.279
	c-0.105,0.122-0.154,0.286-0.154,0.491c0,0.244,0.089,0.444,0.27,0.598c0.178,0.153,0.413,0.278,0.701,0.376
	c0.29,0.094,0.619,0.183,0.992,0.259c0.374,0.077,0.751,0.16,1.138,0.251c0.397,0.089,0.786,0.198,1.164,0.327
	c0.379,0.129,0.716,0.298,1.012,0.51c0.294,0.211,0.532,0.476,0.711,0.791c0.181,0.315,0.271,0.701,0.271,1.164
	c0,0.655-0.132,1.203-0.395,1.647c-0.264,0.443-0.607,0.799-1.031,1.066c-0.423,0.272-0.909,0.462-1.455,0.569
	c-0.544,0.11-1.1,0.164-1.665,0.164c-0.577,0-1.143-0.058-1.695-0.174c-0.552-0.115-1.043-0.307-1.474-0.576
	c-0.431-0.271-0.782-0.627-1.059-1.069c-0.275-0.442-0.426-0.999-0.453-1.666h2.601C132.1,35.311,132.159,35.563,132.282,35.775z"/>
<path display="none" fill="#FDB813" d="M145.792,28.292v1.831h-2.003v4.93c0,0.464,0.079,0.77,0.232,0.923
	c0.153,0.157,0.461,0.231,0.925,0.231c0.153,0,0.3-0.005,0.441-0.019c0.141-0.013,0.276-0.03,0.405-0.056v2.118
	c-0.23,0.036-0.488,0.062-0.77,0.075c-0.282,0.012-0.56,0.021-0.829,0.021c-0.423,0-0.825-0.029-1.203-0.089
	c-0.379-0.056-0.712-0.169-1.002-0.336c-0.288-0.165-0.515-0.403-0.683-0.712c-0.167-0.308-0.252-0.712-0.252-1.213v-5.874h-1.654
	v-1.831h1.654v-2.984h2.736v2.984H145.792z"/>
<path display="none" fill="#FDB813" d="M149.7,28.292v1.851h0.039c0.129-0.309,0.301-0.594,0.521-0.857
	c0.218-0.263,0.469-0.489,0.751-0.673c0.281-0.188,0.585-0.333,0.906-0.434c0.318-0.103,0.653-0.155,1.001-0.155
	c0.178,0,0.377,0.031,0.595,0.098v2.542c-0.129-0.026-0.282-0.049-0.46-0.068c-0.181-0.021-0.354-0.027-0.521-0.027
	c-0.502,0-0.925,0.083-1.271,0.248c-0.346,0.168-0.627,0.396-0.839,0.685s-0.362,0.627-0.453,1.012
	c-0.089,0.385-0.135,0.803-0.135,1.252v4.487h-2.733v-9.959H149.7z"/>
<path display="none" fill="#FDB813" d="M154.477,31.357c0.039-0.645,0.2-1.175,0.482-1.602c0.281-0.422,0.643-0.763,1.078-1.021
	c0.437-0.256,0.928-0.438,1.474-0.548c0.545-0.108,1.093-0.164,1.647-0.164c0.5,0,1.007,0.035,1.521,0.104
	c0.513,0.073,0.981,0.211,1.406,0.416c0.423,0.205,0.77,0.491,1.039,0.854c0.269,0.367,0.404,0.854,0.404,1.457v5.18
	c0,0.451,0.027,0.879,0.077,1.29c0.052,0.41,0.142,0.721,0.271,0.926h-2.773c-0.051-0.156-0.093-0.312-0.125-0.474
	c-0.033-0.158-0.055-0.325-0.067-0.491c-0.438,0.449-0.95,0.765-1.541,0.944c-0.591,0.179-1.194,0.27-1.811,0.27
	c-0.475,0-0.917-0.058-1.328-0.174c-0.412-0.115-0.771-0.294-1.079-0.538c-0.309-0.244-0.548-0.552-0.723-0.925
	c-0.172-0.372-0.26-0.814-0.26-1.33c0-0.563,0.1-1.028,0.3-1.396c0.198-0.366,0.453-0.656,0.769-0.876
	c0.315-0.218,0.674-0.381,1.078-0.491c0.405-0.109,0.812-0.194,1.224-0.259c0.411-0.064,0.815-0.115,1.214-0.153
	c0.397-0.04,0.749-0.098,1.059-0.174c0.307-0.079,0.551-0.19,0.732-0.34c0.179-0.145,0.261-0.36,0.248-0.645
	c0-0.296-0.047-0.529-0.144-0.701c-0.096-0.174-0.225-0.31-0.385-0.405s-0.347-0.158-0.558-0.193
	c-0.211-0.03-0.44-0.047-0.684-0.047c-0.54,0-0.963,0.114-1.271,0.346c-0.309,0.232-0.489,0.616-0.54,1.158H154.477z
	 M160.793,33.377c-0.114,0.104-0.259,0.185-0.432,0.241c-0.175,0.058-0.361,0.106-0.56,0.146c-0.199,0.038-0.408,0.071-0.625,0.097
	c-0.218,0.026-0.436,0.056-0.655,0.096c-0.206,0.037-0.408,0.089-0.607,0.153s-0.371,0.151-0.521,0.26
	c-0.147,0.109-0.266,0.247-0.355,0.414c-0.09,0.165-0.135,0.38-0.135,0.636c0,0.245,0.045,0.451,0.135,0.616
	c0.089,0.167,0.211,0.299,0.365,0.396c0.154,0.096,0.334,0.163,0.54,0.201c0.205,0.038,0.417,0.058,0.634,0.058
	c0.54,0,0.957-0.089,1.252-0.27c0.294-0.18,0.513-0.396,0.655-0.645c0.142-0.252,0.227-0.505,0.26-0.761
	c0.032-0.258,0.047-0.463,0.047-0.616V33.377z"/>
<path display="none" fill="#FDB813" d="M171.116,28.292v1.831h-2.003v4.93c0,0.464,0.077,0.77,0.231,0.923
	c0.153,0.157,0.463,0.231,0.924,0.231c0.154,0,0.301-0.005,0.443-0.019c0.141-0.013,0.275-0.03,0.404-0.056v2.118
	c-0.231,0.036-0.488,0.062-0.771,0.075c-0.281,0.012-0.559,0.021-0.829,0.021c-0.423,0-0.823-0.029-1.203-0.089
	c-0.377-0.056-0.712-0.169-1.001-0.336c-0.289-0.165-0.517-0.403-0.684-0.712c-0.166-0.308-0.25-0.712-0.25-1.213v-5.874h-1.655
	v-1.831h1.655v-2.984h2.735v2.984H171.116z"/>
<path display="none" fill="#FDB813" d="M172.503,26.753V24.5h2.734v2.253H172.503z M175.237,28.292v9.959h-2.734v-9.959H175.237z"/>
<path display="none" fill="#FDB813" d="M177.451,31.115c0.245-0.649,0.59-1.201,1.04-1.655c0.45-0.458,0.99-0.81,1.618-1.062
	c0.628-0.249,1.335-0.374,2.119-0.374c0.782,0,1.492,0.125,2.128,0.374c0.636,0.253,1.177,0.604,1.627,1.062
	c0.45,0.454,0.795,1.006,1.04,1.655c0.244,0.647,0.367,1.37,0.367,2.166c0,0.797-0.123,1.515-0.367,2.156
	c-0.245,0.643-0.59,1.191-1.04,1.646c-0.45,0.458-0.991,0.81-1.627,1.052c-0.636,0.243-1.346,0.365-2.128,0.365
	c-0.784,0-1.49-0.122-2.119-0.365c-0.628-0.242-1.168-0.594-1.618-1.052c-0.45-0.454-0.795-1.003-1.04-1.646
	c-0.243-0.642-0.366-1.359-0.366-2.156C177.085,32.485,177.208,31.763,177.451,31.115z M179.936,34.447
	c0.078,0.378,0.209,0.717,0.395,1.021c0.186,0.301,0.433,0.541,0.742,0.721c0.308,0.181,0.693,0.271,1.155,0.271
	c0.462,0,0.85-0.091,1.165-0.271c0.315-0.18,0.566-0.42,0.75-0.721c0.186-0.304,0.317-0.643,0.394-1.021
	c0.079-0.38,0.118-0.77,0.118-1.166c0-0.397-0.039-0.791-0.118-1.176c-0.077-0.385-0.208-0.726-0.394-1.02
	c-0.185-0.296-0.436-0.534-0.75-0.723c-0.315-0.187-0.703-0.28-1.165-0.28c-0.462,0-0.848,0.094-1.155,0.28
	c-0.309,0.188-0.556,0.427-0.742,0.723c-0.186,0.294-0.317,0.635-0.395,1.02s-0.116,0.778-0.116,1.176
	C179.82,33.678,179.858,34.067,179.936,34.447z"/>
<path display="none" fill="#FDB813" d="M191.759,28.292v1.389h0.058c0.347-0.578,0.796-0.999,1.349-1.262
	c0.553-0.265,1.117-0.396,1.695-0.396c0.732,0,1.333,0.1,1.801,0.3c0.469,0.198,0.837,0.473,1.106,0.826s0.459,0.786,0.569,1.29
	c0.108,0.509,0.163,1.071,0.163,1.688v6.124h-2.735v-5.625c0-0.821-0.129-1.436-0.384-1.838c-0.258-0.406-0.714-0.605-1.368-0.605
	c-0.744,0-1.283,0.219-1.617,0.663c-0.334,0.441-0.501,1.171-0.501,2.185v5.221h-2.733v-9.959H191.759z"/>
</svg>
