<?xml version="1.0" encoding="utf-8"?>
<!-- Generator: Adobe Illustrator 14.0.0, SVG Export Plug-In  -->
<!DOCTYPE svg PUBLIC "-//W3C//DTD SVG 1.1//EN" "http://www.w3.org/Graphics/SVG/1.1/DTD/svg11.dtd" [
	<!ENTITY ns_flows "http://ns.adobe.com/Flows/1.0/">
]>
<svg version="1.1"
	 xmlns="http://www.w3.org/2000/svg" xmlns:xlink="http://www.w3.org/1999/xlink" xmlns:a="http://ns.adobe.com/AdobeSVGViewerExtensions/3.0/"
	 x="0px" y="0px" width="200px" height="64px" viewBox="0.5 0.5 200 64" enable-background="new 0.5 0.5 200 64"
	 xml:space="preserve">
<defs>
</defs>
<rect x="0.5" y="0.5" display="none" stroke="#000000" width="200" height="64"/>
<rect x="3.5" y="3.5" display="none" stroke="#B3B3B3" stroke-width="6" width="58" height="58"/>
<path fill="none" stroke="#FFFFFF" stroke-width="3" d="M47.691,32.471c0,8.33-6.758,15.088-15.088,15.088
	c-8.334,0-15.09-6.758-15.09-15.088c0-8.332,6.756-15.084,15.09-15.084C40.934,17.387,47.691,24.139,47.691,32.471z"/>
<circle fill="none" stroke="#FFFFFF" stroke-width="5" cx="32.604" cy="32.471" r="4.617"/>
<polyline fill="#FFFFFF" points="28.239,17.59 30.512,12.5 35.057,12.5 37.331,17.59 "/>
<polyline fill="#FFFFFF" points="37.331,47.41 35.057,52.5 30.512,52.5 28.239,47.41 "/>
<polyline fill="#FFFFFF" points="47.516,27.926 52.604,30.198 52.604,34.746 47.516,37.012 "/>
<polyline fill="#FFFFFF" points="17.693,37.195 12.604,34.922 12.604,30.375 17.693,28.105 "/>
<polyline fill="#FFFFFF" points="39.877,18.466 45.079,16.474 48.297,19.69 46.305,24.896 "/>
<polyline fill="#FFFFFF" points="46.614,39.74 48.606,44.941 45.387,48.154 40.182,46.162 "/>
<polyline fill="#FFFFFF" points="18.902,25.201 16.91,19.996 20.124,16.779 25.33,18.77 "/>
<polyline fill="#FFFFFF" points="25.436,46.528 20.23,48.52 17.015,45.306 19.007,40.1 "/>
<path fill="#FFFFFF" d="M76.067,28.007c-0.196-0.315-0.441-0.592-0.735-0.83c-0.294-0.237-0.627-0.423-0.998-0.557
	c-0.371-0.133-0.76-0.199-1.166-0.199c-0.742,0-1.372,0.144-1.89,0.431s-0.938,0.672-1.26,1.155
	c-0.322,0.482-0.557,1.032-0.704,1.648s-0.22,1.253-0.22,1.911c0,0.63,0.073,1.242,0.22,1.837c0.147,0.596,0.381,1.131,0.704,1.606
	c0.322,0.477,0.742,0.858,1.26,1.145c0.518,0.287,1.148,0.431,1.89,0.431c1.008,0,1.795-0.308,2.363-0.924
	c0.567-0.616,0.913-1.428,1.039-2.437h3.192c-0.084,0.938-0.301,1.785-0.651,2.541c-0.35,0.757-0.812,1.4-1.386,1.933
	c-0.574,0.532-1.246,0.938-2.016,1.218s-1.617,0.42-2.541,0.42c-1.148,0-2.181-0.199-3.098-0.599
	c-0.917-0.398-1.69-0.948-2.32-1.648s-1.113-1.522-1.449-2.468c-0.336-0.944-0.504-1.963-0.504-3.055c0-1.12,0.168-2.16,0.504-3.119
	c0.336-0.959,0.819-1.795,1.449-2.509c0.63-0.715,1.403-1.274,2.32-1.681c0.917-0.405,1.95-0.608,3.098-0.608
	c0.826,0,1.606,0.119,2.342,0.356c0.735,0.238,1.393,0.585,1.974,1.04s1.061,1.019,1.438,1.69s0.616,1.441,0.714,2.31h-3.192
	C76.389,28.668,76.263,28.321,76.067,28.007z"/>
<path fill="#FFFFFF" d="M81.758,31.22c0.266-0.707,0.644-1.31,1.134-1.807c0.49-0.496,1.078-0.882,1.764-1.154
	c0.686-0.273,1.456-0.41,2.31-0.41s1.628,0.137,2.321,0.41c0.693,0.272,1.284,0.658,1.774,1.154c0.49,0.497,0.868,1.1,1.134,1.807
	s0.399,1.494,0.399,2.362s-0.133,1.652-0.399,2.352c-0.266,0.7-0.644,1.299-1.134,1.796c-0.49,0.497-1.082,0.879-1.774,1.145
	s-1.467,0.399-2.321,0.399s-1.624-0.134-2.31-0.399c-0.687-0.266-1.274-0.647-1.764-1.145c-0.49-0.497-0.868-1.096-1.134-1.796
	c-0.266-0.699-0.399-1.483-0.399-2.352S81.492,31.927,81.758,31.22z M84.467,34.853c0.084,0.413,0.228,0.784,0.431,1.113
	c0.203,0.329,0.473,0.591,0.809,0.787s0.756,0.294,1.26,0.294c0.504,0,0.928-0.098,1.271-0.294c0.343-0.196,0.616-0.458,0.819-0.787
	c0.203-0.329,0.346-0.7,0.43-1.113s0.126-0.837,0.126-1.271s-0.042-0.861-0.126-1.281s-0.228-0.791-0.43-1.112
	c-0.203-0.322-0.476-0.585-0.819-0.788c-0.343-0.203-0.766-0.305-1.271-0.305c-0.504,0-0.924,0.102-1.26,0.305
	s-0.606,0.466-0.809,0.788c-0.203,0.321-0.346,0.692-0.431,1.112c-0.084,0.42-0.126,0.848-0.126,1.281S84.383,34.439,84.467,34.853z
	"/>
<path fill="#FFFFFF" d="M97.361,28.143v1.513h0.063c0.378-0.63,0.868-1.089,1.47-1.376c0.602-0.286,1.218-0.431,1.848-0.431
	c0.798,0,1.452,0.109,1.963,0.326c0.511,0.217,0.914,0.518,1.208,0.902c0.294,0.386,0.5,0.854,0.62,1.407
	c0.119,0.554,0.178,1.166,0.178,1.838V39h-2.982v-6.132c0-0.896-0.14-1.564-0.42-2.006c-0.28-0.44-0.777-0.661-1.491-0.661
	c-0.812,0-1.4,0.241-1.764,0.725c-0.364,0.482-0.546,1.277-0.546,2.383V39h-2.982V28.143H97.361z"/>
<path fill="#FFFFFF" d="M105.845,30.138v-1.995h1.785v-0.84c0-0.966,0.301-1.757,0.903-2.373c0.602-0.615,1.512-0.924,2.73-0.924
	c0.266,0,0.532,0.011,0.798,0.031c0.266,0.021,0.525,0.039,0.777,0.053v2.227c-0.35-0.042-0.714-0.063-1.092-0.063
	c-0.406,0-0.696,0.095-0.872,0.283c-0.175,0.189-0.262,0.508-0.262,0.956v0.65h2.058v1.995h-2.058V39h-2.982v-8.862H105.845z"/>
<path fill="#FFFFFF" d="M114.055,26.463v-2.457h2.982v2.457H114.055z M117.038,28.143V39h-2.982V28.143H117.038z"/>
<path fill="#FFFFFF" d="M129.648,39.798c-0.119,0.56-0.375,1.082-0.767,1.564c-0.392,0.483-0.959,0.893-1.701,1.229
	s-1.736,0.504-2.982,0.504c-0.532,0-1.075-0.066-1.627-0.199c-0.553-0.133-1.057-0.34-1.512-0.619
	c-0.455-0.28-0.833-0.641-1.134-1.082c-0.301-0.44-0.473-0.97-0.515-1.585h2.961c0.14,0.56,0.413,0.948,0.819,1.165
	c0.406,0.217,0.875,0.325,1.407,0.325c0.84,0,1.453-0.252,1.838-0.756c0.385-0.504,0.57-1.141,0.556-1.911v-1.428h-0.042
	c-0.322,0.574-0.78,0.998-1.375,1.271c-0.595,0.273-1.222,0.409-1.879,0.409c-0.812,0-1.512-0.143-2.1-0.43s-1.071-0.68-1.449-1.177
	c-0.378-0.496-0.655-1.077-0.83-1.742c-0.175-0.665-0.263-1.369-0.263-2.111c0-0.699,0.102-1.375,0.305-2.026
	c0.203-0.65,0.5-1.225,0.893-1.722c0.392-0.497,0.878-0.893,1.459-1.187c0.581-0.294,1.25-0.441,2.005-0.441
	c0.714,0,1.34,0.134,1.879,0.399s0.99,0.714,1.354,1.344h0.042v-1.449h2.835v10.164C129.826,38.741,129.767,39.238,129.648,39.798z
	 M125.563,36.186c0.322-0.168,0.588-0.392,0.798-0.672c0.21-0.279,0.368-0.599,0.473-0.955c0.105-0.357,0.157-0.731,0.157-1.124
	c0-0.447-0.042-0.871-0.126-1.271c-0.084-0.398-0.224-0.752-0.42-1.061c-0.196-0.308-0.455-0.553-0.777-0.734
	c-0.322-0.182-0.728-0.273-1.218-0.273c-0.42,0-0.78,0.084-1.082,0.252c-0.301,0.168-0.553,0.396-0.756,0.683
	c-0.203,0.287-0.35,0.616-0.441,0.987c-0.091,0.371-0.137,0.76-0.137,1.165c0,0.393,0.039,0.781,0.116,1.166
	c0.077,0.385,0.21,0.731,0.399,1.039c0.189,0.309,0.438,0.561,0.746,0.756c0.308,0.196,0.693,0.295,1.155,0.295
	C124.871,36.438,125.241,36.354,125.563,36.186z"/>
<path fill="#FFFFFF" d="M139.57,39v-1.512h-0.063c-0.378,0.63-0.868,1.085-1.47,1.364c-0.602,0.28-1.218,0.421-1.848,0.421
	c-0.798,0-1.453-0.105-1.963-0.315c-0.511-0.21-0.914-0.507-1.208-0.893c-0.294-0.385-0.501-0.854-0.62-1.407
	c-0.119-0.553-0.179-1.165-0.179-1.837v-6.679h2.982v6.133c0,0.896,0.14,1.564,0.42,2.005c0.28,0.441,0.777,0.662,1.491,0.662
	c0.812,0,1.4-0.242,1.764-0.725c0.364-0.483,0.546-1.277,0.546-2.384v-5.691h2.982V39H139.57z"/>
<path fill="#FFFFFF" d="M147.508,28.143v2.017h0.042c0.14-0.336,0.329-0.647,0.567-0.935c0.238-0.287,0.511-0.532,0.819-0.735
	c0.308-0.202,0.637-0.36,0.987-0.473c0.35-0.111,0.714-0.168,1.092-0.168c0.196,0,0.413,0.035,0.651,0.105v2.771
	c-0.14-0.027-0.308-0.052-0.504-0.073c-0.196-0.021-0.385-0.031-0.567-0.031c-0.546,0-1.008,0.091-1.386,0.272
	c-0.378,0.183-0.683,0.431-0.914,0.746c-0.231,0.314-0.396,0.683-0.493,1.103c-0.098,0.42-0.147,0.875-0.147,1.365V39h-2.982V28.143
	H147.508z"/>
<path fill="#FFFFFF" d="M155.656,36.396c0.448,0.434,1.092,0.65,1.932,0.65c0.602,0,1.12-0.15,1.554-0.451
	c0.434-0.301,0.7-0.62,0.798-0.956h2.625c-0.42,1.303-1.064,2.233-1.932,2.793c-0.869,0.561-1.918,0.841-3.15,0.841
	c-0.854,0-1.624-0.137-2.31-0.41c-0.686-0.272-1.267-0.661-1.743-1.165c-0.476-0.504-0.844-1.106-1.103-1.807
	c-0.259-0.699-0.389-1.47-0.389-2.31c0-0.812,0.133-1.567,0.399-2.268s0.644-1.306,1.134-1.817c0.49-0.511,1.074-0.913,1.753-1.207
	c0.679-0.294,1.431-0.441,2.257-0.441c0.924,0,1.729,0.179,2.415,0.536c0.686,0.356,1.25,0.837,1.69,1.438
	c0.441,0.602,0.759,1.288,0.956,2.058c0.196,0.771,0.266,1.575,0.21,2.415h-7.833C154.963,35.262,155.208,35.962,155.656,36.396z
	 M159.026,30.684c-0.357-0.392-0.899-0.588-1.627-0.588c-0.476,0-0.872,0.081-1.187,0.242s-0.567,0.36-0.756,0.598
	c-0.189,0.238-0.322,0.49-0.399,0.757c-0.077,0.266-0.123,0.504-0.137,0.714h4.851C159.632,31.65,159.384,31.076,159.026,30.684z"/>
<path display="none" fill="none" stroke="#FDB813" stroke-width="3" d="M47.691,32.471c0,8.33-6.758,15.088-15.088,15.088
	c-8.334,0-15.09-6.758-15.09-15.088c0-8.332,6.756-15.084,15.09-15.084C40.934,17.387,47.691,24.139,47.691,32.471z"/>
<circle display="none" fill="none" stroke="#FDB813" stroke-width="5" cx="32.604" cy="32.471" r="4.617"/>
<polyline display="none" fill="#FDB813" points="28.239,17.59 30.512,12.5 35.057,12.5 37.331,17.59 "/>
<polyline display="none" fill="#FDB813" points="37.331,47.41 35.057,52.5 30.512,52.5 28.239,47.41 "/>
<polyline display="none" fill="#FDB813" points="47.516,27.926 52.604,30.198 52.604,34.746 47.516,37.012 "/>
<polyline display="none" fill="#FDB813" points="17.693,37.195 12.604,34.922 12.604,30.375 17.693,28.105 "/>
<polyline display="none" fill="#FDB813" points="39.877,18.466 45.079,16.474 48.297,19.69 46.305,24.896 "/>
<polyline display="none" fill="#FDB813" points="46.614,39.74 48.606,44.941 45.387,48.154 40.182,46.162 "/>
<polyline display="none" fill="#FDB813" points="18.902,25.201 16.91,19.996 20.124,16.779 25.33,18.77 "/>
<polyline display="none" fill="#FDB813" points="25.436,46.528 20.23,48.52 17.015,45.306 19.007,40.1 "/>
<path display="none" fill="#FDB813" d="M76.067,28.007c-0.196-0.315-0.441-0.592-0.735-0.83c-0.294-0.237-0.627-0.423-0.998-0.557
	c-0.371-0.133-0.76-0.199-1.166-0.199c-0.742,0-1.372,0.144-1.89,0.431s-0.938,0.672-1.26,1.155
	c-0.322,0.482-0.557,1.032-0.704,1.648s-0.22,1.253-0.22,1.911c0,0.63,0.073,1.242,0.22,1.837c0.147,0.596,0.381,1.131,0.704,1.606
	c0.322,0.477,0.742,0.858,1.26,1.145c0.518,0.287,1.148,0.431,1.89,0.431c1.008,0,1.795-0.308,2.363-0.924
	c0.567-0.616,0.913-1.428,1.039-2.437h3.192c-0.084,0.938-0.301,1.785-0.651,2.541c-0.35,0.757-0.812,1.4-1.386,1.933
	c-0.574,0.532-1.246,0.938-2.016,1.218s-1.617,0.42-2.541,0.42c-1.148,0-2.181-0.199-3.098-0.599
	c-0.917-0.398-1.69-0.948-2.32-1.648s-1.113-1.522-1.449-2.468c-0.336-0.944-0.504-1.963-0.504-3.055c0-1.12,0.168-2.16,0.504-3.119
	c0.336-0.959,0.819-1.795,1.449-2.509c0.63-0.715,1.403-1.274,2.32-1.681c0.917-0.405,1.95-0.608,3.098-0.608
	c0.826,0,1.606,0.119,2.342,0.356c0.735,0.238,1.393,0.585,1.974,1.04s1.061,1.019,1.438,1.69s0.616,1.441,0.714,2.31h-3.192
	C76.389,28.668,76.263,28.321,76.067,28.007z"/>
<path display="none" fill="#FDB813" d="M81.758,31.22c0.266-0.707,0.644-1.31,1.134-1.807c0.49-0.496,1.078-0.882,1.764-1.154
	c0.686-0.273,1.456-0.41,2.31-0.41s1.628,0.137,2.321,0.41c0.693,0.272,1.284,0.658,1.774,1.154c0.49,0.497,0.868,1.1,1.134,1.807
	s0.399,1.494,0.399,2.362s-0.133,1.652-0.399,2.352c-0.266,0.7-0.644,1.299-1.134,1.796c-0.49,0.497-1.082,0.879-1.774,1.145
	s-1.467,0.399-2.321,0.399s-1.624-0.134-2.31-0.399c-0.687-0.266-1.274-0.647-1.764-1.145c-0.49-0.497-0.868-1.096-1.134-1.796
	c-0.266-0.699-0.399-1.483-0.399-2.352S81.492,31.927,81.758,31.22z M84.467,34.853c0.084,0.413,0.228,0.784,0.431,1.113
	c0.203,0.329,0.473,0.591,0.809,0.787s0.756,0.294,1.26,0.294c0.504,0,0.928-0.098,1.271-0.294c0.343-0.196,0.616-0.458,0.819-0.787
	c0.203-0.329,0.346-0.7,0.43-1.113s0.126-0.837,0.126-1.271s-0.042-0.861-0.126-1.281s-0.228-0.791-0.43-1.112
	c-0.203-0.322-0.476-0.585-0.819-0.788c-0.343-0.203-0.766-0.305-1.271-0.305c-0.504,0-0.924,0.102-1.26,0.305
	s-0.606,0.466-0.809,0.788c-0.203,0.321-0.346,0.692-0.431,1.112c-0.084,0.42-0.126,0.848-0.126,1.281S84.383,34.439,84.467,34.853z
	"/>
<path display="none" fill="#FDB813" d="M97.361,28.143v1.513h0.063c0.378-0.63,0.868-1.089,1.47-1.376
	c0.602-0.286,1.218-0.431,1.848-0.431c0.798,0,1.452,0.109,1.963,0.326c0.511,0.217,0.914,0.518,1.208,0.902
	c0.294,0.386,0.5,0.854,0.62,1.407c0.119,0.554,0.178,1.166,0.178,1.838V39h-2.982v-6.132c0-0.896-0.14-1.564-0.42-2.006
	c-0.28-0.44-0.777-0.661-1.491-0.661c-0.812,0-1.4,0.241-1.764,0.725c-0.364,0.482-0.546,1.277-0.546,2.383V39h-2.982V28.143H97.361
	z"/>
<path display="none" fill="#FDB813" d="M105.845,30.138v-1.995h1.785v-0.84c0-0.966,0.301-1.757,0.903-2.373
	c0.602-0.615,1.512-0.924,2.73-0.924c0.266,0,0.532,0.011,0.798,0.031c0.266,0.021,0.525,0.039,0.777,0.053v2.227
	c-0.35-0.042-0.714-0.063-1.092-0.063c-0.406,0-0.696,0.095-0.872,0.283c-0.175,0.189-0.262,0.508-0.262,0.956v0.65h2.058v1.995
	h-2.058V39h-2.982v-8.862H105.845z"/>
<path display="none" fill="#FDB813" d="M114.055,26.463v-2.457h2.982v2.457H114.055z M117.038,28.143V39h-2.982V28.143H117.038z"/>
<path display="none" fill="#FDB813" d="M129.648,39.798c-0.119,0.56-0.375,1.082-0.767,1.564c-0.392,0.483-0.959,0.893-1.701,1.229
	s-1.736,0.504-2.982,0.504c-0.532,0-1.075-0.066-1.627-0.199c-0.553-0.133-1.057-0.34-1.512-0.619
	c-0.455-0.28-0.833-0.641-1.134-1.082c-0.301-0.44-0.473-0.97-0.515-1.585h2.961c0.14,0.56,0.413,0.948,0.819,1.165
	c0.406,0.217,0.875,0.325,1.407,0.325c0.84,0,1.453-0.252,1.838-0.756c0.385-0.504,0.57-1.141,0.556-1.911v-1.428h-0.042
	c-0.322,0.574-0.78,0.998-1.375,1.271c-0.595,0.273-1.222,0.409-1.879,0.409c-0.812,0-1.512-0.143-2.1-0.43s-1.071-0.68-1.449-1.177
	c-0.378-0.496-0.655-1.077-0.83-1.742c-0.175-0.665-0.263-1.369-0.263-2.111c0-0.699,0.102-1.375,0.305-2.026
	c0.203-0.65,0.5-1.225,0.893-1.722c0.392-0.497,0.878-0.893,1.459-1.187c0.581-0.294,1.25-0.441,2.005-0.441
	c0.714,0,1.34,0.134,1.879,0.399s0.99,0.714,1.354,1.344h0.042v-1.449h2.835v10.164C129.826,38.741,129.767,39.238,129.648,39.798z
	 M125.563,36.186c0.322-0.168,0.588-0.392,0.798-0.672c0.21-0.279,0.368-0.599,0.473-0.955c0.105-0.357,0.157-0.731,0.157-1.124
	c0-0.447-0.042-0.871-0.126-1.271c-0.084-0.398-0.224-0.752-0.42-1.061c-0.196-0.308-0.455-0.553-0.777-0.734
	c-0.322-0.182-0.728-0.273-1.218-0.273c-0.42,0-0.78,0.084-1.082,0.252c-0.301,0.168-0.553,0.396-0.756,0.683
	c-0.203,0.287-0.35,0.616-0.441,0.987c-0.091,0.371-0.137,0.76-0.137,1.165c0,0.393,0.039,0.781,0.116,1.166
	c0.077,0.385,0.21,0.731,0.399,1.039c0.189,0.309,0.438,0.561,0.746,0.756c0.308,0.196,0.693,0.295,1.155,0.295
	C124.871,36.438,125.241,36.354,125.563,36.186z"/>
<path display="none" fill="#FDB813" d="M139.57,39v-1.512h-0.063c-0.378,0.63-0.868,1.085-1.47,1.364
	c-0.602,0.28-1.218,0.421-1.848,0.421c-0.798,0-1.453-0.105-1.963-0.315c-0.511-0.21-0.914-0.507-1.208-0.893
	c-0.294-0.385-0.501-0.854-0.62-1.407c-0.119-0.553-0.179-1.165-0.179-1.837v-6.679h2.982v6.133c0,0.896,0.14,1.564,0.42,2.005
	c0.28,0.441,0.777,0.662,1.491,0.662c0.812,0,1.4-0.242,1.764-0.725c0.364-0.483,0.546-1.277,0.546-2.384v-5.691h2.982V39H139.57z"
	/>
<path display="none" fill="#FDB813" d="M147.508,28.143v2.017h0.042c0.14-0.336,0.329-0.647,0.567-0.935
	c0.238-0.287,0.511-0.532,0.819-0.735c0.308-0.202,0.637-0.36,0.987-0.473c0.35-0.111,0.714-0.168,1.092-0.168
	c0.196,0,0.413,0.035,0.651,0.105v2.771c-0.14-0.027-0.308-0.052-0.504-0.073c-0.196-0.021-0.385-0.031-0.567-0.031
	c-0.546,0-1.008,0.091-1.386,0.272c-0.378,0.183-0.683,0.431-0.914,0.746c-0.231,0.314-0.396,0.683-0.493,1.103
	c-0.098,0.42-0.147,0.875-0.147,1.365V39h-2.982V28.143H147.508z"/>
<path display="none" fill="#FDB813" d="M155.656,36.396c0.448,0.434,1.092,0.65,1.932,0.65c0.602,0,1.12-0.15,1.554-0.451
	c0.434-0.301,0.7-0.62,0.798-0.956h2.625c-0.42,1.303-1.064,2.233-1.932,2.793c-0.869,0.561-1.918,0.841-3.15,0.841
	c-0.854,0-1.624-0.137-2.31-0.41c-0.686-0.272-1.267-0.661-1.743-1.165c-0.476-0.504-0.844-1.106-1.103-1.807
	c-0.259-0.699-0.389-1.47-0.389-2.31c0-0.812,0.133-1.567,0.399-2.268s0.644-1.306,1.134-1.817c0.49-0.511,1.074-0.913,1.753-1.207
	c0.679-0.294,1.431-0.441,2.257-0.441c0.924,0,1.729,0.179,2.415,0.536c0.686,0.356,1.25,0.837,1.69,1.438
	c0.441,0.602,0.759,1.288,0.956,2.058c0.196,0.771,0.266,1.575,0.21,2.415h-7.833C154.963,35.262,155.208,35.962,155.656,36.396z
	 M159.026,30.684c-0.357-0.392-0.899-0.588-1.627-0.588c-0.476,0-0.872,0.081-1.187,0.242s-0.567,0.36-0.756,0.598
	c-0.189,0.238-0.322,0.49-0.399,0.757c-0.077,0.266-0.123,0.504-0.137,0.714h4.851C159.632,31.65,159.384,31.076,159.026,30.684z"/>
</svg>
