<?xml version="1.0" encoding="utf-8"?>
<!-- Generator: Adobe Illustrator 14.0.0, SVG Export Plug-In  -->
<!DOCTYPE svg PUBLIC "-//W3C//DTD SVG 1.1//EN" "http://www.w3.org/Graphics/SVG/1.1/DTD/svg11.dtd" [
	<!ENTITY ns_flows "http://ns.adobe.com/Flows/1.0/">
]>
<svg version="1.1"
	 xmlns="http://www.w3.org/2000/svg" xmlns:xlink="http://www.w3.org/1999/xlink" xmlns:a="http://ns.adobe.com/AdobeSVGViewerExtensions/3.0/"
	 x="0px" y="0px" width="200px" height="64px" viewBox="0.5 0.5 200 64" enable-background="new 0.5 0.5 200 64"
	 xml:space="preserve">
<defs>
</defs>
<rect x="0.5" y="0.5" display="none" stroke="#000000" width="200" height="64"/>
<rect x="3.551" y="3.027" display="none" stroke="#B3B3B3" stroke-width="6" width="58" height="58"/>
<g>
	<path fill="#FFFFFF" d="M17.525,47.062c0,3.072,2.49,5.562,5.562,5.562h18.927c3.072,0,5.562-2.49,5.562-5.562
		s-2.49-5.562-5.562-5.562H23.087C20.015,41.5,17.525,43.99,17.525,47.062C17.525,47.062,17.525,43.99,17.525,47.062z"/>
</g>
<rect x="17.525" y="47.062" fill="#FFFFFF" width="30.052" height="5.938"/>
<path fill="none" stroke="#FFFFFF" stroke-width="3" d="M45.615,25.651c0,6.988-5.667,12.65-12.658,12.65
	c-6.985,0-12.65-5.662-12.65-12.65c0-6.986,5.665-12.651,12.65-12.651C39.948,13,45.615,18.665,45.615,25.651z"/>
<polygon fill="#FFFFFF" points="39.969,22.178 31.345,30.758 29.531,28.928 38.157,20.354 "/>
<rect x="25.515" y="25.822" transform="matrix(0.7578 0.6524 -0.6524 0.7578 24.6948 -12.4048)" fill="#FFFFFF" width="7.087" height="2.486"/>
<path fill="#FFFFFF" d="M73.336,24.302l5.142,13.75h-3.139l-1.04-3.062h-5.142l-1.078,3.062h-3.042l5.199-13.75H73.336z
	 M73.509,32.737l-1.733-5.045h-0.038l-1.792,5.045H73.509z"/>
<path fill="#FFFFFF" d="M86.45,36.78c-0.321,0.54-0.742,0.929-1.261,1.166c-0.52,0.237-1.107,0.356-1.762,0.356
	c-0.744,0-1.399-0.146-1.964-0.434c-0.565-0.289-1.03-0.681-1.396-1.175c-0.366-0.494-0.643-1.062-0.828-1.705
	c-0.187-0.642-0.28-1.309-0.28-2.001c0-0.668,0.093-1.312,0.28-1.936c0.186-0.623,0.462-1.171,0.828-1.646
	c0.365-0.475,0.825-0.857,1.377-1.146c0.552-0.289,1.193-0.433,1.925-0.433c0.591,0,1.153,0.125,1.686,0.375
	c0.532,0.25,0.953,0.62,1.261,1.107h0.04v-5.006h2.734v13.75h-2.599V36.78H86.45z M86.334,31.861
	c-0.076-0.378-0.208-0.712-0.395-1.001c-0.186-0.289-0.427-0.523-0.722-0.703c-0.295-0.18-0.667-0.27-1.117-0.27
	s-0.829,0.09-1.137,0.27c-0.308,0.179-0.556,0.417-0.741,0.712c-0.187,0.295-0.321,0.632-0.404,1.011s-0.125,0.774-0.125,1.185
	c0,0.385,0.044,0.77,0.135,1.154c0.09,0.387,0.234,0.729,0.433,1.031c0.199,0.302,0.45,0.546,0.751,0.731
	c0.301,0.187,0.665,0.279,1.088,0.279c0.45,0,0.825-0.089,1.126-0.271c0.302-0.18,0.542-0.419,0.723-0.721
	c0.179-0.303,0.308-0.646,0.384-1.03c0.077-0.386,0.116-0.783,0.116-1.195C86.45,32.634,86.411,32.239,86.334,31.861z"/>
<path fill="#FFFFFF" d="M93.806,28.096v1.349h0.039c0.359-0.514,0.792-0.912,1.3-1.194c0.507-0.282,1.088-0.424,1.743-0.424
	c0.628,0,1.203,0.123,1.723,0.366c0.521,0.245,0.916,0.674,1.185,1.291c0.294-0.436,0.695-0.822,1.204-1.155
	c0.507-0.334,1.107-0.501,1.801-0.501c0.525,0,1.014,0.064,1.463,0.193c0.45,0.128,0.834,0.333,1.156,0.616
	c0.319,0.283,0.57,0.652,0.75,1.107c0.18,0.457,0.269,1.005,0.269,1.647v6.663h-2.733v-5.643c0-0.333-0.013-0.648-0.038-0.943
	c-0.026-0.295-0.097-0.552-0.212-0.77c-0.116-0.218-0.286-0.392-0.51-0.521c-0.226-0.128-0.53-0.192-0.915-0.192
	c-0.386,0-0.697,0.074-0.934,0.221c-0.239,0.148-0.424,0.341-0.559,0.579c-0.135,0.237-0.225,0.507-0.27,0.809
	c-0.046,0.301-0.068,0.606-0.068,0.914v5.546h-2.734v-5.584c0-0.295-0.006-0.587-0.02-0.876c-0.013-0.289-0.067-0.556-0.163-0.799
	c-0.096-0.244-0.257-0.44-0.482-0.588c-0.225-0.147-0.556-0.221-0.992-0.221c-0.128,0-0.298,0.029-0.51,0.086
	c-0.211,0.058-0.417,0.167-0.616,0.328c-0.199,0.161-0.369,0.392-0.51,0.693c-0.142,0.302-0.212,0.697-0.212,1.185v5.777h-2.735
	v-9.956H93.806z"/>
<path fill="#FFFFFF" d="M108.672,26.555v-2.253h2.734v2.253H108.672z M111.406,28.096v9.956h-2.734v-9.956H111.406z"/>
<path fill="#FFFFFF" d="M116.163,28.096v1.387h0.058c0.347-0.578,0.796-0.998,1.348-1.262c0.553-0.263,1.117-0.395,1.695-0.395
	c0.732,0,1.332,0.1,1.801,0.298c0.469,0.199,0.837,0.475,1.106,0.829s0.459,0.783,0.569,1.29c0.107,0.508,0.162,1.069,0.162,1.686
	v6.124h-2.733v-5.623c0-0.822-0.129-1.435-0.385-1.839c-0.257-0.404-0.713-0.606-1.368-0.606c-0.745,0-1.283,0.221-1.617,0.665
	c-0.333,0.442-0.501,1.171-0.501,2.185v5.219h-2.734v-9.956H116.163z"/>
<path fill="#FFFFFF" d="M125.061,26.555v-2.253h2.735v2.253H125.061z M127.796,28.096v9.956h-2.735v-9.956H127.796z"/>
<path fill="#FFFFFF" d="M132.253,35.577c0.121,0.212,0.278,0.386,0.472,0.521c0.192,0.134,0.413,0.233,0.664,0.298
	c0.25,0.064,0.511,0.096,0.78,0.096c0.193,0,0.395-0.022,0.606-0.067s0.404-0.114,0.577-0.211c0.174-0.097,0.318-0.225,0.434-0.386
	c0.116-0.16,0.173-0.361,0.173-0.606c0-0.411-0.273-0.719-0.818-0.924s-1.305-0.411-2.281-0.616
	c-0.398-0.09-0.787-0.196-1.165-0.318c-0.379-0.122-0.717-0.282-1.013-0.482c-0.294-0.198-0.532-0.449-0.711-0.75
	c-0.181-0.302-0.27-0.67-0.27-1.107c0-0.642,0.125-1.168,0.374-1.579c0.252-0.412,0.582-0.735,0.992-0.973
	c0.41-0.237,0.873-0.404,1.387-0.5c0.515-0.096,1.041-0.145,1.58-0.145s1.061,0.052,1.568,0.154s0.96,0.276,1.357,0.52
	c0.398,0.245,0.729,0.568,0.991,0.973c0.264,0.404,0.421,0.915,0.472,1.531h-2.599c-0.038-0.525-0.237-0.882-0.598-1.068
	c-0.358-0.186-0.781-0.279-1.271-0.279c-0.153,0-0.32,0.009-0.501,0.029c-0.179,0.019-0.343,0.061-0.489,0.124
	c-0.149,0.065-0.274,0.158-0.376,0.28c-0.104,0.122-0.153,0.286-0.153,0.492c0,0.244,0.089,0.442,0.269,0.596
	c0.179,0.154,0.414,0.28,0.702,0.376c0.29,0.095,0.619,0.183,0.992,0.259c0.373,0.077,0.751,0.161,1.137,0.25
	c0.397,0.09,0.786,0.2,1.164,0.328c0.379,0.129,0.716,0.299,1.012,0.51c0.295,0.211,0.532,0.475,0.711,0.79
	c0.181,0.314,0.271,0.702,0.271,1.165c0,0.654-0.132,1.203-0.395,1.646c-0.264,0.443-0.606,0.799-1.03,1.068
	c-0.423,0.271-0.909,0.46-1.454,0.568c-0.546,0.109-1.101,0.164-1.666,0.164c-0.576,0-1.143-0.059-1.694-0.174
	c-0.552-0.116-1.043-0.309-1.473-0.578c-0.432-0.27-0.783-0.626-1.06-1.068c-0.275-0.442-0.426-0.999-0.453-1.666h2.601
	C132.069,35.111,132.13,35.366,132.253,35.577z"/>
<path fill="#FFFFFF" d="M145.761,28.096v1.83h-2.003v4.93c0,0.462,0.079,0.77,0.232,0.924c0.154,0.155,0.462,0.231,0.925,0.231
	c0.153,0,0.301-0.007,0.442-0.021c0.141-0.012,0.274-0.031,0.403-0.056v2.117c-0.23,0.039-0.487,0.065-0.769,0.077
	c-0.282,0.012-0.56,0.02-0.83,0.02c-0.423,0-0.824-0.029-1.203-0.088c-0.378-0.057-0.712-0.169-1.001-0.337
	c-0.288-0.166-0.516-0.403-0.684-0.712c-0.166-0.308-0.251-0.712-0.251-1.213v-5.874h-1.654v-1.83h1.654v-2.984h2.734v2.984H145.761
	z"/>
<path fill="#FFFFFF" d="M149.67,28.096v1.849h0.039c0.128-0.309,0.301-0.594,0.521-0.857c0.217-0.263,0.469-0.488,0.751-0.673
	c0.281-0.187,0.584-0.331,0.905-0.434c0.319-0.103,0.653-0.154,1.001-0.154c0.179,0,0.377,0.032,0.596,0.097v2.542
	c-0.129-0.026-0.282-0.048-0.461-0.067c-0.181-0.019-0.354-0.029-0.521-0.029c-0.502,0-0.925,0.084-1.271,0.251
	c-0.346,0.167-0.627,0.394-0.839,0.683c-0.211,0.289-0.362,0.626-0.453,1.011c-0.088,0.386-0.134,0.802-0.134,1.251v4.487h-2.733
	v-9.956H149.67z"/>
<path fill="#FFFFFF" d="M154.446,31.158c0.038-0.642,0.199-1.175,0.481-1.599c0.281-0.424,0.643-0.764,1.078-1.021
	c0.437-0.256,0.928-0.44,1.473-0.548c0.545-0.109,1.094-0.164,1.647-0.164c0.499,0,1.007,0.035,1.521,0.106
	c0.513,0.071,0.98,0.209,1.405,0.415c0.423,0.206,0.771,0.49,1.039,0.856c0.27,0.366,0.404,0.852,0.404,1.455v5.18
	c0,0.449,0.027,0.88,0.077,1.29c0.052,0.411,0.142,0.72,0.27,0.925h-2.772c-0.052-0.154-0.094-0.311-0.126-0.472
	c-0.032-0.16-0.055-0.325-0.066-0.49c-0.438,0.448-0.949,0.764-1.541,0.942c-0.59,0.181-1.193,0.271-1.811,0.271
	c-0.475,0-0.917-0.059-1.328-0.174c-0.411-0.116-0.77-0.296-1.078-0.539c-0.31-0.244-0.549-0.553-0.723-0.924
	c-0.172-0.372-0.26-0.816-0.26-1.33c0-0.564,0.1-1.029,0.3-1.396c0.198-0.364,0.453-0.656,0.769-0.875s0.674-0.382,1.078-0.492
	c0.405-0.108,0.812-0.195,1.224-0.26c0.411-0.064,0.816-0.115,1.214-0.153c0.397-0.039,0.75-0.097,1.06-0.174
	c0.307-0.077,0.551-0.189,0.731-0.337c0.179-0.147,0.262-0.362,0.249-0.645c0-0.295-0.047-0.529-0.145-0.703
	c-0.096-0.173-0.224-0.308-0.386-0.404c-0.159-0.096-0.346-0.161-0.558-0.193c-0.211-0.032-0.44-0.048-0.683-0.048
	c-0.54,0-0.964,0.115-1.271,0.346c-0.31,0.231-0.49,0.617-0.54,1.156H154.446z M160.762,33.18c-0.114,0.104-0.26,0.183-0.433,0.24
	c-0.174,0.058-0.36,0.107-0.56,0.145c-0.199,0.039-0.407,0.071-0.625,0.097c-0.219,0.026-0.436,0.058-0.655,0.097
	c-0.205,0.038-0.407,0.089-0.606,0.154c-0.199,0.063-0.371,0.15-0.521,0.259c-0.146,0.11-0.267,0.248-0.355,0.414
	c-0.09,0.167-0.134,0.38-0.134,0.636c0,0.245,0.044,0.45,0.134,0.616c0.089,0.167,0.212,0.299,0.366,0.395
	c0.153,0.096,0.334,0.164,0.54,0.204c0.205,0.037,0.417,0.056,0.634,0.056c0.54,0,0.957-0.089,1.253-0.27
	c0.294-0.18,0.513-0.395,0.654-0.645c0.142-0.251,0.228-0.504,0.261-0.761c0.031-0.256,0.047-0.462,0.047-0.615V33.18z"/>
<path fill="#FFFFFF" d="M171.083,28.096v1.83h-2.003v4.93c0,0.462,0.078,0.77,0.231,0.924c0.153,0.155,0.463,0.231,0.925,0.231
	c0.153,0,0.301-0.007,0.442-0.021c0.141-0.012,0.275-0.031,0.404-0.056v2.117c-0.23,0.039-0.487,0.065-0.77,0.077
	c-0.281,0.012-0.56,0.02-0.829,0.02c-0.423,0-0.824-0.029-1.203-0.088c-0.378-0.057-0.712-0.169-1.002-0.337
	c-0.288-0.166-0.516-0.403-0.684-0.712c-0.165-0.308-0.25-0.712-0.25-1.213v-5.874h-1.655v-1.83h1.655v-2.984h2.734v2.984H171.083z"
	/>
<path fill="#FFFFFF" d="M172.471,26.555v-2.253h2.733v2.253H172.471z M175.204,28.096v9.956h-2.733v-9.956H175.204z"/>
<path fill="#FFFFFF" d="M177.417,30.917c0.245-0.649,0.591-1.201,1.04-1.656c0.45-0.456,0.99-0.809,1.618-1.06
	c0.628-0.25,1.336-0.375,2.118-0.375s1.492,0.125,2.129,0.375c0.635,0.25,1.177,0.604,1.627,1.06
	c0.449,0.456,0.795,1.007,1.04,1.656c0.243,0.648,0.366,1.37,0.366,2.166c0,0.797-0.123,1.515-0.366,2.157
	c-0.245,0.643-0.591,1.191-1.04,1.646c-0.45,0.457-0.992,0.807-1.627,1.052c-0.637,0.243-1.347,0.365-2.129,0.365
	s-1.49-0.122-2.118-0.365c-0.628-0.245-1.168-0.595-1.618-1.052c-0.449-0.454-0.795-1.003-1.04-1.646
	c-0.242-0.643-0.364-1.36-0.364-2.157C177.053,32.288,177.175,31.565,177.417,30.917z M179.902,34.249
	c0.077,0.379,0.209,0.718,0.395,1.021c0.187,0.302,0.434,0.541,0.742,0.721c0.307,0.182,0.692,0.271,1.154,0.271
	c0.463,0,0.85-0.089,1.165-0.271c0.315-0.18,0.565-0.419,0.75-0.721c0.187-0.303,0.318-0.642,0.396-1.021
	c0.078-0.379,0.116-0.768,0.116-1.166c0-0.397-0.038-0.789-0.116-1.174c-0.077-0.385-0.209-0.725-0.396-1.021
	c-0.185-0.295-0.435-0.536-0.75-0.723c-0.315-0.185-0.702-0.278-1.165-0.278c-0.462,0-0.848,0.093-1.154,0.278
	c-0.309,0.187-0.556,0.428-0.742,0.723c-0.186,0.295-0.317,0.635-0.395,1.021s-0.115,0.777-0.115,1.174
	C179.787,33.481,179.825,33.87,179.902,34.249z"/>
<path fill="#FFFFFF" d="M191.726,28.096v1.387h0.058c0.346-0.578,0.796-0.998,1.348-1.262c0.554-0.263,1.118-0.395,1.695-0.395
	c0.732,0,1.333,0.1,1.802,0.298c0.469,0.199,0.836,0.475,1.105,0.829s0.46,0.783,0.569,1.29c0.108,0.508,0.163,1.069,0.163,1.686
	v6.124h-2.735v-5.623c0-0.822-0.128-1.435-0.384-1.839c-0.257-0.404-0.713-0.606-1.368-0.606c-0.744,0-1.282,0.221-1.617,0.665
	c-0.334,0.442-0.501,1.171-0.501,2.185v5.219h-2.733v-9.956H191.726z"/>
<g display="none">
	<path display="inline" fill="#FDB813" d="M17.525,47.062c0,3.072,2.49,5.562,5.562,5.562h18.927c3.072,0,5.562-2.49,5.562-5.562
		s-2.49-5.562-5.562-5.562H23.087C20.015,41.5,17.525,43.99,17.525,47.062C17.525,47.062,17.525,43.99,17.525,47.062z"/>
</g>
<rect x="17.525" y="47.062" display="none" fill="#FDB813" width="30.052" height="5.938"/>
<path display="none" fill="none" stroke="#FDB813" stroke-width="3" d="M45.615,25.651c0,6.988-5.667,12.65-12.658,12.65
	c-6.985,0-12.65-5.662-12.65-12.65c0-6.986,5.665-12.651,12.65-12.651C39.948,13,45.615,18.665,45.615,25.651z"/>
<polygon display="none" fill="#FDB813" points="39.969,22.178 31.345,30.758 29.531,28.928 38.157,20.354 "/>
<rect x="25.515" y="25.822" transform="matrix(0.7578 0.6524 -0.6524 0.7578 24.6948 -12.4048)" display="none" fill="#FDB813" width="7.087" height="2.486"/>
<path display="none" fill="#FDB813" d="M73.336,24.302l5.142,13.75h-3.139l-1.04-3.062h-5.142l-1.078,3.062h-3.042l5.199-13.75
	H73.336z M73.509,32.737l-1.733-5.045h-0.038l-1.792,5.045H73.509z"/>
<path display="none" fill="#FDB813" d="M86.45,36.78c-0.321,0.54-0.742,0.929-1.261,1.166c-0.52,0.237-1.107,0.356-1.762,0.356
	c-0.744,0-1.399-0.146-1.964-0.434c-0.565-0.289-1.03-0.681-1.396-1.175c-0.366-0.494-0.643-1.062-0.828-1.705
	c-0.187-0.642-0.28-1.309-0.28-2.001c0-0.668,0.093-1.312,0.28-1.936c0.186-0.623,0.462-1.171,0.828-1.646
	c0.365-0.475,0.825-0.857,1.377-1.146c0.552-0.289,1.193-0.433,1.925-0.433c0.591,0,1.153,0.125,1.686,0.375
	c0.532,0.25,0.953,0.62,1.261,1.107h0.04v-5.006h2.734v13.75h-2.599V36.78H86.45z M86.334,31.861
	c-0.076-0.378-0.208-0.712-0.395-1.001c-0.186-0.289-0.427-0.523-0.722-0.703c-0.295-0.18-0.667-0.27-1.117-0.27
	s-0.829,0.09-1.137,0.27c-0.308,0.179-0.556,0.417-0.741,0.712c-0.187,0.295-0.321,0.632-0.404,1.011s-0.125,0.774-0.125,1.185
	c0,0.385,0.044,0.77,0.135,1.154c0.09,0.387,0.234,0.729,0.433,1.031c0.199,0.302,0.45,0.546,0.751,0.731
	c0.301,0.187,0.665,0.279,1.088,0.279c0.45,0,0.825-0.089,1.126-0.271c0.302-0.18,0.542-0.419,0.723-0.721
	c0.179-0.303,0.308-0.646,0.384-1.03c0.077-0.386,0.116-0.783,0.116-1.195C86.45,32.634,86.411,32.239,86.334,31.861z"/>
<path display="none" fill="#FDB813" d="M93.806,28.096v1.349h0.039c0.359-0.514,0.792-0.912,1.3-1.194
	c0.507-0.282,1.088-0.424,1.743-0.424c0.628,0,1.203,0.123,1.723,0.366c0.521,0.245,0.916,0.674,1.185,1.291
	c0.294-0.436,0.695-0.822,1.204-1.155c0.507-0.334,1.107-0.501,1.801-0.501c0.525,0,1.014,0.064,1.463,0.193
	c0.45,0.128,0.834,0.333,1.156,0.616c0.319,0.283,0.57,0.652,0.75,1.107c0.18,0.457,0.269,1.005,0.269,1.647v6.663h-2.733v-5.643
	c0-0.333-0.013-0.648-0.038-0.943c-0.026-0.295-0.097-0.552-0.212-0.77c-0.116-0.218-0.286-0.392-0.51-0.521
	c-0.226-0.128-0.53-0.192-0.915-0.192c-0.386,0-0.697,0.074-0.934,0.221c-0.239,0.148-0.424,0.341-0.559,0.579
	c-0.135,0.237-0.225,0.507-0.27,0.809c-0.046,0.301-0.068,0.606-0.068,0.914v5.546h-2.734v-5.584c0-0.295-0.006-0.587-0.02-0.876
	c-0.013-0.289-0.067-0.556-0.163-0.799c-0.096-0.244-0.257-0.44-0.482-0.588c-0.225-0.147-0.556-0.221-0.992-0.221
	c-0.128,0-0.298,0.029-0.51,0.086c-0.211,0.058-0.417,0.167-0.616,0.328c-0.199,0.161-0.369,0.392-0.51,0.693
	c-0.142,0.302-0.212,0.697-0.212,1.185v5.777h-2.735v-9.956H93.806z"/>
<path display="none" fill="#FDB813" d="M108.672,26.555v-2.253h2.734v2.253H108.672z M111.406,28.096v9.956h-2.734v-9.956H111.406z"
	/>
<path display="none" fill="#FDB813" d="M116.163,28.096v1.387h0.058c0.347-0.578,0.796-0.998,1.348-1.262
	c0.553-0.263,1.117-0.395,1.695-0.395c0.732,0,1.332,0.1,1.801,0.298c0.469,0.199,0.837,0.475,1.106,0.829s0.459,0.783,0.569,1.29
	c0.107,0.508,0.162,1.069,0.162,1.686v6.124h-2.733v-5.623c0-0.822-0.129-1.435-0.385-1.839c-0.257-0.404-0.713-0.606-1.368-0.606
	c-0.745,0-1.283,0.221-1.617,0.665c-0.333,0.442-0.501,1.171-0.501,2.185v5.219h-2.734v-9.956H116.163z"/>
<path display="none" fill="#FDB813" d="M125.061,26.555v-2.253h2.735v2.253H125.061z M127.796,28.096v9.956h-2.735v-9.956H127.796z"
	/>
<path display="none" fill="#FDB813" d="M132.253,35.577c0.121,0.212,0.278,0.386,0.472,0.521c0.192,0.134,0.413,0.233,0.664,0.298
	c0.25,0.064,0.511,0.096,0.78,0.096c0.193,0,0.395-0.022,0.606-0.067s0.404-0.114,0.577-0.211c0.174-0.097,0.318-0.225,0.434-0.386
	c0.116-0.16,0.173-0.361,0.173-0.606c0-0.411-0.273-0.719-0.818-0.924s-1.305-0.411-2.281-0.616
	c-0.398-0.09-0.787-0.196-1.165-0.318c-0.379-0.122-0.717-0.282-1.013-0.482c-0.294-0.198-0.532-0.449-0.711-0.75
	c-0.181-0.302-0.27-0.67-0.27-1.107c0-0.642,0.125-1.168,0.374-1.579c0.252-0.412,0.582-0.735,0.992-0.973
	c0.41-0.237,0.873-0.404,1.387-0.5c0.515-0.096,1.041-0.145,1.58-0.145s1.061,0.052,1.568,0.154s0.96,0.276,1.357,0.52
	c0.398,0.245,0.729,0.568,0.991,0.973c0.264,0.404,0.421,0.915,0.472,1.531h-2.599c-0.038-0.525-0.237-0.882-0.598-1.068
	c-0.358-0.186-0.781-0.279-1.271-0.279c-0.153,0-0.32,0.009-0.501,0.029c-0.179,0.019-0.343,0.061-0.489,0.124
	c-0.149,0.065-0.274,0.158-0.376,0.28c-0.104,0.122-0.153,0.286-0.153,0.492c0,0.244,0.089,0.442,0.269,0.596
	c0.179,0.154,0.414,0.28,0.702,0.376c0.29,0.095,0.619,0.183,0.992,0.259c0.373,0.077,0.751,0.161,1.137,0.25
	c0.397,0.09,0.786,0.2,1.164,0.328c0.379,0.129,0.716,0.299,1.012,0.51c0.295,0.211,0.532,0.475,0.711,0.79
	c0.181,0.314,0.271,0.702,0.271,1.165c0,0.654-0.132,1.203-0.395,1.646c-0.264,0.443-0.606,0.799-1.03,1.068
	c-0.423,0.271-0.909,0.46-1.454,0.568c-0.546,0.109-1.101,0.164-1.666,0.164c-0.576,0-1.143-0.059-1.694-0.174
	c-0.552-0.116-1.043-0.309-1.473-0.578c-0.432-0.27-0.783-0.626-1.06-1.068c-0.275-0.442-0.426-0.999-0.453-1.666h2.601
	C132.069,35.111,132.13,35.366,132.253,35.577z"/>
<path display="none" fill="#FDB813" d="M145.761,28.096v1.83h-2.003v4.93c0,0.462,0.079,0.77,0.232,0.924
	c0.154,0.155,0.462,0.231,0.925,0.231c0.153,0,0.301-0.007,0.442-0.021c0.141-0.012,0.274-0.031,0.403-0.056v2.117
	c-0.23,0.039-0.487,0.065-0.769,0.077c-0.282,0.012-0.56,0.02-0.83,0.02c-0.423,0-0.824-0.029-1.203-0.088
	c-0.378-0.057-0.712-0.169-1.001-0.337c-0.288-0.166-0.516-0.403-0.684-0.712c-0.166-0.308-0.251-0.712-0.251-1.213v-5.874h-1.654
	v-1.83h1.654v-2.984h2.734v2.984H145.761z"/>
<path display="none" fill="#FDB813" d="M149.67,28.096v1.849h0.039c0.128-0.309,0.301-0.594,0.521-0.857
	c0.217-0.263,0.469-0.488,0.751-0.673c0.281-0.187,0.584-0.331,0.905-0.434c0.319-0.103,0.653-0.154,1.001-0.154
	c0.179,0,0.377,0.032,0.596,0.097v2.542c-0.129-0.026-0.282-0.048-0.461-0.067c-0.181-0.019-0.354-0.029-0.521-0.029
	c-0.502,0-0.925,0.084-1.271,0.251c-0.346,0.167-0.627,0.394-0.839,0.683c-0.211,0.289-0.362,0.626-0.453,1.011
	c-0.088,0.386-0.134,0.802-0.134,1.251v4.487h-2.733v-9.956H149.67z"/>
<path display="none" fill="#FDB813" d="M154.446,31.158c0.038-0.642,0.199-1.175,0.481-1.599c0.281-0.424,0.643-0.764,1.078-1.021
	c0.437-0.256,0.928-0.44,1.473-0.548c0.545-0.109,1.094-0.164,1.647-0.164c0.499,0,1.007,0.035,1.521,0.106
	c0.513,0.071,0.98,0.209,1.405,0.415c0.423,0.206,0.771,0.49,1.039,0.856c0.27,0.366,0.404,0.852,0.404,1.455v5.18
	c0,0.449,0.027,0.88,0.077,1.29c0.052,0.411,0.142,0.72,0.27,0.925h-2.772c-0.052-0.154-0.094-0.311-0.126-0.472
	c-0.032-0.16-0.055-0.325-0.066-0.49c-0.438,0.448-0.949,0.764-1.541,0.942c-0.59,0.181-1.193,0.271-1.811,0.271
	c-0.475,0-0.917-0.059-1.328-0.174c-0.411-0.116-0.77-0.296-1.078-0.539c-0.31-0.244-0.549-0.553-0.723-0.924
	c-0.172-0.372-0.26-0.816-0.26-1.33c0-0.564,0.1-1.029,0.3-1.396c0.198-0.364,0.453-0.656,0.769-0.875s0.674-0.382,1.078-0.492
	c0.405-0.108,0.812-0.195,1.224-0.26c0.411-0.064,0.816-0.115,1.214-0.153c0.397-0.039,0.75-0.097,1.06-0.174
	c0.307-0.077,0.551-0.189,0.731-0.337c0.179-0.147,0.262-0.362,0.249-0.645c0-0.295-0.047-0.529-0.145-0.703
	c-0.096-0.173-0.224-0.308-0.386-0.404c-0.159-0.096-0.346-0.161-0.558-0.193c-0.211-0.032-0.44-0.048-0.683-0.048
	c-0.54,0-0.964,0.115-1.271,0.346c-0.31,0.231-0.49,0.617-0.54,1.156H154.446z M160.762,33.18c-0.114,0.104-0.26,0.183-0.433,0.24
	c-0.174,0.058-0.36,0.107-0.56,0.145c-0.199,0.039-0.407,0.071-0.625,0.097c-0.219,0.026-0.436,0.058-0.655,0.097
	c-0.205,0.038-0.407,0.089-0.606,0.154c-0.199,0.063-0.371,0.15-0.521,0.259c-0.146,0.11-0.267,0.248-0.355,0.414
	c-0.09,0.167-0.134,0.38-0.134,0.636c0,0.245,0.044,0.45,0.134,0.616c0.089,0.167,0.212,0.299,0.366,0.395
	c0.153,0.096,0.334,0.164,0.54,0.204c0.205,0.037,0.417,0.056,0.634,0.056c0.54,0,0.957-0.089,1.253-0.27
	c0.294-0.18,0.513-0.395,0.654-0.645c0.142-0.251,0.228-0.504,0.261-0.761c0.031-0.256,0.047-0.462,0.047-0.615V33.18z"/>
<path display="none" fill="#FDB813" d="M171.083,28.096v1.83h-2.003v4.93c0,0.462,0.078,0.77,0.231,0.924
	c0.153,0.155,0.463,0.231,0.925,0.231c0.153,0,0.301-0.007,0.442-0.021c0.141-0.012,0.275-0.031,0.404-0.056v2.117
	c-0.23,0.039-0.487,0.065-0.77,0.077c-0.281,0.012-0.56,0.02-0.829,0.02c-0.423,0-0.824-0.029-1.203-0.088
	c-0.378-0.057-0.712-0.169-1.002-0.337c-0.288-0.166-0.516-0.403-0.684-0.712c-0.165-0.308-0.25-0.712-0.25-1.213v-5.874h-1.655
	v-1.83h1.655v-2.984h2.734v2.984H171.083z"/>
<path display="none" fill="#FDB813" d="M172.471,26.555v-2.253h2.733v2.253H172.471z M175.204,28.096v9.956h-2.733v-9.956H175.204z"
	/>
<path display="none" fill="#FDB813" d="M177.417,30.917c0.245-0.649,0.591-1.201,1.04-1.656c0.45-0.456,0.99-0.809,1.618-1.06
	c0.628-0.25,1.336-0.375,2.118-0.375s1.492,0.125,2.129,0.375c0.635,0.25,1.177,0.604,1.627,1.06
	c0.449,0.456,0.795,1.007,1.04,1.656c0.243,0.648,0.366,1.37,0.366,2.166c0,0.797-0.123,1.515-0.366,2.157
	c-0.245,0.643-0.591,1.191-1.04,1.646c-0.45,0.457-0.992,0.807-1.627,1.052c-0.637,0.243-1.347,0.365-2.129,0.365
	s-1.49-0.122-2.118-0.365c-0.628-0.245-1.168-0.595-1.618-1.052c-0.449-0.454-0.795-1.003-1.04-1.646
	c-0.242-0.643-0.364-1.36-0.364-2.157C177.053,32.288,177.175,31.565,177.417,30.917z M179.902,34.249
	c0.077,0.379,0.209,0.718,0.395,1.021c0.187,0.302,0.434,0.541,0.742,0.721c0.307,0.182,0.692,0.271,1.154,0.271
	c0.463,0,0.85-0.089,1.165-0.271c0.315-0.18,0.565-0.419,0.75-0.721c0.187-0.303,0.318-0.642,0.396-1.021
	c0.078-0.379,0.116-0.768,0.116-1.166c0-0.397-0.038-0.789-0.116-1.174c-0.077-0.385-0.209-0.725-0.396-1.021
	c-0.185-0.295-0.435-0.536-0.75-0.723c-0.315-0.185-0.702-0.278-1.165-0.278c-0.462,0-0.848,0.093-1.154,0.278
	c-0.309,0.187-0.556,0.428-0.742,0.723c-0.186,0.295-0.317,0.635-0.395,1.021s-0.115,0.777-0.115,1.174
	C179.787,33.481,179.825,33.87,179.902,34.249z"/>
<path display="none" fill="#FDB813" d="M191.726,28.096v1.387h0.058c0.346-0.578,0.796-0.998,1.348-1.262
	c0.554-0.263,1.118-0.395,1.695-0.395c0.732,0,1.333,0.1,1.802,0.298c0.469,0.199,0.836,0.475,1.105,0.829s0.46,0.783,0.569,1.29
	c0.108,0.508,0.163,1.069,0.163,1.686v6.124h-2.735v-5.623c0-0.822-0.128-1.435-0.384-1.839c-0.257-0.404-0.713-0.606-1.368-0.606
	c-0.744,0-1.282,0.221-1.617,0.665c-0.334,0.442-0.501,1.171-0.501,2.185v5.219h-2.733v-9.956H191.726z"/>
</svg>
