<?xml version="1.0" encoding="utf-8"?>
<!-- Generator: Adobe Illustrator 14.0.0, SVG Export Plug-In  -->
<!DOCTYPE svg PUBLIC "-//W3C//DTD SVG 1.1//EN" "http://www.w3.org/Graphics/SVG/1.1/DTD/svg11.dtd" [
	<!ENTITY ns_flows "http://ns.adobe.com/Flows/1.0/">
]>
<svg version="1.1"
	 xmlns="http://www.w3.org/2000/svg" xmlns:xlink="http://www.w3.org/1999/xlink" xmlns:a="http://ns.adobe.com/AdobeSVGViewerExtensions/3.0/"
	 x="0px" y="0px" width="200px" height="64px" viewBox="0.5 0.5 200 64" enable-background="new 0.5 0.5 200 64"
	 xml:space="preserve">
<defs>
</defs>
<rect x="0.5" y="0.5" display="none" stroke="#000000" width="200" height="64"/>
<rect x="3.5" y="3.5" display="none" stroke="#B3B3B3" stroke-width="6" width="58" height="58"/>
<rect x="12.638" y="50.01" fill="#FFFFFF" width="39.862" height="2.49"/>
<rect x="12.5" y="12.5" fill="#FFFFFF" width="2.491" height="39.863"/>
<rect x="17.205" y="29.245" fill="#FFFFFF" width="9.134" height="18.274"/>
<rect x="30.078" y="18.866" fill="none" stroke="#FFFFFF" stroke-width="3" width="8.305" height="27.403"/>
<rect x="41.705" y="25.098" fill="#FFFFFF" width="9.965" height="1.657"/>
<rect x="41.705" y="29.245" fill="#FFFFFF" width="9.965" height="1.665"/>
<rect x="41.705" y="33.399" fill="#FFFFFF" width="9.965" height="1.659"/>
<rect x="41.705" y="37.554" fill="#FFFFFF" width="9.965" height="1.658"/>
<rect x="41.705" y="41.701" fill="#FFFFFF" width="9.965" height="1.665"/>
<rect x="41.705" y="45.855" fill="#FFFFFF" width="9.965" height="1.664"/>
<path fill="#FFFFFF" d="M74.425,24.103l5.607,14.994h-3.423l-1.134-3.339h-5.607l-1.176,3.339h-3.318l5.67-14.994H74.425z
	 M74.614,33.301l-1.89-5.502h-0.042l-1.953,5.502H74.614z"/>
<path fill="#FFFFFF" d="M83.854,28.239v1.513h0.063c0.378-0.63,0.868-1.089,1.47-1.376c0.602-0.286,1.218-0.431,1.848-0.431
	c0.798,0,1.452,0.109,1.963,0.326c0.511,0.217,0.914,0.518,1.208,0.902c0.294,0.386,0.5,0.854,0.62,1.407
	c0.119,0.554,0.178,1.166,0.178,1.838v6.678h-2.982v-6.132c0-0.896-0.14-1.564-0.42-2.006c-0.28-0.44-0.777-0.661-1.491-0.661
	c-0.812,0-1.4,0.241-1.764,0.725c-0.364,0.482-0.546,1.277-0.546,2.383v5.691h-2.982V28.239H83.854z"/>
<path fill="#FFFFFF" d="M93.346,31.579c0.042-0.7,0.217-1.281,0.525-1.743c0.308-0.462,0.7-0.833,1.176-1.113
	c0.476-0.28,1.011-0.479,1.606-0.599c0.595-0.118,1.193-0.179,1.795-0.179c0.546,0,1.099,0.039,1.659,0.116
	c0.56,0.077,1.071,0.228,1.533,0.451c0.462,0.224,0.84,0.535,1.134,0.935c0.294,0.398,0.441,0.928,0.441,1.585v5.649
	c0,0.49,0.028,0.959,0.084,1.407c0.056,0.448,0.154,0.784,0.294,1.008h-3.024c-0.056-0.168-0.102-0.339-0.136-0.515
	c-0.035-0.175-0.06-0.354-0.074-0.535c-0.476,0.49-1.036,0.833-1.68,1.028c-0.644,0.196-1.302,0.295-1.974,0.295
	c-0.518,0-1.001-0.063-1.449-0.189c-0.448-0.126-0.84-0.322-1.176-0.588s-0.599-0.602-0.788-1.008s-0.284-0.89-0.284-1.449
	c0-0.616,0.108-1.124,0.326-1.522c0.217-0.399,0.497-0.718,0.84-0.956c0.343-0.237,0.735-0.416,1.176-0.535
	c0.441-0.119,0.885-0.213,1.333-0.283c0.448-0.07,0.889-0.126,1.323-0.168s0.819-0.105,1.155-0.189
	c0.336-0.084,0.602-0.206,0.798-0.367c0.196-0.161,0.287-0.396,0.273-0.703c0-0.322-0.053-0.578-0.158-0.767
	c-0.105-0.189-0.245-0.336-0.42-0.441c-0.175-0.104-0.378-0.175-0.609-0.21s-0.479-0.053-0.746-0.053
	c-0.588,0-1.05,0.126-1.386,0.378s-0.532,0.672-0.588,1.261H93.346z M100.234,33.783c-0.126,0.112-0.284,0.2-0.473,0.263
	c-0.189,0.063-0.392,0.116-0.609,0.158c-0.217,0.042-0.444,0.077-0.683,0.104c-0.238,0.028-0.476,0.063-0.714,0.105
	c-0.224,0.042-0.444,0.098-0.662,0.168s-0.406,0.164-0.567,0.283c-0.161,0.119-0.291,0.27-0.389,0.451
	c-0.098,0.183-0.147,0.413-0.147,0.693c0,0.266,0.049,0.49,0.147,0.672c0.098,0.183,0.231,0.325,0.399,0.431
	c0.168,0.104,0.364,0.179,0.588,0.221c0.224,0.042,0.455,0.062,0.693,0.062c0.588,0,1.043-0.098,1.365-0.294
	c0.322-0.195,0.56-0.431,0.714-0.703c0.154-0.273,0.249-0.55,0.283-0.83c0.035-0.279,0.053-0.504,0.053-0.672V33.783z"/>
<path fill="#FFFFFF" d="M108.592,24.103v14.994h-2.982V24.103H108.592z"/>
<path fill="#FFFFFF" d="M114.955,42.331c-0.574,0.378-1.372,0.566-2.394,0.566c-0.308,0-0.613-0.011-0.914-0.031
	c-0.301-0.021-0.605-0.046-0.914-0.073v-2.457c0.28,0.027,0.567,0.056,0.861,0.084c0.294,0.027,0.588,0.034,0.882,0.021
	c0.392-0.042,0.683-0.196,0.872-0.462s0.283-0.56,0.283-0.882c0-0.238-0.042-0.462-0.126-0.672l-3.801-10.186h3.171l2.457,7.435
	h0.042l2.373-7.435h3.087l-4.536,12.201C115.977,41.322,115.528,41.953,114.955,42.331z"/>
<path fill="#FFFFFF" d="M127.807,28.239v1.995h-2.184v5.376c0,0.504,0.084,0.84,0.252,1.009c0.168,0.168,0.504,0.252,1.008,0.252
	c0.168,0,0.329-0.007,0.483-0.021c0.154-0.014,0.301-0.035,0.441-0.062v2.31c-0.252,0.042-0.532,0.07-0.84,0.084
	s-0.609,0.021-0.903,0.021c-0.462,0-0.9-0.032-1.312-0.095c-0.413-0.063-0.777-0.186-1.092-0.368
	c-0.315-0.182-0.564-0.44-0.746-0.776c-0.182-0.336-0.273-0.777-0.273-1.323v-6.405h-1.806v-1.995h1.806v-3.255h2.982v3.255H127.807
	z"/>
<path fill="#FFFFFF" d="M129.318,26.56v-2.457h2.982v2.457H129.318z M132.3,28.239v10.857h-2.982V28.239H132.3z"/>
<path fill="#FFFFFF" d="M139.839,30.192c-0.476,0-0.875,0.109-1.197,0.326c-0.322,0.217-0.585,0.497-0.788,0.84
	c-0.203,0.343-0.346,0.721-0.431,1.134c-0.084,0.413-0.126,0.822-0.126,1.229c0,0.392,0.042,0.791,0.126,1.197
	c0.084,0.406,0.221,0.773,0.41,1.103s0.444,0.599,0.767,0.809c0.322,0.21,0.714,0.314,1.176,0.314c0.714,0,1.264-0.199,1.649-0.599
	c0.385-0.398,0.626-0.935,0.724-1.606h2.877c-0.196,1.442-0.756,2.541-1.68,3.297c-0.924,0.756-2.107,1.135-3.549,1.135
	c-0.812,0-1.558-0.137-2.236-0.41c-0.679-0.272-1.257-0.654-1.732-1.145c-0.476-0.489-0.847-1.074-1.113-1.753
	c-0.266-0.68-0.399-1.425-0.399-2.237c0-0.84,0.123-1.62,0.368-2.341c0.245-0.721,0.605-1.344,1.082-1.869
	c0.476-0.525,1.057-0.935,1.743-1.229c0.686-0.294,1.47-0.441,2.352-0.441c0.644,0,1.264,0.084,1.859,0.252
	c0.595,0.168,1.126,0.424,1.596,0.767c0.469,0.344,0.851,0.771,1.145,1.281c0.294,0.512,0.462,1.116,0.504,1.816h-2.919
	C141.848,30.815,141.113,30.192,139.839,30.192z"/>
<path fill="#FFFFFF" d="M149.215,36.398c0.133,0.23,0.305,0.42,0.515,0.566c0.21,0.147,0.451,0.256,0.724,0.326
	s0.557,0.104,0.851,0.104c0.21,0,0.431-0.024,0.662-0.073s0.441-0.126,0.63-0.231c0.189-0.104,0.347-0.244,0.473-0.42
	c0.126-0.175,0.189-0.396,0.189-0.661c0-0.448-0.298-0.784-0.893-1.008c-0.595-0.224-1.425-0.448-2.488-0.672
	c-0.434-0.099-0.858-0.214-1.271-0.347c-0.413-0.133-0.781-0.308-1.103-0.525c-0.322-0.217-0.581-0.489-0.777-0.818
	c-0.196-0.329-0.294-0.731-0.294-1.208c0-0.7,0.137-1.273,0.41-1.722s0.633-0.802,1.082-1.061c0.448-0.259,0.952-0.441,1.512-0.546
	c0.56-0.105,1.134-0.158,1.722-0.158s1.158,0.057,1.711,0.168c0.553,0.112,1.046,0.302,1.48,0.567
	c0.434,0.267,0.794,0.619,1.082,1.061s0.458,0.997,0.515,1.67h-2.835c-0.042-0.574-0.259-0.963-0.651-1.166
	c-0.392-0.203-0.854-0.305-1.386-0.305c-0.168,0-0.35,0.011-0.546,0.032c-0.196,0.021-0.375,0.066-0.536,0.136
	c-0.161,0.07-0.297,0.172-0.409,0.305c-0.112,0.134-0.168,0.312-0.168,0.535c0,0.267,0.098,0.483,0.294,0.651
	c0.196,0.168,0.451,0.305,0.766,0.409c0.315,0.105,0.675,0.2,1.082,0.284s0.819,0.175,1.239,0.272
	c0.434,0.099,0.857,0.218,1.271,0.357c0.413,0.14,0.78,0.325,1.103,0.557c0.322,0.23,0.581,0.518,0.777,0.86
	c0.196,0.344,0.294,0.767,0.294,1.271c0,0.714-0.144,1.312-0.431,1.796s-0.661,0.871-1.124,1.165
	c-0.462,0.294-0.99,0.501-1.585,0.62c-0.595,0.118-1.2,0.179-1.816,0.179c-0.63,0-1.246-0.063-1.848-0.189s-1.137-0.336-1.606-0.63
	s-0.854-0.683-1.155-1.166c-0.301-0.482-0.466-1.088-0.494-1.816h2.835C149.016,35.891,149.082,36.167,149.215,36.398z"/>
<rect x="12.638" y="50.01" display="none" fill="#FDB813" width="39.862" height="2.49"/>
<rect x="12.5" y="12.5" display="none" fill="#FDB813" width="2.491" height="39.863"/>
<rect x="17.205" y="29.245" display="none" fill="#FDB813" width="9.134" height="18.274"/>
<rect x="30.078" y="18.866" display="none" fill="none" stroke="#FDB813" stroke-width="3" width="8.305" height="27.403"/>
<rect x="41.705" y="25.098" display="none" fill="#FDB813" width="9.965" height="1.657"/>
<rect x="41.705" y="29.245" display="none" fill="#FDB813" width="9.965" height="1.665"/>
<rect x="41.705" y="33.399" display="none" fill="#FDB813" width="9.965" height="1.659"/>
<rect x="41.705" y="37.554" display="none" fill="#FDB813" width="9.965" height="1.658"/>
<rect x="41.705" y="41.701" display="none" fill="#FDB813" width="9.965" height="1.665"/>
<rect x="41.705" y="45.855" display="none" fill="#FDB813" width="9.965" height="1.664"/>
<path display="none" fill="#FDB813" d="M74.425,24.103l5.607,14.994h-3.423l-1.134-3.339h-5.607l-1.176,3.339h-3.318l5.67-14.994
	H74.425z M74.614,33.301l-1.89-5.502h-0.042l-1.953,5.502H74.614z"/>
<path display="none" fill="#FDB813" d="M83.854,28.239v1.513h0.063c0.378-0.63,0.868-1.089,1.47-1.376
	c0.602-0.286,1.218-0.431,1.848-0.431c0.798,0,1.452,0.109,1.963,0.326c0.511,0.217,0.914,0.518,1.208,0.902
	c0.294,0.386,0.5,0.854,0.62,1.407c0.119,0.554,0.178,1.166,0.178,1.838v6.678h-2.982v-6.132c0-0.896-0.14-1.564-0.42-2.006
	c-0.28-0.44-0.777-0.661-1.491-0.661c-0.812,0-1.4,0.241-1.764,0.725c-0.364,0.482-0.546,1.277-0.546,2.383v5.691h-2.982V28.239
	H83.854z"/>
<path display="none" fill="#FDB813" d="M93.346,31.579c0.042-0.7,0.217-1.281,0.525-1.743c0.308-0.462,0.7-0.833,1.176-1.113
	c0.476-0.28,1.011-0.479,1.606-0.599c0.595-0.118,1.193-0.179,1.795-0.179c0.546,0,1.099,0.039,1.659,0.116
	c0.56,0.077,1.071,0.228,1.533,0.451c0.462,0.224,0.84,0.535,1.134,0.935c0.294,0.398,0.441,0.928,0.441,1.585v5.649
	c0,0.49,0.028,0.959,0.084,1.407c0.056,0.448,0.154,0.784,0.294,1.008h-3.024c-0.056-0.168-0.102-0.339-0.136-0.515
	c-0.035-0.175-0.06-0.354-0.074-0.535c-0.476,0.49-1.036,0.833-1.68,1.028c-0.644,0.196-1.302,0.295-1.974,0.295
	c-0.518,0-1.001-0.063-1.449-0.189c-0.448-0.126-0.84-0.322-1.176-0.588s-0.599-0.602-0.788-1.008s-0.284-0.89-0.284-1.449
	c0-0.616,0.108-1.124,0.326-1.522c0.217-0.399,0.497-0.718,0.84-0.956c0.343-0.237,0.735-0.416,1.176-0.535
	c0.441-0.119,0.885-0.213,1.333-0.283c0.448-0.07,0.889-0.126,1.323-0.168s0.819-0.105,1.155-0.189
	c0.336-0.084,0.602-0.206,0.798-0.367c0.196-0.161,0.287-0.396,0.273-0.703c0-0.322-0.053-0.578-0.158-0.767
	c-0.105-0.189-0.245-0.336-0.42-0.441c-0.175-0.104-0.378-0.175-0.609-0.21s-0.479-0.053-0.746-0.053
	c-0.588,0-1.05,0.126-1.386,0.378s-0.532,0.672-0.588,1.261H93.346z M100.234,33.783c-0.126,0.112-0.284,0.2-0.473,0.263
	c-0.189,0.063-0.392,0.116-0.609,0.158c-0.217,0.042-0.444,0.077-0.683,0.104c-0.238,0.028-0.476,0.063-0.714,0.105
	c-0.224,0.042-0.444,0.098-0.662,0.168s-0.406,0.164-0.567,0.283c-0.161,0.119-0.291,0.27-0.389,0.451
	c-0.098,0.183-0.147,0.413-0.147,0.693c0,0.266,0.049,0.49,0.147,0.672c0.098,0.183,0.231,0.325,0.399,0.431
	c0.168,0.104,0.364,0.179,0.588,0.221c0.224,0.042,0.455,0.062,0.693,0.062c0.588,0,1.043-0.098,1.365-0.294
	c0.322-0.195,0.56-0.431,0.714-0.703c0.154-0.273,0.249-0.55,0.283-0.83c0.035-0.279,0.053-0.504,0.053-0.672V33.783z"/>
<path display="none" fill="#FDB813" d="M108.592,24.103v14.994h-2.982V24.103H108.592z"/>
<path display="none" fill="#FDB813" d="M114.955,42.331c-0.574,0.378-1.372,0.566-2.394,0.566c-0.308,0-0.613-0.011-0.914-0.031
	c-0.301-0.021-0.605-0.046-0.914-0.073v-2.457c0.28,0.027,0.567,0.056,0.861,0.084c0.294,0.027,0.588,0.034,0.882,0.021
	c0.392-0.042,0.683-0.196,0.872-0.462s0.283-0.56,0.283-0.882c0-0.238-0.042-0.462-0.126-0.672l-3.801-10.186h3.171l2.457,7.435
	h0.042l2.373-7.435h3.087l-4.536,12.201C115.977,41.322,115.528,41.953,114.955,42.331z"/>
<path display="none" fill="#FDB813" d="M127.807,28.239v1.995h-2.184v5.376c0,0.504,0.084,0.84,0.252,1.009
	c0.168,0.168,0.504,0.252,1.008,0.252c0.168,0,0.329-0.007,0.483-0.021c0.154-0.014,0.301-0.035,0.441-0.062v2.31
	c-0.252,0.042-0.532,0.07-0.84,0.084s-0.609,0.021-0.903,0.021c-0.462,0-0.9-0.032-1.312-0.095
	c-0.413-0.063-0.777-0.186-1.092-0.368c-0.315-0.182-0.564-0.44-0.746-0.776c-0.182-0.336-0.273-0.777-0.273-1.323v-6.405h-1.806
	v-1.995h1.806v-3.255h2.982v3.255H127.807z"/>
<path display="none" fill="#FDB813" d="M129.318,26.56v-2.457h2.982v2.457H129.318z M132.3,28.239v10.857h-2.982V28.239H132.3z"/>
<path display="none" fill="#FDB813" d="M139.839,30.192c-0.476,0-0.875,0.109-1.197,0.326c-0.322,0.217-0.585,0.497-0.788,0.84
	c-0.203,0.343-0.346,0.721-0.431,1.134c-0.084,0.413-0.126,0.822-0.126,1.229c0,0.392,0.042,0.791,0.126,1.197
	c0.084,0.406,0.221,0.773,0.41,1.103s0.444,0.599,0.767,0.809c0.322,0.21,0.714,0.314,1.176,0.314c0.714,0,1.264-0.199,1.649-0.599
	c0.385-0.398,0.626-0.935,0.724-1.606h2.877c-0.196,1.442-0.756,2.541-1.68,3.297c-0.924,0.756-2.107,1.135-3.549,1.135
	c-0.812,0-1.558-0.137-2.236-0.41c-0.679-0.272-1.257-0.654-1.732-1.145c-0.476-0.489-0.847-1.074-1.113-1.753
	c-0.266-0.68-0.399-1.425-0.399-2.237c0-0.84,0.123-1.62,0.368-2.341c0.245-0.721,0.605-1.344,1.082-1.869
	c0.476-0.525,1.057-0.935,1.743-1.229c0.686-0.294,1.47-0.441,2.352-0.441c0.644,0,1.264,0.084,1.859,0.252
	c0.595,0.168,1.126,0.424,1.596,0.767c0.469,0.344,0.851,0.771,1.145,1.281c0.294,0.512,0.462,1.116,0.504,1.816h-2.919
	C141.848,30.815,141.113,30.192,139.839,30.192z"/>
<path display="none" fill="#FDB813" d="M149.215,36.398c0.133,0.23,0.305,0.42,0.515,0.566c0.21,0.147,0.451,0.256,0.724,0.326
	s0.557,0.104,0.851,0.104c0.21,0,0.431-0.024,0.662-0.073s0.441-0.126,0.63-0.231c0.189-0.104,0.347-0.244,0.473-0.42
	c0.126-0.175,0.189-0.396,0.189-0.661c0-0.448-0.298-0.784-0.893-1.008c-0.595-0.224-1.425-0.448-2.488-0.672
	c-0.434-0.099-0.858-0.214-1.271-0.347c-0.413-0.133-0.781-0.308-1.103-0.525c-0.322-0.217-0.581-0.489-0.777-0.818
	c-0.196-0.329-0.294-0.731-0.294-1.208c0-0.7,0.137-1.273,0.41-1.722s0.633-0.802,1.082-1.061c0.448-0.259,0.952-0.441,1.512-0.546
	c0.56-0.105,1.134-0.158,1.722-0.158s1.158,0.057,1.711,0.168c0.553,0.112,1.046,0.302,1.48,0.567
	c0.434,0.267,0.794,0.619,1.082,1.061s0.458,0.997,0.515,1.67h-2.835c-0.042-0.574-0.259-0.963-0.651-1.166
	c-0.392-0.203-0.854-0.305-1.386-0.305c-0.168,0-0.35,0.011-0.546,0.032c-0.196,0.021-0.375,0.066-0.536,0.136
	c-0.161,0.07-0.297,0.172-0.409,0.305c-0.112,0.134-0.168,0.312-0.168,0.535c0,0.267,0.098,0.483,0.294,0.651
	c0.196,0.168,0.451,0.305,0.766,0.409c0.315,0.105,0.675,0.2,1.082,0.284s0.819,0.175,1.239,0.272
	c0.434,0.099,0.857,0.218,1.271,0.357c0.413,0.14,0.78,0.325,1.103,0.557c0.322,0.23,0.581,0.518,0.777,0.86
	c0.196,0.344,0.294,0.767,0.294,1.271c0,0.714-0.144,1.312-0.431,1.796s-0.661,0.871-1.124,1.165
	c-0.462,0.294-0.99,0.501-1.585,0.62c-0.595,0.118-1.2,0.179-1.816,0.179c-0.63,0-1.246-0.063-1.848-0.189s-1.137-0.336-1.606-0.63
	s-0.854-0.683-1.155-1.166c-0.301-0.482-0.466-1.088-0.494-1.816h2.835C149.016,35.891,149.082,36.167,149.215,36.398z"/>
</svg>
