<?xml version="1.0" encoding="utf-8"?>
<!-- Generator: Adobe Illustrator 14.0.0, SVG Export Plug-In  -->
<!DOCTYPE svg PUBLIC "-//W3C//DTD SVG 1.1//EN" "http://www.w3.org/Graphics/SVG/1.1/DTD/svg11.dtd" [
	<!ENTITY ns_flows "http://ns.adobe.com/Flows/1.0/">
]>
<svg version="1.1"
	 xmlns="http://www.w3.org/2000/svg" xmlns:xlink="http://www.w3.org/1999/xlink" xmlns:a="http://ns.adobe.com/AdobeSVGViewerExtensions/3.0/"
	 x="0px" y="0px" width="200px" height="64px" viewBox="0.5 0.79 200 64" enable-background="new 0.5 0.79 200 64"
	 xml:space="preserve">
<defs>
</defs>
<rect x="0.5" y="0.79" display="none" stroke="#000000" width="200" height="64"/>
<rect x="3.5" y="3.79" display="none" stroke="#B3B3B3" stroke-width="6" width="58" height="58"/>
<rect x="0.5" display="none" fill="#58595B" width="200" height="65"/>
<path fill="#FDB813" d="M32.586,14.859c0.603,0,1.11-0.5,1.11-1.112V6.901c0-0.617-0.508-1.111-1.11-1.111
	c-0.612,0-1.11,0.494-1.11,1.111v6.846C31.476,14.359,31.975,14.859,32.586,14.859 M43.512,17.444
	c0.143,0.079,0.313,0.114,0.477,0.114c0.417,0,0.807-0.238,0.998-0.626l2.967-6.176c0.065-0.158,0.104-0.326,0.104-0.485
	c0-0.414-0.238-0.82-0.633-1.006c-0.156-0.074-0.329-0.114-0.486-0.114c-0.407,0-0.811,0.238-0.998,0.626l-2.958,6.193
	c-0.074,0.141-0.104,0.309-0.104,0.477C42.887,16.861,43.104,17.26,43.512,17.444 M19.652,16.933
	c0.195,0.388,0.599,0.626,1.006,0.626c0.165,0,0.321-0.035,0.477-0.114c0.403-0.185,0.633-0.583,0.633-0.997
	c0-0.168-0.039-0.336-0.104-0.477l-2.967-6.185c-0.186-0.388-0.585-0.626-0.997-0.626c-0.156,0-0.321,0.035-0.468,0.114
	c-0.408,0.181-0.642,0.592-0.642,1.006c0,0.159,0.039,0.327,0.113,0.485L19.652,16.933L19.652,16.933z M59.334,19.534
	c-0.209-0.334-0.582-0.52-0.945-0.52c-0.209,0-0.408,0.062-0.595,0.167l-5.821,3.615c-0.334,0.214-0.521,0.576-0.521,0.946
	c0,0.203,0.052,0.406,0.165,0.573c0.223,0.344,0.581,0.529,0.946,0.529c0.208,0,0.403-0.045,0.595-0.167l5.82-3.609
	c0.333-0.202,0.521-0.564,0.521-0.952C59.508,19.923,59.456,19.729,59.334,19.534 M12.426,24.846c0.382,0,0.737-0.186,0.945-0.529
	c0.122-0.167,0.174-0.37,0.174-0.573c0-0.37-0.195-0.732-0.529-0.946L7.2,19.182c-0.183-0.105-0.391-0.167-0.599-0.167
	c-0.355,0-0.729,0.186-0.937,0.52C5.543,19.729,5.5,19.923,5.5,20.117c0,0.388,0.195,0.741,0.52,0.952l5.825,3.609
	C12.019,24.801,12.227,24.846,12.426,24.846 M49.875,47.201c0.052-2.214-0.438-4.693-1.431-7.213
	c1.306-0.551,2.45-1.151,3.301-1.794c0.009,0.237,0.018,0.467,0.018,0.705C51.762,41.873,51.076,44.687,49.875,47.201 M47.32,37.562
	c-0.507-0.966-1.08-1.918-1.728-2.88c0.119-0.179,0.21-0.353,0.266-0.564c0.972,0.088,1.817,0.202,2.555,0.334
	C48.162,35.458,47.789,36.5,47.32,37.562 M46.561,52.012c-0.208,0.211-0.412,0.43-0.633,0.633C43.282,55,38.485,55.141,33.48,53.226
	c1.908-0.845,3.821-1.932,5.677-3.271c0.429,0.299,0.967,0.475,1.54,0.475c1.52,0,2.733-1.217,2.733-2.726
	c0-0.433-0.096-0.82-0.261-1.183c1.575-1.588,2.915-3.264,4.004-4.976C48.677,45.745,48.556,49.627,46.561,52.012 M32.586,58.07
	c-0.911,0-1.813-0.062-2.684-0.204c0.849-0.845,1.751-2.188,2.666-3.925c2.78,1.323,5.53,2.037,7.994,2.081
	c0.208,0.009,0.412,0.009,0.621,0C38.589,57.338,35.678,58.07,32.586,58.07 M28.084,57.452H28.08
	c-0.538-0.291-0.867-1.112-1.046-2.294c1.388-0.193,2.824-0.562,4.277-1.059C29.979,56.402,28.769,57.812,28.084,57.452
	 M26.96,50.465c1.044,0.804,2.095,1.526,3.158,2.162c-1.11,0.334-2.19,0.598-3.231,0.756C26.865,52.494,26.896,51.524,26.96,50.465
	 M20.964,43.319c-1.095-1.579-1.976-3.193-2.644-4.8c2.047-0.854,4.693-1.737,7.838-2.514c0.242,0.555,0.646,1.023,1.145,1.341
	c-0.013,0.062-0.03,0.132-0.037,0.194c-0.453,1.984-0.834,3.819-1.134,5.54C24.189,43.258,22.463,43.319,20.964,43.319
	 M25.36,48.242c-0.208-0.186-0.412-0.371-0.621-0.564c0.144-0.221,0.226-0.494,0.226-0.781c0-0.815-0.655-1.477-1.475-1.477
	c-0.269,0-0.508,0.078-0.733,0.211c-0.199-0.256-0.399-0.475-0.594-0.706c1.236-0.032,2.49-0.088,3.674-0.186
	C25.651,45.992,25.477,47.165,25.36,48.242 M22.567,55.237c0.872,0.106,1.799,0.149,2.771,0.097c0.086,0.53,0.221,1.024,0.377,1.447
	C24.614,56.367,23.556,55.855,22.567,55.237 M17.575,50.809c-1.145-1.588-1.587-3.767-1.349-6.201
	c1.496,0.237,3.262,0.335,5.096,0.326c0.303,0.38,0.618,0.75,0.954,1.119c-0.173,0.248-0.269,0.53-0.269,0.844
	c0,0.816,0.67,1.478,1.475,1.478c0.299,0,0.567-0.088,0.798-0.238c0.325,0.318,0.655,0.608,0.989,0.909
	c-0.165,1.747-0.217,3.255-0.139,4.525c-2.654,0.177-4.904-0.265-6.302-1.341C18.395,51.789,17.979,51.321,17.575,50.809
	 M13.71,41.907c-0.403-0.495,0.655-1.473,2.858-2.566c-0.563,1.146-1.01,2.293-1.325,3.414
	C14.409,42.517,13.888,42.234,13.71,41.907 M14.69,45.754c-0.208-0.545-0.386-1.094-0.551-1.658c0.233,0.088,0.495,0.15,0.737,0.229
	C14.791,44.819,14.729,45.286,14.69,45.754 M13.424,38.908c0-3.033,0.712-5.884,1.96-8.442c-0.036,2.294,0.529,4.843,1.64,7.464
	c-1.422,0.555-2.68,1.162-3.583,1.799C13.424,39.464,13.424,39.182,13.424,38.908 M20.094,43.311
	c-1.439-0.035-2.645-0.133-3.612-0.291c0.243-1.19,0.655-2.444,1.197-3.697C18.352,40.664,19.145,42.005,20.094,43.311
	 M18.729,25.684c0.143-0.149,0.285-0.3,0.425-0.44c2.646-2.446,7.322-2.408,12.271-0.274c-0.009,0.009-0.009,0.009-0.009,0.027
	c-2.277,1.103-4.567,2.547-6.74,4.34c-0.144,0.124-0.283,0.247-0.425,0.362c-0.239-0.186-0.538-0.273-0.85-0.273
	c-0.811,0-1.466,0.661-1.466,1.473c0,0.284,0.074,0.539,0.217,0.759c-1.74,1.74-3.197,3.586-4.359,5.461
	C16.235,32.5,16.534,28.172,18.729,25.684 M32.586,19.738c0.72,0,1.444,0.044,2.142,0.114c-0.802,0.812-1.661,2.038-2.524,3.608
	c-2.845-1.227-5.647-1.824-8.132-1.72C26.64,20.461,29.533,19.738,32.586,19.738 M37.158,20.399c0.009,0.009,0.023,0,0.052,0.009
	c0.499,0.115,0.837,0.988,1.028,2.355c-1.353,0.221-2.775,0.601-4.221,1.12C35.184,21.652,36.311,20.259,37.158,20.399
	 M38.446,27.14c-1.237-0.944-2.503-1.765-3.773-2.461c1.27-0.354,2.515-0.583,3.699-0.697C38.446,24.906,38.476,25.975,38.446,27.14
	 M30.357,44.312c0.425,0.604,1.128,1.001,1.908,1.001c1.028,0,1.883-0.653,2.203-1.58c0.391-0.061,0.842-0.141,1.358-0.247
	c-0.915,2.894-2.1,5.841-3.287,8.267c-0.422,0.177-0.855,0.335-1.281,0.494c-1.431-0.723-2.845-1.597-4.225-2.629
	c0.135-1.579,0.36-3.282,0.642-5.02C28.637,44.511,29.555,44.404,30.357,44.312 M36.182,33.686c-0.156-0.447-0.581-0.768-1.08-0.768
	c-0.594,0-1.085,0.459-1.145,1.05c-0.811,0.098-1.432,0.186-1.796,0.238c-0.143-0.915-0.685-1.706-1.431-2.181
	c0.737-2.23,1.548-4.392,2.376-6.235c1.774,0.917,3.547,2.117,5.253,3.546c-0.083,1.332-0.217,2.753-0.388,4.165
	C37.344,33.555,36.75,33.624,36.182,33.686 M37.032,39.023c-0.088,0.405-0.178,0.811-0.282,1.217
	c-0.104,0.459-0.238,0.927-0.364,1.402c-0.655,0.124-1.336,0.244-2.027,0.353c-0.368-0.784-1.161-1.322-2.103-1.322
	c-1.162,0-2.129,0.855-2.294,2.003c-0.685,0.069-1.353,0.16-1.995,0.22c0.312-1.711,0.686-3.423,1.071-5.028
	c1.713,0,3.093-1.367,3.159-3.052c0.633-0.101,1.244-0.186,1.847-0.265c0.183,0.405,0.59,0.688,1.058,0.688
	c0.568,0,1.037-0.406,1.141-0.945c0.568-0.061,1.11-0.105,1.648-0.149c-0.091,0.697-0.195,1.395-0.315,2.092
	c-0.761,0.053-1.364,0.688-1.364,1.464C36.205,38.291,36.542,38.784,37.032,39.023 M25.948,35.389
	c-2.288,0.502-4.925,1.155-7.284,1.949c0.998-1.809,2.301-3.572,3.886-5.231c0.248,0.177,0.529,0.273,0.851,0.273
	c0.82,0,1.483-0.662,1.483-1.474c0-0.291-0.091-0.568-0.23-0.779c0.104-0.111,0.221-0.2,0.334-0.306
	c1.883-1.553,3.913-2.806,5.938-3.75c-0.703,1.598-1.393,3.423-2.043,5.479c-1.674,0.079-3.014,1.455-3.014,3.158
	C25.868,34.938,25.895,35.177,25.948,35.389 M38.142,48.656c-1.371,0.982-2.802,1.809-4.246,2.497
	c0.976-2.258,1.93-4.923,2.771-7.834c2.408-0.483,5.699-1.235,8.713-2.206c-0.937,1.447-2.06,2.858-3.349,4.2
	c-0.39-0.229-0.844-0.362-1.327-0.362c-1.514,0-2.734,1.227-2.734,2.743C37.972,48.039,38.024,48.365,38.142,48.656 M41.018,33.994
	c0.299,1.067,1.275,1.871,2.45,1.871c0.248,0,0.49-0.043,0.725-0.098c0.741,1.094,1.392,2.206,1.934,3.309
	c-2.302,0.82-5.304,1.667-8.93,2.417c0.126-0.485,0.248-0.962,0.373-1.438c0.065-0.291,0.135-0.591,0.208-0.891
	c0.768-0.026,1.401-0.68,1.401-1.455c0-0.574-0.33-1.068-0.798-1.314c0.147-0.783,0.299-1.562,0.408-2.312
	C39.552,34.029,40.302,34.012,41.018,33.994 M42.679,22.614c-0.529-0.054-1.059-0.089-1.618-0.089c-0.603,0-1.206,0.035-1.839,0.098
	c-0.104-0.697-0.248-1.314-0.416-1.844C40.177,21.256,41.479,21.863,42.679,22.614 M41.248,32.098
	c-0.187,0.35-0.303,0.731-0.321,1.164c-0.698,0.044-1.375,0.088-2.056,0.142c0.174-1.12,0.3-2.223,0.404-3.273
	c0.351,0.313,0.701,0.635,1.037,0.979C40.632,31.445,40.936,31.762,41.248,32.098 M48.148,27.73
	c0.772,1.402,0.928,3.379,0.512,5.594c-0.827-0.098-1.726-0.159-2.68-0.186c-0.104-1.314-1.184-2.338-2.521-2.338
	c-0.294,0-0.581,0.044-0.841,0.15c-0.325-0.362-0.664-0.716-1.01-1.06c-0.709-0.706-1.448-1.358-2.178-1.967
	c0.07-1.482,0.044-2.832-0.052-4.021c3.24-0.117,6.011,0.703,7.69,2.45C47.446,26.805,47.81,27.272,48.148,27.73 M50.144,34.895
	c0.827,0.291,1.302,0.617,1.362,0.943c0,0.027,0.009,0.053,0.009,0.071c0,0.458-0.811,1.128-2.355,1.905
	C49.575,36.835,49.914,35.855,50.144,34.895 M50.56,32.23c0.195,0.511,0.358,1.05,0.507,1.588c-0.208-0.08-0.425-0.15-0.655-0.194
	C50.478,33.165,50.529,32.697,50.56,32.23 M53.212,35.662v-0.009c-0.006-0.027-0.015-0.044-0.015-0.071
	c-0.572-3.591-2.064-6.872-4.23-9.607c-0.09-0.132-0.181-0.246-0.285-0.379c-0.117-0.142-0.243-0.282-0.377-0.426
	c-3.839-4.382-9.463-7.152-15.727-7.152c-5.647,0-10.77,2.249-14.526,5.91c-0.104,0.082-0.208,0.187-0.312,0.274
	c-0.104,0.105-0.203,0.229-0.291,0.335c-3.57,3.749-5.76,8.805-5.76,14.371c0,4.958,1.744,9.502,4.628,13.092
	c0.06,0.062,0.112,0.142,0.165,0.221c0.086,0.106,0.178,0.203,0.264,0.3c3.839,4.448,9.508,7.27,15.823,7.27
	c5.595,0,10.676-2.205,14.421-5.796c0.143-0.133,0.287-0.256,0.421-0.397c0.126-0.123,0.26-0.267,0.369-0.415
	c3.517-3.731,5.677-8.751,5.677-14.273c0-1.085-0.087-2.17-0.245-3.22V35.662"/>
<path fill="#FFFFFF" d="M128.139,57.477h-3.419l-2.642-10.647h-0.067l-2.588,10.647h-3.486l-4.125-15.687h3.417l2.45,10.648h0.069
	l2.709-10.648h3.228l2.642,10.785h0.068l2.587-10.785h3.362L128.139,57.477L128.139,57.477z M131.693,49.606
	c0.189-2.902,2.777-3.812,5.351-3.812c2.26,0,4.97,0.519,4.97,3.226v5.937c0,1.036,0.123,2.072,0.381,2.521h-3.16
	c-0.122-0.326-0.189-0.709-0.189-1.102c-0.968,1.032-2.383,1.415-3.813,1.415c-2.193,0-3.867-1.102-3.867-3.417
	c0.068-5.162,7.68-2.385,7.557-4.903c0-1.295-0.899-1.552-2.001-1.552c-1.226,0-1.934,0.448-2.07,1.741h-3.158V49.606
	L131.693,49.606z M138.855,51.922c-0.518,0.449-1.621,0.449-2.588,0.641c-0.966,0.188-1.865,0.517-1.865,1.673
	c0,1.157,0.899,1.418,1.934,1.418c2.452,0,2.52-1.934,2.52-2.59V51.922z M147.639,46.121h2.26v2.067h-2.26v5.61
	c0,1.035,0.259,1.296,1.293,1.296c0.327,0,0.708,0,0.967-0.068v2.45c-0.517,0.069-1.226,0.122-1.812,0.122
	c-1.933,0-3.554-0.379-3.554-2.708v-6.646h-1.865v-2.071h1.865v-3.418h3.105V46.121L147.639,46.121z M153.766,53.799
	c0,1.362,1.157,1.937,2.383,1.937c0.898,0,2.07-0.328,2.07-1.418c0-0.968-1.294-1.294-3.555-1.742
	c-1.811-0.383-3.608-1.036-3.608-3.038c0-2.898,2.52-3.608,4.903-3.608c2.45,0,4.779,0.845,5.038,3.608h-2.969
	c-0.067-1.224-1.035-1.552-2.124-1.552c-0.709,0-1.744,0.124-1.744,1.034c0,1.105,1.811,1.294,3.554,1.676
	c1.811,0.383,3.608,1.103,3.608,3.16c0,2.969-2.587,3.935-5.16,3.935c-2.642,0-5.229-0.966-5.352-4.004L153.766,53.799
	L153.766,53.799z M168.091,45.794c3.554,0,5.869,2.381,5.869,6.004c0,3.609-2.329,5.938-5.869,5.938
	c-3.554,0-5.869-2.383-5.869-5.938C162.222,48.175,164.55,45.794,168.091,45.794z M168.091,55.407c2.124,0,2.777-1.812,2.777-3.609
	c0-1.812-0.64-3.609-2.777-3.609c-2.124,0-2.709,1.812-2.709,3.609C165.382,53.61,165.967,55.407,168.091,55.407z M175.062,46.121
	h2.969v1.552h0.069c0.775-1.295,2.124-1.865,3.486-1.865c3.295,0,4.125,1.865,4.125,4.645v6.971h-3.104v-6.332
	c0-1.866-0.518-2.777-2.002-2.777c-1.675,0-2.383,0.967-2.383,3.226v5.938h-3.16V46.121L175.062,46.121z"/>
<path fill="#FFFFFF" d="M71.217,8.796V23.79h-1.995V8.796H71.217z"/>
<path fill="#FFFFFF" d="M80.016,8.796c0.322,0,0.668,0.004,1.04,0.011c0.371,0.007,0.738,0.028,1.103,0.063
	c0.364,0.035,0.703,0.087,1.018,0.156c0.315,0.07,0.584,0.176,0.809,0.315c0.49,0.294,0.906,0.7,1.25,1.218
	c0.343,0.519,0.515,1.155,0.515,1.911c0,0.798-0.193,1.488-0.578,2.068c-0.385,0.582-0.935,1.012-1.648,1.292v0.042
	c0.924,0.196,1.631,0.616,2.121,1.26c0.49,0.645,0.735,1.429,0.735,2.353c0,0.546-0.098,1.078-0.294,1.596
	c-0.196,0.519-0.487,0.977-0.872,1.375c-0.385,0.399-0.861,0.722-1.428,0.967c-0.567,0.245-1.222,0.367-1.964,0.367h-7.245V8.796
	H80.016z M80.562,15.243c1.134,0,1.949-0.199,2.446-0.599s0.746-0.997,0.746-1.796c0-0.531-0.084-0.951-0.252-1.26
	c-0.168-0.308-0.399-0.546-0.693-0.714s-0.634-0.276-1.019-0.325c-0.385-0.049-0.795-0.074-1.229-0.074h-3.99v4.768H80.562z
	 M81.57,22.11c0.882,0,1.571-0.238,2.069-0.714c0.497-0.477,0.745-1.135,0.745-1.975c0-0.489-0.091-0.896-0.273-1.218
	s-0.423-0.577-0.725-0.767c-0.301-0.188-0.647-0.322-1.039-0.399c-0.392-0.076-0.798-0.115-1.218-0.115h-4.557v5.188H81.57z"/>
<path fill="#FFFFFF" d="M91.734,8.796l4.725,12.601l4.746-12.601h2.73V23.79h-1.89V11.315h-0.042L97.32,23.79h-1.701l-4.683-12.475
	h-0.042V23.79h-1.89V8.796H91.734z"/>
<path fill="#FFFFFF" d="M72.41,30.65c0.72,0,1.265,0.185,1.635,0.555S74.6,32.094,74.6,32.76c0,0.667-0.185,1.187-0.555,1.561
	c-0.37,0.373-0.915,0.557-1.635,0.55h-2.18v2.92h-0.95v-7.14H72.41z M72.09,34.07c0.54,0.007,0.935-0.104,1.185-0.33
	s0.375-0.554,0.375-0.98s-0.125-0.751-0.375-0.975S72.63,31.45,72.09,31.45h-1.86v2.62H72.09z"/>
<path fill="#FFFFFF" d="M75.5,34.146c0.106-0.33,0.267-0.617,0.48-0.86s0.477-0.436,0.79-0.575s0.673-0.21,1.08-0.21
	c0.413,0,0.775,0.07,1.085,0.21s0.571,0.332,0.785,0.575c0.213,0.243,0.373,0.53,0.48,0.86c0.106,0.329,0.16,0.685,0.16,1.064
	s-0.053,0.733-0.16,1.061c-0.107,0.326-0.267,0.611-0.48,0.854c-0.214,0.243-0.475,0.434-0.785,0.57S78.263,37.9,77.85,37.9
	c-0.407,0-0.767-0.068-1.08-0.205s-0.577-0.327-0.79-0.57s-0.374-0.528-0.48-0.854c-0.107-0.327-0.16-0.681-0.16-1.061
	S75.393,34.475,75.5,34.146z M76.365,36.045c0.083,0.243,0.199,0.447,0.345,0.61s0.318,0.288,0.515,0.375
	c0.196,0.087,0.405,0.13,0.625,0.13c0.22,0,0.428-0.043,0.625-0.13c0.196-0.087,0.368-0.212,0.515-0.375
	c0.147-0.163,0.262-0.367,0.345-0.61s0.125-0.521,0.125-0.835s-0.042-0.592-0.125-0.835s-0.198-0.448-0.345-0.615
	c-0.146-0.166-0.318-0.293-0.515-0.38c-0.197-0.086-0.405-0.13-0.625-0.13c-0.22,0-0.429,0.044-0.625,0.13
	c-0.197,0.087-0.369,0.214-0.515,0.38c-0.146,0.167-0.262,0.372-0.345,0.615c-0.083,0.243-0.125,0.521-0.125,0.835
	S76.282,35.802,76.365,36.045z"/>
<path fill="#FFFFFF" d="M85.58,37.79l-1.05-4.11h-0.02l-1.04,4.11h-0.92l-1.66-5.17h0.94L83,36.85h0.02l1.04-4.229h0.93l1.08,4.229
	h0.02l1.16-4.229h0.88l-1.65,5.17H85.58z"/>
<path fill="#FFFFFF" d="M92.6,37.46c-0.387,0.294-0.873,0.44-1.46,0.44c-0.413,0-0.771-0.067-1.075-0.2
	c-0.304-0.134-0.559-0.32-0.765-0.561c-0.207-0.239-0.362-0.526-0.465-0.859c-0.104-0.334-0.162-0.697-0.175-1.09
	c0-0.394,0.06-0.754,0.18-1.08c0.12-0.327,0.288-0.61,0.505-0.851c0.217-0.239,0.473-0.427,0.77-0.56
	c0.296-0.134,0.622-0.2,0.975-0.2c0.46,0,0.841,0.095,1.145,0.285c0.303,0.189,0.546,0.432,0.73,0.725
	c0.183,0.294,0.31,0.613,0.38,0.96c0.07,0.347,0.098,0.677,0.085,0.99h-3.87c-0.006,0.227,0.02,0.441,0.08,0.646
	c0.06,0.203,0.157,0.383,0.29,0.54c0.133,0.156,0.303,0.281,0.51,0.375c0.207,0.093,0.45,0.14,0.73,0.14
	c0.36,0,0.655-0.083,0.885-0.25s0.382-0.42,0.455-0.76h0.84C93.236,36.73,92.986,37.167,92.6,37.46z M92.395,34.14
	c-0.077-0.18-0.18-0.335-0.31-0.465c-0.13-0.13-0.284-0.233-0.46-0.31c-0.177-0.077-0.372-0.115-0.585-0.115
	c-0.22,0-0.418,0.038-0.595,0.115c-0.177,0.076-0.329,0.182-0.455,0.314c-0.126,0.134-0.227,0.289-0.3,0.466
	c-0.074,0.176-0.117,0.364-0.13,0.564h2.97C92.517,34.51,92.471,34.32,92.395,34.14z"/>
<path fill="#FFFFFF" d="M95.08,32.62v1.09h0.02c0.207-0.42,0.46-0.729,0.76-0.93c0.3-0.2,0.68-0.294,1.14-0.28v0.9
	c-0.34,0-0.63,0.046-0.87,0.14c-0.24,0.094-0.434,0.23-0.58,0.41s-0.253,0.398-0.32,0.655c-0.067,0.256-0.1,0.552-0.1,0.885v2.3
	h-0.85v-5.17H95.08z"/>
<path fill="#FFFFFF" d="M101.12,37.46c-0.387,0.294-0.873,0.44-1.46,0.44c-0.413,0-0.771-0.067-1.075-0.2
	c-0.304-0.134-0.559-0.32-0.765-0.561c-0.207-0.239-0.362-0.526-0.465-0.859c-0.104-0.334-0.162-0.697-0.175-1.09
	c0-0.394,0.06-0.754,0.18-1.08c0.12-0.327,0.288-0.61,0.505-0.851c0.217-0.239,0.473-0.427,0.77-0.56
	c0.296-0.134,0.622-0.2,0.975-0.2c0.46,0,0.841,0.095,1.145,0.285c0.303,0.189,0.546,0.432,0.73,0.725
	c0.183,0.294,0.31,0.613,0.38,0.96c0.07,0.347,0.098,0.677,0.085,0.99h-3.87c-0.006,0.227,0.02,0.441,0.08,0.646
	c0.06,0.203,0.157,0.383,0.29,0.54c0.133,0.156,0.303,0.281,0.51,0.375c0.207,0.093,0.45,0.14,0.73,0.14
	c0.36,0,0.655-0.083,0.885-0.25s0.382-0.42,0.455-0.76h0.84C101.756,36.73,101.506,37.167,101.12,37.46z M100.915,34.14
	c-0.077-0.18-0.18-0.335-0.31-0.465c-0.13-0.13-0.284-0.233-0.46-0.31c-0.177-0.077-0.372-0.115-0.585-0.115
	c-0.22,0-0.418,0.038-0.595,0.115c-0.177,0.076-0.329,0.182-0.455,0.314c-0.126,0.134-0.227,0.289-0.3,0.466
	c-0.074,0.176-0.117,0.364-0.13,0.564h2.97C101.037,34.51,100.991,34.32,100.915,34.14z"/>
<path fill="#FFFFFF" d="M106.6,37.79v-0.7h-0.02c-0.14,0.287-0.36,0.493-0.66,0.62s-0.63,0.19-0.99,0.19
	c-0.4,0-0.749-0.074-1.045-0.221c-0.296-0.146-0.543-0.343-0.74-0.59c-0.197-0.246-0.345-0.533-0.445-0.859
	c-0.1-0.327-0.15-0.674-0.15-1.04c0-0.367,0.048-0.714,0.145-1.04c0.097-0.327,0.243-0.612,0.44-0.855s0.443-0.437,0.74-0.58
	c0.296-0.144,0.642-0.215,1.035-0.215c0.133,0,0.276,0.014,0.43,0.04s0.307,0.071,0.46,0.135s0.298,0.146,0.435,0.25
	s0.251,0.232,0.345,0.385h0.02V30.65h0.85v7.14H106.6z M103.544,35.955c0.063,0.229,0.16,0.435,0.29,0.615
	c0.13,0.18,0.296,0.323,0.5,0.43c0.203,0.106,0.441,0.16,0.715,0.16c0.287,0,0.53-0.057,0.73-0.17c0.2-0.113,0.363-0.262,0.49-0.445
	c0.126-0.184,0.218-0.392,0.275-0.625s0.085-0.47,0.085-0.71c0-0.253-0.03-0.498-0.09-0.735c-0.06-0.236-0.155-0.444-0.285-0.625
	c-0.13-0.18-0.298-0.324-0.505-0.435s-0.457-0.165-0.75-0.165c-0.287,0-0.53,0.057-0.73,0.17c-0.2,0.113-0.36,0.264-0.48,0.45
	s-0.207,0.4-0.26,0.64c-0.053,0.24-0.08,0.487-0.08,0.74C103.449,35.49,103.481,35.725,103.544,35.955z"/>
<path fill="#FFFFFF" d="M112.419,30.65v2.67h0.02c0.14-0.287,0.36-0.495,0.66-0.625c0.3-0.13,0.63-0.195,0.99-0.195
	c0.4,0,0.749,0.073,1.045,0.22c0.297,0.147,0.543,0.346,0.74,0.596c0.196,0.25,0.345,0.538,0.445,0.864
	c0.1,0.327,0.15,0.674,0.15,1.04c0,0.367-0.048,0.714-0.145,1.04c-0.097,0.327-0.243,0.612-0.44,0.855s-0.443,0.435-0.74,0.575
	c-0.297,0.14-0.642,0.21-1.035,0.21c-0.126,0-0.269-0.014-0.425-0.04c-0.157-0.027-0.312-0.07-0.465-0.13
	c-0.153-0.061-0.298-0.142-0.435-0.245s-0.251-0.231-0.345-0.386h-0.02v0.69h-0.85v-7.14H112.419z M115.475,34.455
	c-0.063-0.23-0.16-0.435-0.29-0.615c-0.13-0.18-0.297-0.323-0.5-0.43c-0.204-0.106-0.442-0.16-0.715-0.16
	c-0.287,0-0.53,0.057-0.73,0.17c-0.2,0.113-0.363,0.262-0.49,0.445c-0.127,0.184-0.219,0.392-0.275,0.625
	c-0.057,0.233-0.085,0.47-0.085,0.71c0,0.253,0.03,0.498,0.09,0.734c0.06,0.237,0.155,0.445,0.285,0.625
	c0.13,0.181,0.298,0.325,0.505,0.436c0.207,0.11,0.457,0.165,0.75,0.165c0.293,0,0.538-0.057,0.735-0.17s0.355-0.264,0.475-0.45
	s0.207-0.4,0.26-0.64c0.053-0.24,0.08-0.487,0.08-0.74C115.569,34.92,115.538,34.685,115.475,34.455z"/>
<path fill="#FFFFFF" d="M119.499,38.48c-0.1,0.253-0.198,0.466-0.295,0.64c-0.097,0.173-0.204,0.314-0.32,0.425
	c-0.117,0.11-0.247,0.19-0.39,0.24c-0.144,0.05-0.309,0.075-0.495,0.075c-0.1,0-0.2-0.007-0.3-0.021s-0.197-0.036-0.29-0.069v-0.78
	c0.073,0.033,0.158,0.062,0.255,0.085s0.178,0.035,0.245,0.035c0.173,0,0.318-0.042,0.435-0.125
	c0.116-0.084,0.205-0.202,0.265-0.355l0.35-0.87l-2.05-5.14h0.96l1.51,4.229h0.02l1.45-4.229h0.9L119.499,38.48z"/>
<path fill="#FFFFFF" d="M70.818,42.293v14.994h-1.995V42.293H70.818z"/>
<path fill="#FFFFFF" d="M79.618,42.293c0.322,0,0.668,0.004,1.04,0.011c0.371,0.007,0.738,0.028,1.103,0.063
	c0.364,0.035,0.703,0.087,1.018,0.156c0.315,0.07,0.584,0.176,0.809,0.315c0.49,0.294,0.906,0.7,1.25,1.218
	c0.343,0.519,0.515,1.155,0.515,1.911c0,0.798-0.193,1.488-0.578,2.068c-0.385,0.582-0.935,1.012-1.648,1.292v0.042
	c0.924,0.196,1.631,0.616,2.121,1.26c0.49,0.645,0.735,1.429,0.735,2.353c0,0.546-0.098,1.078-0.294,1.596
	c-0.196,0.519-0.487,0.977-0.872,1.375c-0.385,0.399-0.861,0.722-1.428,0.967c-0.567,0.245-1.222,0.367-1.964,0.367h-7.245V42.293
	H79.618z M80.164,48.74c1.134,0,1.949-0.199,2.446-0.599s0.746-0.997,0.746-1.796c0-0.531-0.084-0.951-0.252-1.26
	c-0.168-0.308-0.399-0.546-0.693-0.714s-0.634-0.276-1.019-0.325c-0.385-0.049-0.795-0.074-1.229-0.074h-3.99v4.768H80.164z
	 M81.171,55.607c0.882,0,1.571-0.238,2.069-0.714c0.497-0.477,0.745-1.135,0.745-1.975c0-0.489-0.091-0.896-0.273-1.218
	s-0.423-0.577-0.725-0.767c-0.301-0.188-0.647-0.322-1.039-0.399c-0.392-0.076-0.798-0.115-1.218-0.115h-4.557v5.188H81.171z"/>
<path fill="#FFFFFF" d="M91.335,42.293l4.725,12.601l4.746-12.601h2.73v14.994h-1.89V44.812h-0.042l-4.683,12.475H95.22
	l-4.683-12.475h-0.042v12.475h-1.89V42.293H91.335z"/>
<path fill="#FFFFFF" d="M114.469,20.094c0.182,0.351,0.423,0.634,0.724,0.851c0.301,0.218,0.654,0.378,1.061,0.483
	c0.406,0.104,0.826,0.157,1.26,0.157c0.294,0,0.609-0.024,0.945-0.073s0.651-0.144,0.945-0.283c0.294-0.141,0.539-0.333,0.735-0.578
	c0.196-0.245,0.294-0.557,0.294-0.935c0-0.405-0.13-0.734-0.389-0.986c-0.259-0.253-0.599-0.463-1.019-0.631
	s-0.896-0.314-1.428-0.44c-0.532-0.126-1.071-0.266-1.617-0.42c-0.56-0.14-1.106-0.312-1.638-0.515s-1.008-0.466-1.428-0.787
	c-0.42-0.322-0.76-0.725-1.019-1.208c-0.259-0.483-0.389-1.067-0.389-1.754c0-0.77,0.165-1.438,0.494-2.005
	c0.329-0.567,0.759-1.04,1.292-1.418c0.532-0.378,1.134-0.657,1.806-0.84c0.672-0.182,1.344-0.272,2.016-0.272
	c0.784,0,1.536,0.087,2.257,0.262c0.721,0.176,1.361,0.459,1.921,0.851c0.56,0.393,1.004,0.893,1.333,1.502
	c0.329,0.608,0.494,1.348,0.494,2.215h-3.192c-0.028-0.447-0.123-0.818-0.284-1.112c-0.161-0.294-0.375-0.525-0.641-0.693
	s-0.57-0.287-0.914-0.356c-0.343-0.07-0.717-0.105-1.124-0.105c-0.266,0-0.532,0.028-0.798,0.084
	c-0.266,0.057-0.507,0.154-0.725,0.294c-0.217,0.141-0.396,0.315-0.535,0.525c-0.14,0.21-0.21,0.476-0.21,0.798
	c0,0.294,0.056,0.532,0.168,0.714c0.112,0.183,0.332,0.351,0.661,0.504c0.329,0.154,0.784,0.309,1.365,0.462
	c0.581,0.154,1.34,0.351,2.278,0.588c0.28,0.057,0.668,0.158,1.166,0.305c0.497,0.147,0.99,0.382,1.48,0.704
	c0.49,0.321,0.914,0.752,1.271,1.291s0.536,1.229,0.536,2.068c0,0.687-0.133,1.323-0.399,1.911
	c-0.266,0.588-0.662,1.096-1.187,1.522c-0.525,0.428-1.176,0.76-1.953,0.997c-0.777,0.238-1.677,0.357-2.698,0.357
	c-0.826,0-1.627-0.102-2.405-0.305c-0.777-0.202-1.463-0.521-2.058-0.955s-1.067-0.987-1.417-1.659s-0.518-1.47-0.504-2.394h3.192
	C114.196,19.317,114.287,19.744,114.469,20.094z"/>
<path fill="#FFFFFF" d="M132.613,23.79v-1.512h-0.063c-0.378,0.63-0.868,1.085-1.47,1.364c-0.602,0.28-1.218,0.421-1.848,0.421
	c-0.798,0-1.453-0.105-1.963-0.315c-0.511-0.21-0.914-0.507-1.208-0.893c-0.294-0.385-0.501-0.854-0.62-1.407
	c-0.119-0.553-0.179-1.165-0.179-1.837v-6.679h2.982v6.133c0,0.896,0.14,1.564,0.42,2.005c0.28,0.441,0.777,0.662,1.491,0.662
	c0.812,0,1.4-0.242,1.764-0.725c0.364-0.483,0.546-1.277,0.546-2.384v-5.691h2.982V23.79H132.613z"/>
<path fill="#FFFFFF" d="M140.551,12.933v1.387h0.042c0.364-0.588,0.826-1.016,1.386-1.281c0.56-0.266,1.176-0.399,1.848-0.399
	c0.854,0,1.589,0.161,2.205,0.483c0.616,0.322,1.126,0.749,1.533,1.281c0.406,0.532,0.707,1.151,0.903,1.858
	c0.196,0.707,0.294,1.445,0.294,2.215c0,0.729-0.098,1.429-0.294,2.101c-0.196,0.672-0.494,1.268-0.893,1.785
	s-0.896,0.931-1.491,1.238c-0.595,0.309-1.292,0.463-2.089,0.463c-0.672,0-1.292-0.137-1.858-0.41
	c-0.567-0.272-1.033-0.675-1.396-1.207h-0.042v5.145h-2.982V12.933H140.551z M144.425,21.543c0.329-0.196,0.595-0.451,0.798-0.767
	c0.203-0.314,0.346-0.683,0.43-1.103s0.126-0.847,0.126-1.281c0-0.434-0.046-0.86-0.137-1.28c-0.091-0.42-0.242-0.795-0.452-1.124
	c-0.21-0.328-0.479-0.595-0.809-0.798s-0.731-0.305-1.207-0.305c-0.49,0-0.9,0.102-1.229,0.305
	c-0.329,0.203-0.595,0.466-0.798,0.788c-0.203,0.321-0.346,0.692-0.43,1.112s-0.126,0.854-0.126,1.302
	c0,0.435,0.045,0.861,0.136,1.281c0.091,0.42,0.238,0.788,0.441,1.103c0.203,0.315,0.473,0.57,0.809,0.767s0.742,0.294,1.218,0.294
	C143.687,21.837,144.096,21.739,144.425,21.543z"/>
<path fill="#FFFFFF" d="M153.381,12.933v1.387h0.042c0.364-0.588,0.826-1.016,1.386-1.281c0.56-0.266,1.176-0.399,1.848-0.399
	c0.854,0,1.589,0.161,2.205,0.483c0.616,0.322,1.126,0.749,1.533,1.281c0.406,0.532,0.707,1.151,0.903,1.858
	c0.196,0.707,0.294,1.445,0.294,2.215c0,0.729-0.098,1.429-0.294,2.101c-0.196,0.672-0.494,1.268-0.893,1.785
	s-0.896,0.931-1.491,1.238c-0.595,0.309-1.292,0.463-2.089,0.463c-0.672,0-1.292-0.137-1.858-0.41
	c-0.567-0.272-1.033-0.675-1.396-1.207h-0.042v5.145h-2.982V12.933H153.381z M157.255,21.543c0.329-0.196,0.595-0.451,0.798-0.767
	c0.203-0.314,0.346-0.683,0.43-1.103s0.126-0.847,0.126-1.281c0-0.434-0.046-0.86-0.137-1.28c-0.091-0.42-0.242-0.795-0.452-1.124
	c-0.21-0.328-0.479-0.595-0.809-0.798s-0.731-0.305-1.207-0.305c-0.49,0-0.9,0.102-1.229,0.305
	c-0.329,0.203-0.595,0.466-0.798,0.788c-0.203,0.321-0.346,0.692-0.43,1.112s-0.126,0.854-0.126,1.302
	c0,0.435,0.045,0.861,0.136,1.281c0.091,0.42,0.238,0.788,0.441,1.103c0.203,0.315,0.473,0.57,0.809,0.767s0.742,0.294,1.218,0.294
	C156.517,21.837,156.926,21.739,157.255,21.543z"/>
<path fill="#FFFFFF" d="M163.44,16.01c0.266-0.707,0.644-1.31,1.134-1.807c0.49-0.496,1.078-0.882,1.764-1.154
	c0.686-0.273,1.456-0.41,2.31-0.41s1.628,0.137,2.321,0.41c0.693,0.272,1.284,0.658,1.774,1.154c0.49,0.497,0.868,1.1,1.134,1.807
	s0.399,1.494,0.399,2.362s-0.133,1.652-0.399,2.352c-0.266,0.7-0.644,1.299-1.134,1.796c-0.49,0.497-1.082,0.879-1.774,1.145
	s-1.467,0.399-2.321,0.399s-1.624-0.134-2.31-0.399c-0.687-0.266-1.274-0.647-1.764-1.145c-0.49-0.497-0.868-1.096-1.134-1.796
	c-0.266-0.699-0.399-1.483-0.399-2.352S163.174,16.717,163.44,16.01z M166.149,19.643c0.084,0.413,0.228,0.784,0.431,1.113
	c0.203,0.329,0.473,0.591,0.809,0.787s0.756,0.294,1.26,0.294c0.504,0,0.928-0.098,1.271-0.294c0.343-0.196,0.616-0.458,0.819-0.787
	c0.203-0.329,0.346-0.7,0.43-1.113s0.126-0.837,0.126-1.271s-0.042-0.861-0.126-1.281s-0.228-0.791-0.43-1.112
	c-0.203-0.322-0.476-0.585-0.819-0.788c-0.343-0.203-0.766-0.305-1.271-0.305c-0.504,0-0.924,0.102-1.26,0.305
	s-0.606,0.466-0.809,0.788c-0.203,0.321-0.346,0.692-0.431,1.112c-0.084,0.42-0.126,0.848-0.126,1.281
	S166.065,19.229,166.149,19.643z"/>
<path fill="#FFFFFF" d="M179.043,12.933v2.017h0.042c0.14-0.336,0.329-0.647,0.567-0.935c0.238-0.287,0.511-0.532,0.819-0.735
	c0.308-0.202,0.637-0.36,0.987-0.473c0.35-0.111,0.714-0.168,1.092-0.168c0.196,0,0.413,0.035,0.651,0.105v2.771
	c-0.14-0.027-0.308-0.052-0.504-0.073c-0.196-0.021-0.385-0.031-0.567-0.031c-0.546,0-1.008,0.091-1.386,0.272
	c-0.378,0.183-0.683,0.431-0.914,0.746c-0.231,0.314-0.396,0.683-0.493,1.103c-0.098,0.42-0.147,0.875-0.147,1.365v4.893h-2.982
	V12.933H179.043z"/>
<path fill="#FFFFFF" d="M190.341,12.933v1.995h-2.184v5.376c0,0.504,0.084,0.84,0.252,1.009c0.168,0.168,0.504,0.252,1.008,0.252
	c0.168,0,0.329-0.007,0.483-0.021c0.154-0.014,0.301-0.035,0.441-0.062v2.31c-0.252,0.042-0.532,0.07-0.84,0.084
	s-0.609,0.021-0.903,0.021c-0.462,0-0.9-0.032-1.312-0.095c-0.413-0.063-0.777-0.186-1.092-0.368
	c-0.315-0.182-0.564-0.44-0.746-0.776c-0.182-0.336-0.273-0.777-0.273-1.323v-6.405h-1.806v-1.995h1.806V9.678h2.982v3.255H190.341z
	"/>
</svg>
