<?xml version="1.0" encoding="utf-8"?>
<!-- Generator: Adobe Illustrator 14.0.0, SVG Export Plug-In  -->
<!DOCTYPE svg PUBLIC "-//W3C//DTD SVG 1.1//EN" "http://www.w3.org/Graphics/SVG/1.1/DTD/svg11.dtd" [
	<!ENTITY ns_flows "http://ns.adobe.com/Flows/1.0/">
]>
<svg version="1.1"
	 xmlns="http://www.w3.org/2000/svg" xmlns:xlink="http://www.w3.org/1999/xlink" xmlns:a="http://ns.adobe.com/AdobeSVGViewerExtensions/3.0/"
	 x="0px" y="0px" width="200px" height="64px" viewBox="0.5 0.5 200 64" enable-background="new 0.5 0.5 200 64"
	 xml:space="preserve">
<defs>
</defs>
<rect x="0.5" y="0.5" display="none" stroke="#000000" width="200" height="64"/>
<rect x="3.5" y="3.5" display="none" stroke="#B3B3B3" stroke-width="6" width="58" height="58"/>
<path fill="#FFFFFF" d="M32.586,14.569c0.603,0,1.11-0.5,1.11-1.112V6.611c0-0.617-0.508-1.111-1.11-1.111
	c-0.612,0-1.11,0.494-1.11,1.111v6.846C31.476,14.069,31.975,14.569,32.586,14.569 M43.512,17.154
	c0.143,0.079,0.313,0.114,0.477,0.114c0.417,0,0.807-0.238,0.998-0.626l2.967-6.176c0.065-0.158,0.104-0.326,0.104-0.485
	c0-0.414-0.238-0.82-0.633-1.006c-0.156-0.074-0.329-0.114-0.486-0.114c-0.407,0-0.811,0.238-0.998,0.626l-2.958,6.193
	c-0.074,0.141-0.104,0.309-0.104,0.477C42.887,16.571,43.104,16.97,43.512,17.154 M19.652,16.643
	c0.195,0.388,0.599,0.626,1.006,0.626c0.165,0,0.321-0.035,0.477-0.114c0.403-0.185,0.633-0.583,0.633-0.997
	c0-0.168-0.039-0.336-0.104-0.477l-2.967-6.185c-0.186-0.388-0.585-0.626-0.997-0.626c-0.156,0-0.321,0.035-0.468,0.114
	C16.825,9.165,16.59,9.576,16.59,9.99c0,0.159,0.039,0.327,0.113,0.485L19.652,16.643L19.652,16.643z M59.334,19.244
	c-0.209-0.334-0.582-0.52-0.945-0.52c-0.209,0-0.408,0.062-0.595,0.167l-5.821,3.615c-0.334,0.214-0.521,0.576-0.521,0.946
	c0,0.203,0.052,0.406,0.165,0.573c0.223,0.344,0.581,0.529,0.946,0.529c0.208,0,0.403-0.045,0.595-0.167l5.82-3.609
	c0.333-0.202,0.521-0.564,0.521-0.952C59.508,19.633,59.456,19.439,59.334,19.244 M12.426,24.556c0.382,0,0.737-0.186,0.945-0.529
	c0.122-0.167,0.174-0.37,0.174-0.573c0-0.37-0.195-0.732-0.529-0.946L7.2,18.892c-0.183-0.105-0.391-0.167-0.599-0.167
	c-0.355,0-0.729,0.186-0.937,0.52C5.543,19.439,5.5,19.633,5.5,19.827c0,0.388,0.195,0.741,0.52,0.952l5.825,3.609
	C12.019,24.511,12.227,24.556,12.426,24.556 M49.875,46.911c0.052-2.214-0.438-4.693-1.431-7.213
	c1.306-0.551,2.45-1.151,3.301-1.794c0.009,0.237,0.018,0.467,0.018,0.705C51.762,41.583,51.076,44.396,49.875,46.911 M47.32,37.272
	c-0.507-0.966-1.08-1.918-1.728-2.88c0.119-0.179,0.21-0.353,0.266-0.564c0.972,0.088,1.817,0.202,2.555,0.334
	C48.162,35.168,47.789,36.21,47.32,37.272 M46.561,51.722c-0.208,0.211-0.412,0.43-0.633,0.633
	c-2.646,2.355-7.443,2.496-12.448,0.581c1.908-0.845,3.821-1.932,5.677-3.271c0.429,0.299,0.967,0.475,1.54,0.475
	c1.52,0,2.733-1.217,2.733-2.726c0-0.433-0.096-0.82-0.261-1.183c1.575-1.588,2.915-3.264,4.004-4.976
	C48.677,45.455,48.556,49.337,46.561,51.722 M32.586,57.78c-0.911,0-1.813-0.062-2.684-0.204c0.849-0.845,1.751-2.188,2.666-3.925
	c2.78,1.323,5.53,2.037,7.994,2.081c0.208,0.009,0.412,0.009,0.621,0C38.589,57.048,35.678,57.78,32.586,57.78 M28.084,57.162H28.08
	c-0.538-0.291-0.867-1.112-1.046-2.294c1.388-0.193,2.824-0.562,4.277-1.059C29.979,56.112,28.769,57.522,28.084,57.162
	 M26.96,50.175c1.044,0.804,2.095,1.526,3.158,2.162c-1.11,0.334-2.19,0.598-3.231,0.756C26.865,52.204,26.896,51.234,26.96,50.175
	 M20.964,43.029c-1.095-1.579-1.976-3.193-2.644-4.8c2.047-0.854,4.693-1.737,7.838-2.514c0.242,0.555,0.646,1.023,1.145,1.341
	c-0.013,0.062-0.03,0.132-0.037,0.194c-0.453,1.984-0.834,3.819-1.134,5.54C24.189,42.968,22.463,43.029,20.964,43.029
	 M25.36,47.952c-0.208-0.186-0.412-0.371-0.621-0.564c0.144-0.221,0.226-0.494,0.226-0.781c0-0.815-0.655-1.477-1.475-1.477
	c-0.269,0-0.508,0.078-0.733,0.211c-0.199-0.256-0.399-0.475-0.594-0.706c1.236-0.032,2.49-0.088,3.674-0.186
	C25.651,45.702,25.477,46.875,25.36,47.952 M22.567,54.947c0.872,0.106,1.799,0.149,2.771,0.097c0.086,0.53,0.221,1.024,0.377,1.447
	C24.614,56.077,23.556,55.565,22.567,54.947 M17.575,50.519c-1.145-1.588-1.587-3.767-1.349-6.201
	c1.496,0.237,3.262,0.335,5.096,0.326c0.303,0.38,0.618,0.75,0.954,1.119c-0.173,0.248-0.269,0.53-0.269,0.844
	c0,0.816,0.67,1.478,1.475,1.478c0.299,0,0.567-0.088,0.798-0.238c0.325,0.318,0.655,0.608,0.989,0.909
	c-0.165,1.747-0.217,3.255-0.139,4.525c-2.654,0.177-4.904-0.265-6.302-1.341C18.395,51.499,17.979,51.031,17.575,50.519
	 M13.71,41.617c-0.403-0.495,0.655-1.473,2.858-2.566c-0.563,1.146-1.01,2.293-1.325,3.414
	C14.409,42.227,13.888,41.944,13.71,41.617 M14.69,45.464c-0.208-0.545-0.386-1.094-0.551-1.658c0.233,0.088,0.495,0.15,0.737,0.229
	C14.791,44.529,14.729,44.996,14.69,45.464 M13.424,38.618c0-3.033,0.712-5.884,1.96-8.442c-0.036,2.294,0.529,4.843,1.64,7.464
	c-1.422,0.555-2.68,1.162-3.583,1.799C13.424,39.174,13.424,38.892,13.424,38.618 M20.094,43.021
	c-1.439-0.035-2.645-0.133-3.612-0.291c0.243-1.19,0.655-2.444,1.197-3.697C18.352,40.374,19.145,41.715,20.094,43.021
	 M18.729,25.394c0.143-0.149,0.285-0.3,0.425-0.44c2.646-2.446,7.322-2.408,12.271-0.274c-0.009,0.009-0.009,0.009-0.009,0.027
	c-2.277,1.103-4.567,2.547-6.74,4.34c-0.144,0.124-0.283,0.247-0.425,0.362c-0.239-0.186-0.538-0.273-0.85-0.273
	c-0.811,0-1.466,0.661-1.466,1.473c0,0.284,0.074,0.539,0.217,0.759c-1.74,1.74-3.197,3.586-4.359,5.461
	C16.235,32.21,16.534,27.882,18.729,25.394 M32.586,19.448c0.72,0,1.444,0.044,2.142,0.114c-0.802,0.812-1.661,2.038-2.524,3.608
	c-2.845-1.227-5.647-1.824-8.132-1.72C26.64,20.171,29.533,19.448,32.586,19.448 M37.158,20.109c0.009,0.009,0.023,0,0.052,0.009
	c0.499,0.115,0.837,0.988,1.028,2.355c-1.353,0.221-2.775,0.601-4.221,1.12C35.184,21.362,36.311,19.969,37.158,20.109
	 M38.446,26.85c-1.237-0.944-2.503-1.765-3.773-2.461c1.27-0.354,2.515-0.583,3.699-0.697C38.446,24.616,38.476,25.685,38.446,26.85
	 M30.357,44.022c0.425,0.604,1.128,1.001,1.908,1.001c1.028,0,1.883-0.653,2.203-1.58c0.391-0.061,0.842-0.141,1.358-0.247
	c-0.915,2.894-2.1,5.841-3.287,8.267c-0.422,0.177-0.855,0.335-1.281,0.494c-1.431-0.723-2.845-1.597-4.225-2.629
	c0.135-1.579,0.36-3.282,0.642-5.02C28.637,44.221,29.555,44.114,30.357,44.022 M36.182,33.396c-0.156-0.447-0.581-0.768-1.08-0.768
	c-0.594,0-1.085,0.459-1.145,1.05c-0.811,0.098-1.432,0.186-1.796,0.238c-0.143-0.915-0.685-1.706-1.431-2.181
	c0.737-2.23,1.548-4.392,2.376-6.235c1.774,0.917,3.547,2.117,5.253,3.546c-0.083,1.332-0.217,2.753-0.388,4.165
	C37.344,33.265,36.75,33.334,36.182,33.396 M37.032,38.733c-0.088,0.405-0.178,0.811-0.282,1.217
	c-0.104,0.459-0.238,0.927-0.364,1.402c-0.655,0.124-1.336,0.244-2.027,0.353c-0.368-0.784-1.161-1.322-2.103-1.322
	c-1.162,0-2.129,0.855-2.294,2.003c-0.685,0.069-1.353,0.16-1.995,0.22c0.312-1.711,0.686-3.423,1.071-5.028
	c1.713,0,3.093-1.367,3.159-3.052c0.633-0.101,1.244-0.186,1.847-0.265c0.183,0.405,0.59,0.688,1.058,0.688
	c0.568,0,1.037-0.406,1.141-0.945c0.568-0.061,1.11-0.105,1.648-0.149c-0.091,0.697-0.195,1.395-0.315,2.092
	c-0.761,0.053-1.364,0.688-1.364,1.464C36.205,38.001,36.542,38.494,37.032,38.733 M25.948,35.099
	c-2.288,0.502-4.925,1.155-7.284,1.949c0.998-1.809,2.301-3.572,3.886-5.231c0.248,0.177,0.529,0.273,0.851,0.273
	c0.82,0,1.483-0.662,1.483-1.474c0-0.291-0.091-0.568-0.23-0.779c0.104-0.111,0.221-0.2,0.334-0.306
	c1.883-1.553,3.913-2.806,5.938-3.75c-0.703,1.598-1.393,3.423-2.043,5.479c-1.674,0.079-3.014,1.455-3.014,3.158
	C25.868,34.648,25.895,34.887,25.948,35.099 M38.142,48.366c-1.371,0.982-2.802,1.809-4.246,2.497
	c0.976-2.258,1.93-4.923,2.771-7.834c2.408-0.483,5.699-1.235,8.713-2.206c-0.937,1.447-2.06,2.858-3.349,4.2
	c-0.39-0.229-0.844-0.362-1.327-0.362c-1.514,0-2.734,1.227-2.734,2.743C37.972,47.749,38.024,48.075,38.142,48.366 M41.018,33.704
	c0.299,1.067,1.275,1.871,2.45,1.871c0.248,0,0.49-0.043,0.725-0.098c0.741,1.094,1.392,2.206,1.934,3.309
	c-2.302,0.82-5.304,1.667-8.93,2.417c0.126-0.485,0.248-0.962,0.373-1.438c0.065-0.291,0.135-0.591,0.208-0.891
	c0.768-0.026,1.401-0.68,1.401-1.455c0-0.574-0.33-1.068-0.798-1.314c0.147-0.783,0.299-1.562,0.408-2.312
	C39.552,33.739,40.302,33.722,41.018,33.704 M42.679,22.324c-0.529-0.054-1.059-0.089-1.618-0.089c-0.603,0-1.206,0.035-1.839,0.098
	c-0.104-0.697-0.248-1.314-0.416-1.844C40.177,20.966,41.479,21.573,42.679,22.324 M41.248,31.808
	c-0.187,0.35-0.303,0.731-0.321,1.164c-0.698,0.044-1.375,0.088-2.056,0.142c0.174-1.12,0.3-2.223,0.404-3.273
	c0.351,0.313,0.701,0.635,1.037,0.979C40.632,31.155,40.936,31.472,41.248,31.808 M48.148,27.44
	c0.772,1.402,0.928,3.379,0.512,5.594c-0.827-0.098-1.726-0.159-2.68-0.186c-0.104-1.314-1.184-2.338-2.521-2.338
	c-0.294,0-0.581,0.044-0.841,0.15c-0.325-0.362-0.664-0.716-1.01-1.06c-0.709-0.706-1.448-1.358-2.178-1.967
	c0.07-1.482,0.044-2.832-0.052-4.021c3.24-0.117,6.011,0.703,7.69,2.45C47.446,26.515,47.81,26.982,48.148,27.44 M50.144,34.604
	c0.827,0.291,1.302,0.617,1.362,0.943c0,0.027,0.009,0.053,0.009,0.071c0,0.458-0.811,1.128-2.355,1.905
	C49.575,36.545,49.914,35.565,50.144,34.604 M50.56,31.94c0.195,0.511,0.358,1.05,0.507,1.588c-0.208-0.08-0.425-0.15-0.655-0.194
	C50.478,32.875,50.529,32.407,50.56,31.94 M53.212,35.372v-0.009c-0.006-0.027-0.015-0.044-0.015-0.071
	c-0.572-3.591-2.064-6.872-4.23-9.607c-0.09-0.132-0.181-0.246-0.285-0.379c-0.117-0.142-0.243-0.282-0.377-0.426
	c-3.839-4.382-9.463-7.152-15.727-7.152c-5.647,0-10.77,2.249-14.526,5.91c-0.104,0.082-0.208,0.187-0.312,0.274
	c-0.104,0.105-0.203,0.229-0.291,0.335c-3.57,3.749-5.76,8.805-5.76,14.371c0,4.958,1.744,9.502,4.628,13.092
	c0.06,0.062,0.112,0.142,0.165,0.221c0.086,0.106,0.178,0.203,0.264,0.3c3.839,4.448,9.508,7.27,15.823,7.27
	c5.595,0,10.676-2.205,14.421-5.796c0.143-0.133,0.287-0.256,0.421-0.397c0.126-0.123,0.26-0.267,0.369-0.415
	c3.517-3.731,5.677-8.751,5.677-14.273c0-1.085-0.087-2.17-0.245-3.22V35.372"/>
<path fill="#FFFFFF" d="M87.814,57.667h-3.632l-2.807-11.313h-0.072l-2.75,11.313H74.85L70.467,41h3.631l2.604,11.314h0.073
	L79.654,41h3.429l2.807,11.459h0.072L88.711,41h3.573L87.814,57.667L87.814,57.667z M91.59,49.305
	c0.202-3.083,2.951-4.051,5.686-4.051c2.402,0,5.281,0.551,5.281,3.428v6.308c0,1.101,0.13,2.201,0.405,2.678h-3.357
	c-0.13-0.347-0.202-0.753-0.202-1.171C98.375,57.594,96.871,58,95.352,58c-2.33,0-4.109-1.171-4.109-3.631
	c0.072-5.484,8.16-2.533,8.029-5.209c0-1.376-0.955-1.649-2.126-1.649c-1.303,0-2.055,0.477-2.2,1.851H91.59V49.305L91.59,49.305z
	 M99.2,51.765c-0.55,0.478-1.722,0.478-2.75,0.681c-1.027,0.201-1.982,0.549-1.982,1.777c0,1.23,0.955,1.507,2.055,1.507
	c2.604,0,2.677-2.055,2.677-2.751V51.765z M108.532,45.602h2.401v2.197h-2.401v5.961c0,1.1,0.275,1.377,1.374,1.377
	c0.347,0,0.752,0,1.027-0.073v2.604c-0.549,0.073-1.302,0.13-1.925,0.13c-2.054,0-3.776-0.403-3.776-2.878v-7.061h-1.982v-2.2h1.982
	v-3.632h3.299V45.602L108.532,45.602z M115.042,53.76c0,1.447,1.23,2.057,2.532,2.057c0.954,0,2.199-0.348,2.199-1.506
	c0-1.028-1.375-1.375-3.776-1.852c-1.924-0.406-3.834-1.101-3.834-3.228c0-3.08,2.677-3.834,5.209-3.834
	c2.604,0,5.078,0.897,5.353,3.834h-3.154c-0.072-1.3-1.1-1.649-2.256-1.649c-0.753,0-1.853,0.132-1.853,1.1
	c0,1.174,1.924,1.375,3.776,1.78c1.924,0.406,3.833,1.171,3.833,3.357c0,3.154-2.749,4.181-5.482,4.181
	c-2.807,0-5.556-1.026-5.686-4.254L115.042,53.76L115.042,53.76z M130.263,45.254c3.776,0,6.236,2.53,6.236,6.379
	c0,3.836-2.474,6.309-6.236,6.309c-3.776,0-6.236-2.531-6.236-6.309C124.027,47.784,126.501,45.254,130.263,45.254z M130.263,55.469
	c2.257,0,2.951-1.926,2.951-3.836c0-1.924-0.68-3.834-2.951-3.834c-2.257,0-2.879,1.926-2.879,3.834
	C127.384,53.559,128.006,55.469,130.263,55.469z M137.67,45.602h3.154v1.648h0.073c0.823-1.375,2.257-1.981,3.704-1.981
	c3.501,0,4.383,1.981,4.383,4.935v7.406h-3.298v-6.728c0-1.982-0.55-2.95-2.127-2.95c-1.78,0-2.532,1.026-2.532,3.427v6.309h-3.357
	V45.602L137.67,45.602z"/>
<path fill="#FFFFFF" d="M72.41,30.36c0.72,0,1.265,0.185,1.635,0.555S74.6,31.804,74.6,32.47c0,0.667-0.185,1.187-0.555,1.561
	c-0.37,0.373-0.915,0.557-1.635,0.55h-2.18v2.92h-0.95v-7.14H72.41z M72.09,33.78c0.54,0.007,0.935-0.104,1.185-0.33
	s0.375-0.554,0.375-0.98s-0.125-0.751-0.375-0.975S72.63,31.16,72.09,31.16h-1.86v2.62H72.09z"/>
<path fill="#FFFFFF" d="M75.5,33.855c0.106-0.33,0.267-0.617,0.48-0.86s0.477-0.436,0.79-0.575s0.673-0.21,1.08-0.21
	c0.413,0,0.775,0.07,1.085,0.21s0.571,0.332,0.785,0.575c0.213,0.243,0.373,0.53,0.48,0.86c0.106,0.329,0.16,0.685,0.16,1.064
	s-0.053,0.733-0.16,1.061c-0.107,0.326-0.267,0.611-0.48,0.854c-0.214,0.243-0.475,0.434-0.785,0.57s-0.672,0.205-1.085,0.205
	c-0.407,0-0.767-0.068-1.08-0.205s-0.577-0.327-0.79-0.57s-0.374-0.528-0.48-0.854c-0.107-0.327-0.16-0.681-0.16-1.061
	S75.393,34.185,75.5,33.855z M76.365,35.755c0.083,0.243,0.199,0.447,0.345,0.61s0.318,0.288,0.515,0.375
	c0.196,0.087,0.405,0.13,0.625,0.13c0.22,0,0.428-0.043,0.625-0.13c0.196-0.087,0.368-0.212,0.515-0.375
	c0.147-0.163,0.262-0.367,0.345-0.61s0.125-0.521,0.125-0.835s-0.042-0.592-0.125-0.835s-0.198-0.448-0.345-0.615
	c-0.146-0.166-0.318-0.293-0.515-0.38c-0.197-0.086-0.405-0.13-0.625-0.13c-0.22,0-0.429,0.044-0.625,0.13
	c-0.197,0.087-0.369,0.214-0.515,0.38c-0.146,0.167-0.262,0.372-0.345,0.615c-0.083,0.243-0.125,0.521-0.125,0.835
	S76.282,35.512,76.365,35.755z"/>
<path fill="#FFFFFF" d="M85.58,37.5l-1.05-4.11h-0.02l-1.04,4.11h-0.92l-1.66-5.17h0.94L83,36.56h0.02l1.04-4.229h0.93l1.08,4.229
	h0.02l1.16-4.229h0.88l-1.65,5.17H85.58z"/>
<path fill="#FFFFFF" d="M92.6,37.17c-0.387,0.294-0.873,0.44-1.46,0.44c-0.413,0-0.771-0.067-1.075-0.2
	c-0.304-0.134-0.559-0.32-0.765-0.561c-0.207-0.239-0.362-0.526-0.465-0.859c-0.104-0.334-0.162-0.697-0.175-1.09
	c0-0.394,0.06-0.754,0.18-1.08c0.12-0.327,0.288-0.61,0.505-0.851c0.217-0.239,0.473-0.427,0.77-0.56
	c0.296-0.134,0.622-0.2,0.975-0.2c0.46,0,0.841,0.095,1.145,0.285c0.303,0.189,0.546,0.432,0.73,0.725
	c0.183,0.294,0.31,0.613,0.38,0.96c0.07,0.347,0.098,0.677,0.085,0.99h-3.87c-0.006,0.227,0.02,0.441,0.08,0.646
	c0.06,0.203,0.157,0.383,0.29,0.54c0.133,0.156,0.303,0.281,0.51,0.375c0.207,0.093,0.45,0.14,0.73,0.14
	c0.36,0,0.655-0.083,0.885-0.25s0.382-0.42,0.455-0.76h0.84C93.236,36.44,92.986,36.877,92.6,37.17z M92.395,33.85
	c-0.077-0.18-0.18-0.335-0.31-0.465c-0.13-0.13-0.284-0.233-0.46-0.31c-0.177-0.077-0.372-0.115-0.585-0.115
	c-0.22,0-0.418,0.038-0.595,0.115c-0.177,0.076-0.329,0.182-0.455,0.314c-0.126,0.134-0.227,0.289-0.3,0.466
	c-0.074,0.176-0.117,0.364-0.13,0.564h2.97C92.517,34.22,92.471,34.03,92.395,33.85z"/>
<path fill="#FFFFFF" d="M95.08,32.33v1.09h0.02c0.207-0.42,0.46-0.729,0.76-0.93c0.3-0.2,0.68-0.294,1.14-0.28v0.9
	c-0.34,0-0.63,0.046-0.87,0.14c-0.24,0.094-0.434,0.23-0.58,0.41s-0.253,0.398-0.32,0.655c-0.067,0.256-0.1,0.552-0.1,0.885v2.3
	h-0.85v-5.17H95.08z"/>
<path fill="#FFFFFF" d="M101.12,37.17c-0.387,0.294-0.873,0.44-1.46,0.44c-0.413,0-0.771-0.067-1.075-0.2
	c-0.304-0.134-0.559-0.32-0.765-0.561c-0.207-0.239-0.362-0.526-0.465-0.859c-0.104-0.334-0.162-0.697-0.175-1.09
	c0-0.394,0.06-0.754,0.18-1.08c0.12-0.327,0.288-0.61,0.505-0.851c0.217-0.239,0.473-0.427,0.77-0.56
	c0.296-0.134,0.622-0.2,0.975-0.2c0.46,0,0.841,0.095,1.145,0.285c0.303,0.189,0.546,0.432,0.73,0.725
	c0.183,0.294,0.31,0.613,0.38,0.96c0.07,0.347,0.098,0.677,0.085,0.99h-3.87c-0.006,0.227,0.02,0.441,0.08,0.646
	c0.06,0.203,0.157,0.383,0.29,0.54c0.133,0.156,0.303,0.281,0.51,0.375c0.207,0.093,0.45,0.14,0.73,0.14
	c0.36,0,0.655-0.083,0.885-0.25s0.382-0.42,0.455-0.76h0.84C101.756,36.44,101.506,36.877,101.12,37.17z M100.915,33.85
	c-0.077-0.18-0.18-0.335-0.31-0.465c-0.13-0.13-0.284-0.233-0.46-0.31c-0.177-0.077-0.372-0.115-0.585-0.115
	c-0.22,0-0.418,0.038-0.595,0.115c-0.177,0.076-0.329,0.182-0.455,0.314c-0.126,0.134-0.227,0.289-0.3,0.466
	c-0.074,0.176-0.117,0.364-0.13,0.564h2.97C101.037,34.22,100.991,34.03,100.915,33.85z"/>
<path fill="#FFFFFF" d="M106.6,37.5v-0.7h-0.02c-0.14,0.287-0.36,0.493-0.66,0.62s-0.63,0.19-0.99,0.19
	c-0.4,0-0.749-0.074-1.045-0.221c-0.296-0.146-0.543-0.343-0.74-0.59c-0.197-0.246-0.345-0.533-0.445-0.859
	c-0.1-0.327-0.15-0.674-0.15-1.04c0-0.367,0.048-0.714,0.145-1.04c0.097-0.327,0.243-0.612,0.44-0.855s0.443-0.437,0.74-0.58
	c0.296-0.144,0.642-0.215,1.035-0.215c0.133,0,0.276,0.014,0.43,0.04s0.307,0.071,0.46,0.135s0.298,0.146,0.435,0.25
	s0.251,0.232,0.345,0.385h0.02V30.36h0.85v7.14H106.6z M103.544,35.665c0.063,0.229,0.16,0.435,0.29,0.615
	c0.13,0.18,0.296,0.323,0.5,0.43c0.203,0.106,0.441,0.16,0.715,0.16c0.287,0,0.53-0.057,0.73-0.17c0.2-0.113,0.363-0.262,0.49-0.445
	c0.126-0.184,0.218-0.392,0.275-0.625s0.085-0.47,0.085-0.71c0-0.253-0.03-0.498-0.09-0.735c-0.06-0.236-0.155-0.444-0.285-0.625
	c-0.13-0.18-0.298-0.324-0.505-0.435s-0.457-0.165-0.75-0.165c-0.287,0-0.53,0.057-0.73,0.17c-0.2,0.113-0.36,0.264-0.48,0.45
	s-0.207,0.4-0.26,0.64c-0.053,0.24-0.08,0.487-0.08,0.74C103.449,35.2,103.481,35.435,103.544,35.665z"/>
<path fill="#FFFFFF" d="M112.419,30.36v2.67h0.02c0.14-0.287,0.36-0.495,0.66-0.625c0.3-0.13,0.63-0.195,0.99-0.195
	c0.4,0,0.749,0.073,1.045,0.22c0.297,0.147,0.543,0.346,0.74,0.596c0.196,0.25,0.345,0.538,0.445,0.864
	c0.1,0.327,0.15,0.674,0.15,1.04c0,0.367-0.048,0.714-0.145,1.04c-0.097,0.327-0.243,0.612-0.44,0.855s-0.443,0.435-0.74,0.575
	c-0.297,0.14-0.642,0.21-1.035,0.21c-0.126,0-0.269-0.014-0.425-0.04c-0.157-0.027-0.312-0.07-0.465-0.13
	c-0.153-0.061-0.298-0.142-0.435-0.245s-0.251-0.231-0.345-0.386h-0.02v0.69h-0.85v-7.14H112.419z M115.475,34.165
	c-0.063-0.23-0.16-0.435-0.29-0.615c-0.13-0.18-0.297-0.323-0.5-0.43c-0.204-0.106-0.442-0.16-0.715-0.16
	c-0.287,0-0.53,0.057-0.73,0.17c-0.2,0.113-0.363,0.262-0.49,0.445c-0.127,0.184-0.219,0.392-0.275,0.625
	c-0.057,0.233-0.085,0.47-0.085,0.71c0,0.253,0.03,0.498,0.09,0.734c0.06,0.237,0.155,0.445,0.285,0.625
	c0.13,0.181,0.298,0.325,0.505,0.436c0.207,0.11,0.457,0.165,0.75,0.165c0.293,0,0.538-0.057,0.735-0.17s0.355-0.264,0.475-0.45
	s0.207-0.4,0.26-0.64c0.053-0.24,0.08-0.487,0.08-0.74C115.569,34.63,115.538,34.395,115.475,34.165z"/>
<path fill="#FFFFFF" d="M119.499,38.19c-0.1,0.253-0.198,0.466-0.295,0.64c-0.097,0.173-0.204,0.314-0.32,0.425
	c-0.117,0.11-0.247,0.19-0.39,0.24c-0.144,0.05-0.309,0.075-0.495,0.075c-0.1,0-0.2-0.007-0.3-0.021s-0.197-0.036-0.29-0.069V38.7
	c0.073,0.033,0.158,0.062,0.255,0.085s0.178,0.035,0.245,0.035c0.173,0,0.318-0.042,0.435-0.125
	c0.116-0.084,0.205-0.202,0.265-0.355l0.35-0.87l-2.05-5.14h0.96l1.51,4.229h0.02l1.45-4.229h0.9L119.499,38.19z"/>
<path fill="#FFFFFF" d="M71.217,8.506V23.5h-1.995V8.506H71.217z"/>
<path fill="#FFFFFF" d="M80.016,8.506c0.322,0,0.668,0.004,1.04,0.011c0.371,0.007,0.738,0.028,1.103,0.063
	c0.364,0.035,0.703,0.087,1.018,0.156c0.315,0.07,0.584,0.176,0.809,0.315c0.49,0.294,0.906,0.7,1.25,1.218
	c0.343,0.519,0.515,1.155,0.515,1.911c0,0.798-0.193,1.488-0.578,2.068c-0.385,0.582-0.935,1.012-1.648,1.292v0.042
	c0.924,0.196,1.631,0.616,2.121,1.26c0.49,0.645,0.735,1.429,0.735,2.353c0,0.546-0.098,1.078-0.294,1.596
	c-0.196,0.519-0.487,0.977-0.872,1.375c-0.385,0.399-0.861,0.722-1.428,0.967c-0.567,0.245-1.222,0.367-1.964,0.367h-7.245V8.506
	H80.016z M80.562,14.953c1.134,0,1.949-0.199,2.446-0.599s0.746-0.997,0.746-1.796c0-0.531-0.084-0.951-0.252-1.26
	c-0.168-0.308-0.399-0.546-0.693-0.714s-0.634-0.276-1.019-0.325c-0.385-0.049-0.795-0.074-1.229-0.074h-3.99v4.768H80.562z
	 M81.57,21.82c0.882,0,1.571-0.238,2.069-0.714c0.497-0.477,0.745-1.135,0.745-1.975c0-0.489-0.091-0.896-0.273-1.218
	s-0.423-0.577-0.725-0.767c-0.301-0.188-0.647-0.322-1.039-0.399c-0.392-0.076-0.798-0.115-1.218-0.115h-4.557v5.188H81.57z"/>
<path fill="#FFFFFF" d="M91.734,8.506l4.725,12.601l4.746-12.601h2.73V23.5h-1.89V11.025h-0.042L97.32,23.5h-1.701l-4.683-12.475
	h-0.042V23.5h-1.89V8.506H91.734z"/>
<path fill="#FFFFFF" d="M114.469,19.804c0.182,0.351,0.423,0.634,0.724,0.851c0.301,0.218,0.654,0.378,1.061,0.483
	c0.406,0.104,0.826,0.157,1.26,0.157c0.294,0,0.609-0.024,0.945-0.073s0.651-0.144,0.945-0.283c0.294-0.141,0.539-0.333,0.735-0.578
	c0.196-0.245,0.294-0.557,0.294-0.935c0-0.405-0.13-0.734-0.389-0.986c-0.259-0.253-0.599-0.463-1.019-0.631
	s-0.896-0.314-1.428-0.44c-0.532-0.126-1.071-0.266-1.617-0.42c-0.56-0.14-1.106-0.312-1.638-0.515s-1.008-0.466-1.428-0.787
	c-0.42-0.322-0.76-0.725-1.019-1.208c-0.259-0.483-0.389-1.067-0.389-1.754c0-0.77,0.165-1.438,0.494-2.005
	c0.329-0.567,0.759-1.04,1.292-1.418c0.532-0.378,1.134-0.657,1.806-0.84c0.672-0.182,1.344-0.272,2.016-0.272
	c0.784,0,1.536,0.087,2.257,0.262c0.721,0.176,1.361,0.459,1.921,0.851c0.56,0.393,1.004,0.893,1.333,1.502
	c0.329,0.608,0.494,1.348,0.494,2.215h-3.192c-0.028-0.447-0.123-0.818-0.284-1.112c-0.161-0.294-0.375-0.525-0.641-0.693
	s-0.57-0.287-0.914-0.356c-0.343-0.07-0.717-0.105-1.124-0.105c-0.266,0-0.532,0.028-0.798,0.084
	c-0.266,0.057-0.507,0.154-0.725,0.294c-0.217,0.141-0.396,0.315-0.535,0.525c-0.14,0.21-0.21,0.476-0.21,0.798
	c0,0.294,0.056,0.532,0.168,0.714c0.112,0.183,0.332,0.351,0.661,0.504c0.329,0.154,0.784,0.309,1.365,0.462
	c0.581,0.154,1.34,0.351,2.278,0.588c0.28,0.057,0.668,0.158,1.166,0.305c0.497,0.147,0.99,0.382,1.48,0.704
	c0.49,0.321,0.914,0.752,1.271,1.291s0.536,1.229,0.536,2.068c0,0.687-0.133,1.323-0.399,1.911
	c-0.266,0.588-0.662,1.096-1.187,1.522c-0.525,0.428-1.176,0.76-1.953,0.997c-0.777,0.238-1.677,0.357-2.698,0.357
	c-0.826,0-1.627-0.102-2.405-0.305c-0.777-0.202-1.463-0.521-2.058-0.955s-1.067-0.987-1.417-1.659s-0.518-1.47-0.504-2.394h3.192
	C114.196,19.027,114.287,19.454,114.469,19.804z"/>
<path fill="#FFFFFF" d="M132.613,23.5v-1.512h-0.063c-0.378,0.63-0.868,1.085-1.47,1.364c-0.602,0.28-1.218,0.421-1.848,0.421
	c-0.798,0-1.453-0.105-1.963-0.315c-0.511-0.21-0.914-0.507-1.208-0.893c-0.294-0.385-0.501-0.854-0.62-1.407
	c-0.119-0.553-0.179-1.165-0.179-1.837v-6.679h2.982v6.133c0,0.896,0.14,1.564,0.42,2.005c0.28,0.441,0.777,0.662,1.491,0.662
	c0.812,0,1.4-0.242,1.764-0.725c0.364-0.483,0.546-1.277,0.546-2.384v-5.691h2.982V23.5H132.613z"/>
<path fill="#FFFFFF" d="M140.551,12.643v1.387h0.042c0.364-0.588,0.826-1.016,1.386-1.281c0.56-0.266,1.176-0.399,1.848-0.399
	c0.854,0,1.589,0.161,2.205,0.483c0.616,0.322,1.126,0.749,1.533,1.281c0.406,0.532,0.707,1.151,0.903,1.858
	c0.196,0.707,0.294,1.445,0.294,2.215c0,0.729-0.098,1.429-0.294,2.101c-0.196,0.672-0.494,1.268-0.893,1.785
	s-0.896,0.931-1.491,1.238c-0.595,0.309-1.292,0.463-2.089,0.463c-0.672,0-1.292-0.137-1.858-0.41
	c-0.567-0.272-1.033-0.675-1.396-1.207h-0.042v5.145h-2.982V12.643H140.551z M144.425,21.253c0.329-0.196,0.595-0.451,0.798-0.767
	c0.203-0.314,0.346-0.683,0.43-1.103s0.126-0.847,0.126-1.281c0-0.434-0.046-0.86-0.137-1.28c-0.091-0.42-0.242-0.795-0.452-1.124
	c-0.21-0.328-0.479-0.595-0.809-0.798s-0.731-0.305-1.207-0.305c-0.49,0-0.9,0.102-1.229,0.305
	c-0.329,0.203-0.595,0.466-0.798,0.788c-0.203,0.321-0.346,0.692-0.43,1.112s-0.126,0.854-0.126,1.302
	c0,0.435,0.045,0.861,0.136,1.281c0.091,0.42,0.238,0.788,0.441,1.103c0.203,0.315,0.473,0.57,0.809,0.767s0.742,0.294,1.218,0.294
	C143.687,21.547,144.096,21.449,144.425,21.253z"/>
<path fill="#FFFFFF" d="M153.381,12.643v1.387h0.042c0.364-0.588,0.826-1.016,1.386-1.281c0.56-0.266,1.176-0.399,1.848-0.399
	c0.854,0,1.589,0.161,2.205,0.483c0.616,0.322,1.126,0.749,1.533,1.281c0.406,0.532,0.707,1.151,0.903,1.858
	c0.196,0.707,0.294,1.445,0.294,2.215c0,0.729-0.098,1.429-0.294,2.101c-0.196,0.672-0.494,1.268-0.893,1.785
	s-0.896,0.931-1.491,1.238c-0.595,0.309-1.292,0.463-2.089,0.463c-0.672,0-1.292-0.137-1.858-0.41
	c-0.567-0.272-1.033-0.675-1.396-1.207h-0.042v5.145h-2.982V12.643H153.381z M157.255,21.253c0.329-0.196,0.595-0.451,0.798-0.767
	c0.203-0.314,0.346-0.683,0.43-1.103s0.126-0.847,0.126-1.281c0-0.434-0.046-0.86-0.137-1.28c-0.091-0.42-0.242-0.795-0.452-1.124
	c-0.21-0.328-0.479-0.595-0.809-0.798s-0.731-0.305-1.207-0.305c-0.49,0-0.9,0.102-1.229,0.305
	c-0.329,0.203-0.595,0.466-0.798,0.788c-0.203,0.321-0.346,0.692-0.43,1.112s-0.126,0.854-0.126,1.302
	c0,0.435,0.045,0.861,0.136,1.281c0.091,0.42,0.238,0.788,0.441,1.103c0.203,0.315,0.473,0.57,0.809,0.767s0.742,0.294,1.218,0.294
	C156.517,21.547,156.926,21.449,157.255,21.253z"/>
<path fill="#FFFFFF" d="M163.44,15.72c0.266-0.707,0.644-1.31,1.134-1.807c0.49-0.496,1.078-0.882,1.764-1.154
	c0.686-0.273,1.456-0.41,2.31-0.41s1.628,0.137,2.321,0.41c0.693,0.272,1.284,0.658,1.774,1.154c0.49,0.497,0.868,1.1,1.134,1.807
	s0.399,1.494,0.399,2.362s-0.133,1.652-0.399,2.352c-0.266,0.7-0.644,1.299-1.134,1.796c-0.49,0.497-1.082,0.879-1.774,1.145
	s-1.467,0.399-2.321,0.399s-1.624-0.134-2.31-0.399c-0.687-0.266-1.274-0.647-1.764-1.145c-0.49-0.497-0.868-1.096-1.134-1.796
	c-0.266-0.699-0.399-1.483-0.399-2.352S163.174,16.427,163.44,15.72z M166.149,19.353c0.084,0.413,0.228,0.784,0.431,1.113
	c0.203,0.329,0.473,0.591,0.809,0.787s0.756,0.294,1.26,0.294c0.504,0,0.928-0.098,1.271-0.294c0.343-0.196,0.616-0.458,0.819-0.787
	c0.203-0.329,0.346-0.7,0.43-1.113s0.126-0.837,0.126-1.271s-0.042-0.861-0.126-1.281s-0.228-0.791-0.43-1.112
	c-0.203-0.322-0.476-0.585-0.819-0.788c-0.343-0.203-0.766-0.305-1.271-0.305c-0.504,0-0.924,0.102-1.26,0.305
	s-0.606,0.466-0.809,0.788c-0.203,0.321-0.346,0.692-0.431,1.112c-0.084,0.42-0.126,0.848-0.126,1.281
	S166.065,18.939,166.149,19.353z"/>
<path fill="#FFFFFF" d="M179.043,12.643v2.017h0.042c0.14-0.336,0.329-0.647,0.567-0.935c0.238-0.287,0.511-0.532,0.819-0.735
	c0.308-0.202,0.637-0.36,0.987-0.473c0.35-0.111,0.714-0.168,1.092-0.168c0.196,0,0.413,0.035,0.651,0.105v2.771
	c-0.14-0.027-0.308-0.052-0.504-0.073c-0.196-0.021-0.385-0.031-0.567-0.031c-0.546,0-1.008,0.091-1.386,0.272
	c-0.378,0.183-0.683,0.431-0.914,0.746c-0.231,0.314-0.396,0.683-0.493,1.103c-0.098,0.42-0.147,0.875-0.147,1.365V23.5h-2.982
	V12.643H179.043z"/>
<path fill="#FFFFFF" d="M190.341,12.643v1.995h-2.184v5.376c0,0.504,0.084,0.84,0.252,1.009c0.168,0.168,0.504,0.252,1.008,0.252
	c0.168,0,0.329-0.007,0.483-0.021c0.154-0.014,0.301-0.035,0.441-0.062v2.31c-0.252,0.042-0.532,0.07-0.84,0.084
	s-0.609,0.021-0.903,0.021c-0.462,0-0.9-0.032-1.312-0.095c-0.413-0.063-0.777-0.186-1.092-0.368
	c-0.315-0.182-0.564-0.44-0.746-0.776c-0.182-0.336-0.273-0.777-0.273-1.323v-6.405h-1.806v-1.995h1.806V9.388h2.982v3.255H190.341z
	"/>
</svg>
