<?xml version="1.0" encoding="utf-8"?>
<!-- Generator: Adobe Illustrator 14.0.0, SVG Export Plug-In  -->
<!DOCTYPE svg PUBLIC "-//W3C//DTD SVG 1.1//EN" "http://www.w3.org/Graphics/SVG/1.1/DTD/svg11.dtd" [
	<!ENTITY ns_flows "http://ns.adobe.com/Flows/1.0/">
]>
<svg version="1.1"
	 xmlns="http://www.w3.org/2000/svg" xmlns:xlink="http://www.w3.org/1999/xlink" xmlns:a="http://ns.adobe.com/AdobeSVGViewerExtensions/3.0/"
	 x="0px" y="0px" width="238px" height="50px" viewBox="-8 -2 238 50" enable-background="new -8 -2 238 50" xml:space="preserve">
<defs>
</defs>
<path fill="#FFFFFF" d="M26.8,18.9v-6v-1C26.8,5.3,21.5,0,14.9,0C8.3,0,3,5.3,3,11.9v1v6H0c0,2.8,2.2,5,5,5h19.9c2.7,0,5-2.2,5-5
	H26.8z M4,18.9v-6h21.9v6H4z"/>
<path fill="#FFFFFF" d="M29.5,28.5c-0.1-0.3-0.1-0.6-0.2-0.9v0c-0.6-2.8-2-5.2-4-7.1c-0.6-0.6-1.2-1.1-1.8-1.5h-2.4
	c0.4,0.2,0.7,0.4,1.1,0.6c-0.4-0.1-0.8-0.1-1.2-0.1c-0.4,0-0.8,0-1.3,0.1c0-0.2-0.1-0.4-0.1-0.6H19c0.1,0.2,0.1,0.4,0.1,0.7
	c-0.6,0.1-1.2,0.3-1.8,0.4c0.3-0.4,0.5-0.8,0.7-1.2h-1.5c-0.3,0.5-0.7,1.1-1,1.7c-0.4,0.2-0.7,0.3-1.1,0.4c-2.4-1.1-4.8-1.6-6.8-1.3
	c0.5-0.3,0.9-0.6,1.5-0.8H6.8c-0.9,0.6-1.8,1.4-2.5,2.2c-0.1,0.1-0.2,0.2-0.3,0.3L4,21.4c-2.1,2.5-3.4,5.8-3.4,9.3
	c0,0.5,0,1,0.1,1.5c0,0.2,0.1,0.5,0.1,0.7v0.1h0c0.4,2.5,1.4,4.8,2.9,6.7C3.8,39.9,3.9,40,4,40.1l0,0c2.7,3.2,6.7,5.3,11.2,5.3
	c3.6,0,6.9-1.3,9.5-3.5l0.9-0.8c2.6-2.6,4.2-6.3,4.2-10.3c0-0.7-0.1-1.5-0.2-2.2C29.6,28.5,29.5,28.5,29.5,28.5z M26.7,24.2
	c0.6,1,1,2,1.3,3.1c-0.4-0.2-1-0.3-1.5-0.3C26.7,26,26.8,25,26.7,24.2z M26.3,27.8c0.7,0.2,1.2,0.3,1.6,0.5
	c-0.4,0.3-1.1,0.8-2.1,1.2C25.9,28.9,26.1,28.3,26.3,27.8z M19.9,20.4c2.1-0.1,3.9,0.4,5.1,1.5c0.7,1.2,0.8,3,0.3,5
	c-1-0.1-2.2-0.1-3.3,0c-0.4-0.5-0.9-1-1.4-1.5c-0.3-0.2-0.5-0.5-0.8-0.7C19.9,23,20,21.6,19.9,20.4z M12.8,39.2
	c-0.2-0.1-0.4-0.2-0.6-0.4c0.1-1.6,0.4-3.4,0.7-5.2c1.2-0.2,2.2-0.3,2.7-0.4c0.4-0.1,1.2-0.2,2.1-0.4c-0.5,1.7-1.1,3.5-1.8,5
	C14.9,38.5,13.8,38.9,12.8,39.2z M15.2,39.7c-0.1,0.2-0.2,0.5-0.3,0.7c-0.2-0.1-0.4-0.2-0.6-0.3C14.5,39.9,14.9,39.8,15.2,39.7z
	 M18.3,30.9c-0.1,0.3-0.1,0.5-0.2,0.7c-0.9,0.2-1.8,0.4-2.8,0.5c-0.7,0.1-1.4,0.2-2.1,0.3c0.2-0.8,0.3-1.6,0.5-2.4
	c0.2-0.7,0.3-1.3,0.5-2c0.2,0,0.4-0.1,0.6-0.1c0.5-0.1,0.9-0.2,1.4-0.2c0.1,0.3,0.4,0.5,0.7,0.5c0.4,0,0.7-0.3,0.8-0.7
	c0.4-0.1,0.8-0.1,1.2-0.1c-0.1,0.5-0.2,1-0.2,1.5c-0.5,0.1-0.9,0.5-0.9,1C17.7,30.4,17.9,30.8,18.3,30.9z M18.3,32.8
	c1.4-0.3,3.1-0.7,4.8-1.2c-0.9,1.4-2.1,2.8-3.6,4c-0.8,0.7-1.7,1.3-2.7,1.8C17.4,36,17.8,34.5,18.3,32.8z M25.1,27.6
	c-0.2,0.7-0.6,1.5-0.9,2.3c-0.5-0.8-1.1-1.6-1.7-2.5C23.4,27.4,24.3,27.5,25.1,27.6z M19.6,26.2C19.7,26.2,19.7,26.2,19.6,26.2
	c0.3,0.3,0.5,0.5,0.7,0.7c-0.3,0-0.6,0.1-0.8,0.1C19.6,26.7,19.6,26.5,19.6,26.2z M20.8,27.4c0.8,1,1.6,2,2.2,3
	c-1.2,0.4-2.7,0.7-4.3,1.1c0.1-0.2,0.1-0.3,0.1-0.5c0.5,0,1-0.5,1-1c0-0.4-0.2-0.7-0.6-0.9c0.1-0.6,0.2-1.1,0.3-1.6
	C19.9,27.5,20.4,27.4,20.8,27.4z M16.9,20.8c0.8-0.2,1.6-0.3,2.3-0.4c0.1,1,0.1,2.3,0,3.7c-0.9-0.8-1.9-1.5-2.9-2
	C16.5,21.6,16.7,21.2,16.9,20.8z M15.9,23.2c1.1,0.7,2.2,1.5,3.2,2.5c-0.1,0.5-0.1,0.9-0.2,1.4c-0.4,0-0.8,0.1-1.2,0.1
	c-0.1-0.3-0.4-0.5-0.7-0.5c-0.4,0-0.7,0.3-0.8,0.7c-0.8,0.1-1.4,0.2-1.5,0.2c-0.1,0-0.2,0-0.3,0.1C14.8,26.1,15.3,24.6,15.9,23.2z
	 M14.7,22.5c-0.6,1.5-1.3,3.3-1.8,5.3c-1.9,0.4-4.9,1-7.4,1.8c0.7-1.3,1.6-2.5,2.7-3.7c0.2,0.1,0.4,0.2,0.6,0.2c0.6,0,1-0.5,1-1
	c0-0.2-0.1-0.4-0.2-0.5c0.1-0.1,0.2-0.2,0.2-0.2c1.2-1,2.5-1.8,3.8-2.5C14,22.2,14.4,22.4,14.7,22.5z M5.4,21.8
	c1.8-1.3,4.7-1.2,7.7,0.1c-1.2,0.7-2.4,1.4-3.5,2.4c-0.1,0.1-0.2,0.2-0.3,0.3c-0.2-0.1-0.4-0.2-0.6-0.2c-0.6,0-1,0.5-1,1
	c0,0.2,0.1,0.4,0.2,0.5c-1.2,1.2-2.2,2.5-3,3.8C3.8,26.4,4,23.5,5.4,21.8z M5.8,32.9c-0.6,0-1.1-0.1-1.6-0.1
	c0.2-0.5,0.3-1.1,0.6-1.6C5.1,31.7,5.4,32.3,5.8,32.9z M1.8,30.8c0-2.1,0.5-4.1,1.4-5.9c0,1.6,0.4,3.4,1.2,5.3
	c-1,0.4-1.9,0.8-2.5,1.3C1.8,31.2,1.8,31,1.8,30.8z M2.7,35.6c-0.3-0.7-0.5-1.3-0.6-2c0.3,0.1,0.6,0.2,0.9,0.3
	C2.8,34.5,2.7,35,2.7,35.6z M3.4,32.6c-0.5-0.1-0.9-0.2-1.1-0.3C2.6,32,3.1,31.6,4,31.1C3.8,31.6,3.6,32.1,3.4,32.6z M4.2,38.3
	c-0.5-1.2-0.6-2.6-0.3-4.2c0.8,0.1,1.8,0.2,2.7,0.2c0.4,0.6,0.9,1.2,1.4,1.7c-0.1,0.2-0.2,0.4-0.2,0.6c0,0.6,0.5,1,1,1
	c0.2,0,0.4-0.1,0.6-0.2c0.5,0.5,1,0.9,1.6,1.4c0,0.4-0.1,0.7-0.1,1.1C7.8,40.3,5.2,39.8,4.2,38.3z M6.4,40.9
	c1.3,0.3,2.9,0.4,4.5,0.1c0.1,1.2,0.2,2,0.5,2.6C9.6,43.1,7.8,42.1,6.4,40.9z M11,38c-0.4-0.3-0.9-0.7-1.3-1.1
	c0.1-0.2,0.2-0.3,0.2-0.5c0-0.6-0.5-1-1-1c-0.2,0-0.3,0.1-0.5,0.1C8,35,7.6,34.6,7.3,34.1c1.5-0.1,3-0.2,4.3-0.3
	C11.3,35.4,11.1,36.8,11,38z M6.4,32.9c-0.5-0.8-0.9-1.6-1.2-2.3c1.9-0.8,4.4-1.6,7.5-2.2c-0.1,0.5-0.3,1-0.4,1.6
	c-0.2,0.9-0.4,1.8-0.6,2.7C9.7,32.8,7.9,32.9,6.4,32.9z M12.7,43.6c-0.4-0.5-0.5-1.5-0.6-2.9c0.4-0.1,0.8-0.2,1.3-0.4
	c0.4,0.2,0.7,0.4,1.1,0.6C13.9,42.2,13.2,43.2,12.7,43.6z M15.2,44.2c-0.6,0-1.2-0.1-1.8-0.2c0.6-0.6,1.2-1.5,1.8-2.7
	c1.9,0.9,3.9,1.4,5.6,1.5c0.1,0,0.2,0,0.4,0C19.3,43.6,17.3,44.2,15.2,44.2z M24.1,40.6c-2,1.4-5.3,1.4-8.7,0c0.2-0.5,0.4-1,0.7-1.5
	c1.4-0.7,2.8-1.6,4.1-2.7c1.5-1.3,2.8-2.7,3.8-4.1C25.5,35.7,25.6,38.8,24.1,40.6z M26.3,38.2c0.2-2.1-0.3-4.5-1.5-7
	c0-0.1,0.1-0.1,0.1-0.2c1.4-0.5,2.7-1.1,3.5-1.7c0.1,0.5,0.1,1,0.1,1.5C28.5,33.5,27.7,36,26.3,38.2z"/>
<path fill="#FFFFFF" d="M15.1,21.4C15.2,21.4,15.2,21.4,15.1,21.4C15.2,21.4,15.2,21.4,15.1,21.4C15.2,21.4,15.2,21.4,15.1,21.4z"/>
<path fill="#FFFFFF" d="M50.6,11.6l8.2,20.9h-3.1l-2.3-6.3h-8.8l-2.3,6.3h-2.8l8.1-20.9H50.6z M52.5,23.9l-3.5-9.7H49l-3.5,9.7H52.5
	z"/>
<path fill="#FFFFFF" d="M71.7,36.8c-1.1,1.2-2.9,1.8-5.3,1.8c-0.7,0-1.4-0.1-2.1-0.2s-1.4-0.4-2-0.8c-0.6-0.4-1.1-0.8-1.5-1.4
	c-0.4-0.6-0.6-1.3-0.6-2.1h2.5c0,0.5,0.2,0.8,0.4,1.2c0.3,0.3,0.6,0.6,1,0.8s0.8,0.3,1.3,0.4c0.5,0.1,0.9,0.1,1.3,0.1
	c0.8,0,1.5-0.2,2.1-0.4c0.6-0.3,1-0.7,1.4-1.2c0.4-0.5,0.6-1.1,0.8-1.8s0.3-1.5,0.3-2.3v-1H71c-0.4,0.9-1.1,1.6-1.9,2.1
	c-0.9,0.4-1.8,0.7-2.8,0.7c-1.1,0-2.1-0.2-2.9-0.6c-0.8-0.4-1.5-1-2.1-1.7c-0.6-0.7-1-1.5-1.3-2.4c-0.3-0.9-0.4-1.9-0.4-2.9
	c0-0.9,0.1-1.8,0.4-2.8c0.2-0.9,0.6-1.8,1.2-2.6c0.5-0.8,1.3-1.4,2.2-1.9c0.9-0.5,2-0.7,3.3-0.7c0.9,0,1.8,0.2,2.6,0.6
	c0.8,0.4,1.4,1,1.9,1.9h0v-2.2h2.3v13.8C73.4,33.7,72.9,35.5,71.7,36.8z M68.6,30c0.6-0.3,1-0.8,1.4-1.4c0.4-0.6,0.6-1.2,0.8-1.9
	c0.2-0.7,0.3-1.4,0.3-2.1c0-0.7-0.1-1.3-0.2-2c-0.2-0.6-0.4-1.2-0.7-1.7s-0.8-0.9-1.3-1.3c-0.5-0.3-1.2-0.5-2-0.5s-1.5,0.2-2,0.5
	c-0.6,0.3-1,0.7-1.4,1.2c-0.4,0.5-0.6,1.1-0.8,1.8c-0.2,0.7-0.3,1.4-0.3,2.1c0,0.7,0.1,1.4,0.2,2s0.4,1.3,0.7,1.9
	c0.3,0.6,0.8,1,1.3,1.4c0.5,0.3,1.2,0.5,2,0.5C67.3,30.5,68,30.3,68.6,30z"/>
<path fill="#FFFFFF" d="M87.8,31.5c-1.1,0.9-2.6,1.3-4.3,1.3c-1.2,0-2.2-0.2-3.1-0.6c-0.9-0.4-1.6-0.9-2.2-1.6
	c-0.6-0.7-1-1.5-1.4-2.5c-0.3-1-0.5-2-0.5-3.2c0-1.1,0.2-2.2,0.5-3.1c0.4-0.9,0.8-1.8,1.5-2.5c0.6-0.7,1.4-1.3,2.2-1.6
	c0.9-0.4,1.8-0.6,2.8-0.6c1.4,0,2.5,0.3,3.3,0.8c0.9,0.6,1.6,1.3,2.1,2.1c0.5,0.9,0.9,1.8,1.1,2.8s0.3,2,0.3,2.9H79
	c0,0.7,0.1,1.3,0.2,1.9c0.2,0.6,0.5,1.1,0.8,1.6c0.4,0.5,0.9,0.8,1.5,1.1c0.6,0.3,1.3,0.4,2.1,0.4c1,0,1.9-0.3,2.6-0.7
	c0.7-0.5,1.1-1.2,1.3-2.2H90C89.7,29.4,89,30.7,87.8,31.5z M87.3,21.8c-0.2-0.5-0.5-1-0.9-1.4c-0.4-0.4-0.8-0.7-1.4-0.9
	c-0.5-0.2-1.1-0.3-1.7-0.3s-1.2,0.1-1.7,0.3c-0.5,0.2-1,0.5-1.3,0.9s-0.7,0.8-0.9,1.4S79,22.9,79,23.5h8.7
	C87.6,22.9,87.5,22.3,87.3,21.8z"/>
<path fill="#FFFFFF" d="M95.2,17.4v2.4h0.1c1-1.8,2.7-2.7,4.9-2.7c1,0,1.8,0.1,2.5,0.4c0.7,0.3,1.2,0.7,1.6,1.2s0.7,1.1,0.9,1.7
	c0.2,0.7,0.3,1.4,0.3,2.2v9.9h-2.5V22.3c0-0.9-0.3-1.7-0.8-2.2c-0.5-0.5-1.3-0.8-2.2-0.8c-0.8,0-1.4,0.1-2,0.4c-0.6,0.2-1,0.6-1.4,1
	c-0.4,0.4-0.6,0.9-0.8,1.5c-0.2,0.6-0.3,1.2-0.3,1.9v8.5h-2.5V17.4H95.2z"/>
<path fill="#FFFFFF" d="M115.5,17.4v2.2h-3V29c0,0.3,0,0.5,0.1,0.7c0.1,0.2,0.2,0.3,0.3,0.4c0.1,0.1,0.3,0.2,0.6,0.2
	c0.3,0,0.6,0.1,0.9,0.1h1.2v2.2h-1.9c-0.6,0-1.2-0.1-1.7-0.1c-0.5-0.1-0.8-0.3-1.1-0.5c-0.3-0.2-0.5-0.6-0.6-1
	c-0.1-0.4-0.2-1-0.2-1.7v-9.6h-2.6v-2.2h2.6v-4.5h2.5v4.5H115.5z"/>
<polygon fill="#FFFFFF" points="147.5,32.5 143,32.5 139.5,18.4 139.4,18.4 136,32.5 131.3,32.5 125.8,11.7 130.4,11.7 133.7,25.9 
	133.7,25.9 137.3,11.7 141.6,11.7 145.2,26.1 145.2,26.1 148.6,11.7 153.1,11.7 "/>
<path fill="#FFFFFF" d="M161.8,25.2c-0.7,0.6-2.2,0.6-3.4,0.9c-1.3,0.3-2.5,0.7-2.5,2.2c0,1.5,1.2,1.9,2.5,1.9
	c3.2,0,3.3-2.5,3.3-3.5V25.2L161.8,25.2z M152.2,22.1c0.3-3.9,3.7-5,7.1-5c3,0,6.6,0.7,6.6,4.3v7.8c0,1.4,0.1,2.7,0.5,3.3h-4.2
	c-0.1-0.5-0.3-0.9-0.3-1.5c-1.3,1.4-3.2,1.9-5.1,1.9c-2.9,0-5.1-1.4-5.1-4.5c0.1-6.9,10.2-3.2,10-6.5c0-1.7-1.2-2-2.7-2
	c-1.6,0-2.6,0.6-2.7,2.3H152.2L152.2,22.1z"/>
<path fill="#FFFFFF" d="M173.5,17.5h3v2.8h-3v7.5c0,1.4,0.4,1.7,1.7,1.7c0.5,0,0.9,0,1.3-0.1v3.2c-0.7,0.1-1.6,0.1-2.4,0.1
	c-2.6,0-4.8-0.6-4.8-3.6v-8.9h-2.5v-2.8h2.5V13h4.1V17.5L173.5,17.5z"/>
<path fill="#FFFFFF" d="M181.5,27.7c0,1.8,1.6,2.5,3.2,2.5c1.1,0,2.7-0.5,2.7-1.9c0-1.3-1.7-1.7-4.7-2.4c-2.4-0.6-4.8-1.3-4.8-4
	c0-3.9,3.3-4.8,6.5-4.8c3.2,0,6.3,1.1,6.6,4.8h-3.9c-0.1-1.6-1.3-2-2.8-2c-0.9,0-2.3,0.1-2.3,1.4c0,1.5,2.4,1.7,4.7,2.2
	c2.4,0.6,4.8,1.4,4.8,4.2c0,4-3.5,5.2-6.9,5.2c-3.5,0-6.9-1.3-7.1-5.3L181.5,27.7L181.5,27.7z"/>
<path fill="#FFFFFF" d="M200.5,29.8c2.8,0,3.7-2.4,3.7-4.8c0-2.4-0.8-4.8-3.7-4.8c-2.8,0-3.6,2.4-3.6,4.8
	C196.9,27.5,197.8,29.8,200.5,29.8L200.5,29.8z M200.5,17.1c4.8,0,7.8,3.1,7.8,8c0,4.8-3,7.9-7.8,7.9c-4.7,0-7.8-3.1-7.8-7.9
	C192.8,20.2,195.8,17.1,200.5,17.1L200.5,17.1z"/>
<path fill="#FFFFFF" d="M209.8,17.5h3.9v2.1h0.1c1-1.7,2.9-2.5,4.6-2.5c4.4,0,5.5,2.5,5.5,6.2v9.3h-4.1V24c0-2.5-0.7-3.7-2.7-3.7
	c-2.2,0-3.2,1.3-3.2,4.3v7.9h-4.1L209.8,17.5L209.8,17.5z"/>
</svg>
