<?xml version="1.0" encoding="utf-8"?>
<!-- Generator: Adobe Illustrator 14.0.0, SVG Export Plug-In  -->
<!DOCTYPE svg PUBLIC "-//W3C//DTD SVG 1.1//EN" "http://www.w3.org/Graphics/SVG/1.1/DTD/svg11.dtd" [
	<!ENTITY ns_flows "http://ns.adobe.com/Flows/1.0/">
]>
<svg version="1.1"
	 xmlns="http://www.w3.org/2000/svg" xmlns:xlink="http://www.w3.org/1999/xlink" xmlns:a="http://ns.adobe.com/AdobeSVGViewerExtensions/3.0/"
	 x="0px" y="0px" width="150px" height="50px" viewBox="0 0 150 50" enable-background="new 0 0 150 50" xml:space="preserve">
<defs>
</defs>
<rect display="none" width="150" height="50"/>
<path fill="#FFFFFF" d="M36.445,22.661v-5.944v-0.99c0-6.565-5.324-11.888-11.888-11.888c-6.563,0-11.888,5.323-11.888,11.888v0.99
	v5.944H9.698c0,2.74,2.22,4.954,4.947,4.954h19.823c2.729,0,4.949-2.214,4.949-4.954H36.445z M13.66,22.661v-5.944h21.794v5.944
	H13.66z"/>
<path fill="#FFFFFF" d="M39.082,32.174c-0.049-0.29-0.096-0.58-0.168-0.871v-0.021c-0.628-2.753-2.028-5.191-3.959-7.098
	c-0.564-0.557-1.179-1.064-1.828-1.522h-2.332c0.375,0.191,0.742,0.391,1.096,0.607c-0.386-0.05-0.796-0.098-1.207-0.098
	c-0.411,0-0.846,0.024-1.28,0.073c-0.03-0.207-0.068-0.398-0.11-0.582h-0.688c0.052,0.205,0.093,0.44,0.123,0.702
	c-0.579,0.098-1.184,0.267-1.786,0.436c0.244-0.44,0.488-0.824,0.723-1.137H26.2c-0.339,0.496-0.683,1.076-1.021,1.74
	c-0.363,0.145-0.724,0.267-1.111,0.436c-2.413-1.11-4.778-1.568-6.783-1.329c0.463-0.311,0.946-0.593,1.447-0.847h-2.267
	c-0.91,0.645-1.748,1.39-2.487,2.223c-0.121,0.095-0.241,0.193-0.338,0.29l0.049,0.048c-2.101,2.51-3.38,5.769-3.38,9.293
	c0,0.506,0.024,1.014,0.073,1.496c0.025,0.241,0.072,0.458,0.095,0.7v0.096h0.025c0.41,2.487,1.423,4.756,2.92,6.662
	c0.072,0.098,0.121,0.218,0.217,0.313l0.025-0.023c2.655,3.21,6.685,5.238,11.151,5.238c3.597,0,6.879-1.328,9.414-3.476
	l0.892-0.796c2.56-2.632,4.177-6.229,4.177-10.211c0-0.749-0.074-1.496-0.193-2.222C39.129,32.245,39.106,32.222,39.082,32.174z
	 M36.33,27.901c0.555,0.966,0.99,2.026,1.304,3.113c-0.435-0.146-0.966-0.242-1.521-0.315C36.305,29.711,36.378,28.771,36.33,27.901
	z M35.895,31.499c0.677,0.142,1.207,0.288,1.546,0.479c-0.387,0.338-1.111,0.772-2.149,1.208
	C35.533,32.607,35.726,32.052,35.895,31.499z M29.499,24.137c2.101-0.074,3.861,0.433,5.044,1.495
	c0.726,1.183,0.797,2.97,0.314,4.947c-1.038-0.048-2.173-0.048-3.306,0c-0.412-0.505-0.869-0.989-1.352-1.447
	c-0.242-0.242-0.507-0.482-0.772-0.724C29.572,26.791,29.596,25.318,29.499,24.137z M22.427,42.938
	c-0.193-0.12-0.387-0.241-0.58-0.361c0.121-1.594,0.363-3.38,0.701-5.189c1.208-0.146,2.196-0.288,2.679-0.361
	c0.361-0.05,1.134-0.194,2.148-0.387c-0.484,1.688-1.111,3.427-1.787,5.021C24.527,42.19,23.465,42.624,22.427,42.938z
	 M24.816,43.349c-0.121,0.24-0.217,0.507-0.338,0.725c-0.217-0.098-0.411-0.218-0.627-0.314
	C24.165,43.613,24.502,43.493,24.816,43.349z M27.882,34.636c-0.047,0.241-0.121,0.481-0.168,0.723
	c-0.893,0.17-1.835,0.362-2.824,0.509c-0.749,0.12-1.424,0.191-2.124,0.288c0.168-0.797,0.338-1.568,0.531-2.341
	c0.169-0.652,0.338-1.327,0.53-2.004c0.218-0.023,0.411-0.072,0.629-0.119c0.458-0.073,0.917-0.146,1.375-0.192
	c0.122,0.288,0.41,0.479,0.723,0.479c0.388,0,0.701-0.287,0.772-0.65c0.388-0.047,0.772-0.072,1.16-0.095
	c-0.072,0.48-0.145,0.963-0.217,1.447c-0.531,0.048-0.943,0.481-0.943,1.014C27.303,34.129,27.543,34.467,27.882,34.636z
	 M27.931,36.519c1.4-0.291,3.113-0.701,4.779-1.184c-0.941,1.426-2.149,2.824-3.62,4.031c-0.845,0.699-1.738,1.305-2.656,1.834
	C26.989,39.752,27.472,38.208,27.931,36.519z M34.664,31.303c-0.241,0.749-0.555,1.522-0.94,2.294
	c-0.484-0.819-1.062-1.641-1.691-2.462C32.999,31.16,33.892,31.207,34.664,31.303z M29.258,29.954c0.024,0,0.024,0.022,0.048,0.022
	c0.241,0.217,0.459,0.458,0.675,0.7c-0.265,0.022-0.554,0.049-0.82,0.072C29.209,30.46,29.234,30.219,29.258,29.954z M30.391,31.16
	c0.845,0.964,1.57,1.979,2.197,2.969c-1.231,0.386-2.679,0.748-4.32,1.109c0.047-0.168,0.072-0.338,0.12-0.507
	c0.532-0.023,0.966-0.46,0.966-1.013c0-0.387-0.241-0.726-0.555-0.894c0.12-0.555,0.217-1.087,0.29-1.618
	C29.547,31.184,29.981,31.16,30.391,31.16z M26.506,24.595c0.797-0.194,1.568-0.338,2.317-0.412c0.072,1.014,0.072,2.293-0.023,3.67
	c-0.918-0.772-1.883-1.449-2.848-2.028C26.145,25.391,26.337,24.979,26.506,24.595z M25.492,26.96
	c1.087,0.676,2.171,1.497,3.186,2.438c-0.047,0.457-0.095,0.94-0.145,1.398c-0.436,0.049-0.844,0.072-1.23,0.121
	c-0.121-0.313-0.412-0.53-0.75-0.53c-0.409,0-0.748,0.312-0.796,0.723c-0.82,0.097-1.352,0.192-1.472,0.218
	c-0.048,0-0.145,0.024-0.338,0.049C24.431,29.855,24.938,28.334,25.492,26.96z M24.358,26.283c-0.628,1.521-1.255,3.307-1.785,5.335
	c-1.859,0.36-4.852,0.989-7.412,1.835c0.701-1.257,1.618-2.488,2.704-3.645c0.169,0.119,0.362,0.192,0.579,0.192
	c0.556,0,1.015-0.458,1.038-1.014c-0.023-0.192-0.096-0.361-0.192-0.53c0.072-0.073,0.168-0.146,0.241-0.219
	c1.206-1.014,2.509-1.811,3.813-2.437C23.682,25.945,24.021,26.115,24.358,26.283z M15.089,25.511
	c1.811-1.254,4.681-1.182,7.7,0.049c-1.184,0.651-2.342,1.4-3.476,2.341c-0.098,0.098-0.194,0.168-0.313,0.265
	c-0.168-0.121-0.362-0.192-0.58-0.192c-0.555,0-1.013,0.459-1.013,1.037c0,0.194,0.071,0.362,0.168,0.508
	c-1.183,1.207-2.196,2.46-3.016,3.766C13.52,30.17,13.666,27.249,15.089,25.511z M15.452,36.591c-0.58-0.026-1.11-0.072-1.569-0.122
	c0.168-0.529,0.337-1.061,0.579-1.617C14.752,35.432,15.089,36.011,15.452,36.591z M11.493,34.515c0-2.101,0.505-4.08,1.375-5.865
	c-0.024,1.593,0.362,3.402,1.135,5.238c-0.99,0.384-1.859,0.795-2.486,1.254C11.518,34.925,11.493,34.731,11.493,34.515z
	 M12.41,39.318c-0.266-0.653-0.458-1.329-0.627-2.027c0.266,0.096,0.579,0.192,0.893,0.265
	C12.531,38.159,12.434,38.763,12.41,39.318z M13.062,36.325c-0.459-0.098-0.869-0.218-1.11-0.338
	c0.338-0.314,0.893-0.702,1.737-1.136C13.448,35.335,13.255,35.817,13.062,36.325z M13.907,41.949
	c-0.507-1.185-0.604-2.631-0.313-4.225c0.82,0.097,1.762,0.146,2.728,0.146c0.41,0.578,0.869,1.132,1.351,1.688
	c-0.121,0.169-0.193,0.363-0.193,0.58c0,0.555,0.459,1.038,1.039,1.038c0.218,0,0.385-0.072,0.555-0.194
	c0.507,0.484,1.038,0.941,1.569,1.376c-0.024,0.388-0.048,0.748-0.048,1.086C17.479,43.976,14.872,43.493,13.907,41.949z
	 M16.079,44.555c1.329,0.338,2.849,0.361,4.489,0.098c0.049,1.135,0.218,2.003,0.507,2.631
	C19.216,46.751,17.503,45.811,16.079,44.555z M20.665,41.731c-0.434-0.338-0.869-0.723-1.303-1.111
	c0.097-0.145,0.146-0.313,0.146-0.507c0-0.579-0.459-1.037-1.015-1.037c-0.169,0-0.313,0.048-0.458,0.12
	c-0.386-0.434-0.749-0.892-1.086-1.375c1.472-0.049,2.968-0.146,4.296-0.289C20.979,39.1,20.786,40.5,20.665,41.731z M16.104,36.591
	c-0.484-0.773-0.87-1.545-1.208-2.319c1.858-0.771,4.417-1.566,7.505-2.17c-0.12,0.506-0.265,1.037-0.385,1.568
	c-0.217,0.94-0.387,1.81-0.555,2.655C19.362,36.542,17.575,36.615,16.104,36.591z M22.332,47.234
	c-0.364-0.506-0.532-1.52-0.556-2.847c0.41-0.097,0.844-0.217,1.279-0.364c0.362,0.219,0.748,0.436,1.11,0.629
	C23.488,45.906,22.837,46.849,22.332,47.234z M24.792,47.814c-0.628,0-1.231-0.05-1.811-0.146c0.58-0.604,1.183-1.521,1.811-2.703
	c1.931,0.917,3.838,1.425,5.551,1.472c0.121,0,0.242-0.024,0.363-0.024C28.92,47.307,26.917,47.814,24.792,47.814z M33.747,44.338
	c-1.955,1.425-5.238,1.399-8.641,0.023c0.218-0.456,0.435-0.965,0.676-1.471c1.375-0.7,2.776-1.595,4.08-2.682
	c1.52-1.253,2.8-2.653,3.79-4.078C35.075,39.366,35.195,42.456,33.747,44.338z M35.895,41.852c0.218-2.076-0.289-4.488-1.472-6.951
	c0.024-0.049,0.049-0.12,0.097-0.169c1.424-0.507,2.704-1.11,3.524-1.738c0.048,0.508,0.096,1.014,0.096,1.521
	C38.116,37.241,37.295,39.752,35.895,41.852z"/>
<path fill="#FFFFFF" d="M25.064,22.698c0.022,0,0.044-0.022,0.044-0.022c0,0.022-0.022,0.022-0.022,0.044
	C25.109,22.721,25.086,22.698,25.064,22.698z"/>
<path fill="#FFFFFF" d="M59.578,6.506l6.381,16.329h-2.401l-1.784-4.917h-6.907l-1.83,4.917h-2.218l6.358-16.329H59.578z
	 M61.087,16.089l-2.721-7.617H58.32l-2.767,7.617H61.087z"/>
<path fill="#FFFFFF" d="M76.112,26.174c-0.884,0.96-2.272,1.44-4.162,1.44c-0.549,0-1.109-0.061-1.681-0.182
	c-0.571-0.124-1.091-0.321-1.555-0.596c-0.467-0.273-0.851-0.632-1.156-1.075c-0.305-0.441-0.473-0.983-0.503-1.623H69
	c0.015,0.35,0.126,0.648,0.332,0.892c0.205,0.244,0.457,0.442,0.755,0.596c0.297,0.151,0.62,0.262,0.972,0.331
	c0.35,0.068,0.686,0.104,1.006,0.104c0.641,0,1.182-0.112,1.624-0.333c0.441-0.221,0.808-0.524,1.098-0.915
	c0.289-0.389,0.499-0.856,0.629-1.405c0.129-0.549,0.194-1.151,0.194-1.807v-0.777h-0.046c-0.335,0.732-0.843,1.269-1.521,1.612
	c-0.678,0.343-1.398,0.514-2.16,0.514c-0.885,0-1.654-0.16-2.31-0.48c-0.656-0.32-1.205-0.75-1.647-1.292
	c-0.442-0.541-0.773-1.173-0.994-1.898c-0.222-0.724-0.333-1.49-0.333-2.298c0-0.702,0.092-1.421,0.275-2.162
	c0.182-0.74,0.488-1.41,0.915-2.013c0.426-0.602,0.991-1.098,1.692-1.486s1.562-0.583,2.584-0.583c0.746,0,1.434,0.164,2.059,0.492
	c0.625,0.329,1.112,0.82,1.464,1.476h0.022v-1.693h1.83v10.817C77.439,23.765,76.996,25.214,76.112,26.174z M73.631,20.856
	c0.449-0.266,0.812-0.617,1.087-1.052c0.273-0.434,0.476-0.926,0.605-1.475c0.129-0.548,0.194-1.098,0.194-1.646
	c0-0.519-0.062-1.03-0.183-1.533c-0.122-0.503-0.316-0.957-0.583-1.361c-0.268-0.404-0.614-0.728-1.041-0.972
	c-0.427-0.244-0.946-0.366-1.556-0.366c-0.625,0-1.158,0.119-1.6,0.354c-0.443,0.236-0.805,0.553-1.087,0.949
	c-0.282,0.397-0.487,0.854-0.617,1.372c-0.13,0.519-0.194,1.06-0.194,1.624c0,0.534,0.053,1.067,0.16,1.601
	c0.106,0.534,0.289,1.018,0.548,1.452c0.26,0.435,0.603,0.786,1.029,1.052c0.428,0.268,0.961,0.401,1.602,0.401
	C72.636,21.257,73.181,21.124,73.631,20.856z"/>
<path fill="#FFFFFF" d="M88.736,22.08c-0.885,0.671-1.998,1.007-3.34,1.007c-0.944,0-1.764-0.153-2.457-0.458
	c-0.694-0.305-1.277-0.732-1.75-1.281c-0.473-0.549-0.827-1.204-1.063-1.966c-0.236-0.762-0.37-1.593-0.4-2.493
	c0-0.9,0.137-1.723,0.412-2.47c0.273-0.747,0.658-1.395,1.154-1.944c0.496-0.549,1.082-0.976,1.761-1.28
	c0.679-0.305,1.422-0.458,2.23-0.458c1.051,0,1.925,0.218,2.618,0.652s1.25,0.987,1.669,1.657c0.42,0.671,0.71,1.403,0.87,2.196
	c0.159,0.792,0.224,1.547,0.194,2.264h-8.852c-0.015,0.519,0.046,1.01,0.184,1.476s0.358,0.876,0.663,1.234
	c0.305,0.358,0.693,0.645,1.167,0.857c0.472,0.214,1.028,0.32,1.669,0.32c0.823,0,1.498-0.19,2.024-0.571s0.872-0.96,1.04-1.738
	h1.921C90.191,20.411,89.62,21.409,88.736,22.08z M88.268,14.488c-0.176-0.412-0.412-0.766-0.709-1.063
	c-0.298-0.297-0.647-0.533-1.052-0.709c-0.404-0.175-0.851-0.263-1.338-0.263c-0.504,0-0.957,0.088-1.361,0.263
	c-0.404,0.176-0.751,0.416-1.04,0.721c-0.29,0.305-0.519,0.659-0.687,1.063c-0.169,0.404-0.267,0.834-0.298,1.292h6.793
	C88.545,15.333,88.442,14.899,88.268,14.488z"/>
<path fill="#FFFFFF" d="M94.477,11.011v1.875h0.045c0.809-1.433,2.089-2.15,3.843-2.15c0.777,0,1.425,0.107,1.944,0.32
	c0.518,0.214,0.938,0.511,1.257,0.892c0.32,0.381,0.545,0.835,0.675,1.36c0.13,0.526,0.194,1.109,0.194,1.75v7.775h-1.944v-8.004
	c0-0.732-0.214-1.311-0.64-1.739c-0.427-0.426-1.014-0.64-1.761-0.64c-0.595,0-1.109,0.092-1.544,0.275
	c-0.435,0.183-0.797,0.442-1.086,0.777c-0.29,0.336-0.507,0.729-0.651,1.178c-0.146,0.451-0.219,0.942-0.219,1.476v6.678h-1.943
	V11.011H94.477z"/>
<path fill="#FFFFFF" d="M110.417,11.011v1.716h-2.356v7.341c0,0.229,0.019,0.412,0.057,0.548c0.038,0.138,0.111,0.245,0.218,0.321
	c0.106,0.077,0.255,0.126,0.445,0.149c0.191,0.022,0.439,0.034,0.744,0.034h0.893v1.715h-1.487c-0.503,0-0.935-0.034-1.292-0.103
	c-0.358-0.068-0.648-0.194-0.869-0.377c-0.222-0.183-0.386-0.442-0.491-0.778c-0.107-0.335-0.161-0.778-0.161-1.326v-7.524h-2.012
	v-1.716h2.012V7.467h1.944v3.544H110.417z"/>
<polygon fill="#FFFFFF" points="70.15,47.823 66.09,47.823 62.933,35.199 62.901,35.199 59.808,47.823 55.652,47.823 50.747,29.262 
	54.839,29.262 57.777,41.918 57.808,41.918 61.027,29.262 64.87,29.262 68.025,42.073 68.09,42.073 71.119,29.262 75.119,29.262 "/>
<path fill="#FFFFFF" d="M82.838,41.261c-0.625,0.532-1.938,0.563-3.062,0.781c-1.156,0.219-2.187,0.625-2.187,1.969
	s1.062,1.719,2.25,1.719c2.874,0,2.999-2.25,2.999-3.094V41.261L82.838,41.261z M74.308,38.512c0.218-3.438,3.312-4.5,6.312-4.5
	c2.688,0,5.906,0.594,5.906,3.812v7c0,1.219,0.125,2.438,0.469,3h-3.749c-0.126-0.406-0.251-0.844-0.251-1.312
	c-1.156,1.219-2.874,1.656-4.531,1.656c-2.562,0-4.561-1.281-4.561-4.031c0.061-6.125,9.092-2.844,8.936-5.843
	c0-1.562-1.094-1.813-2.406-1.813c-1.437,0-2.312,0.562-2.437,2.032H74.308L74.308,38.512z"/>
<path fill="#FFFFFF" d="M93.275,34.387h2.719v2.469h-2.719v6.655c0,1.25,0.312,1.562,1.562,1.562c0.406,0,0.812-0.03,1.157-0.094
	v2.875c-0.626,0.094-1.438,0.125-2.156,0.125c-2.282,0-4.249-0.499-4.249-3.188v-7.937h-2.251v-2.469h2.251v-4.031h3.687V34.387
	L93.275,34.387z"/>
<path fill="#FFFFFF" d="M100.461,43.479c0,1.594,1.406,2.25,2.845,2.25c1.031,0,2.406-0.405,2.406-1.719
	c0-1.124-1.563-1.53-4.187-2.093c-2.156-0.5-4.251-1.188-4.251-3.594c0-3.438,2.97-4.312,5.844-4.312c2.906,0,5.656,1,5.938,4.281
	h-3.5c-0.094-1.438-1.187-1.813-2.532-1.813c-0.844,0-2.061,0.126-2.061,1.25c0,1.313,2.093,1.5,4.186,2.001
	c2.157,0.5,4.25,1.281,4.25,3.78c0,3.531-3.093,4.688-6.124,4.688c-3.125,0-6.188-1.156-6.312-4.719H100.461L100.461,43.479z"/>
<path fill="#FFFFFF" d="M117.431,45.417c2.531,0,3.28-2.124,3.28-4.28s-0.749-4.312-3.28-4.312c-2.501,0-3.251,2.156-3.251,4.312
	S114.961,45.417,117.431,45.417L117.431,45.417z M117.431,34.012c4.249,0,6.967,2.812,6.967,7.094c0,4.249-2.718,7.062-6.967,7.062
	c-4.22,0-6.938-2.812-6.938-7.062C110.492,36.824,113.241,34.012,117.431,34.012L117.431,34.012z"/>
<path fill="#FFFFFF" d="M125.742,34.387h3.499v1.875h0.063c0.936-1.531,2.562-2.25,4.124-2.25c3.938,0,4.906,2.219,4.906,5.531v8.28
	h-3.688V40.23c0-2.22-0.625-3.312-2.374-3.312c-2.001,0-2.876,1.124-2.876,3.843v7.031h-3.688V34.387H125.742z"/>
</svg>
